<svg xmlns="http://www.w3.org/2000/svg" viewBox="0 0 58 28"><g class="nc-icon-wrapper"><defs></defs><g data-name="Shape 839" class="b0f685fc-8436-469c-8395-ea78ba272727" style="isolation:isolate"><path class="a0931be7-4721-4149-aab9-9995c3e01f02" d="M34.61 1.87h1.87a.89.89 0 0 0 .94-.94.88.88 0 0 0-.94-.93h-1.87a.88.88 0 0 0-.93.93.88.88 0 0 0 .93.94zm22.45 17.64a.89.89 0 0 0 .94-.94v-4.76c0-.09-4.77-7.93-4.77-7.93a4.41 4.41 0 0 0-3.74-2.15H43v-.84A2.91 2.91 0 0 0 40.13 0a.88.88 0 0 0-.93.93.88.88 0 0 0 .93.94 1 1 0 0 1 1 1v12H25.26a.94.94 0 1 0 0 1.87h15.9v5.6H29.84a4.68 4.68 0 0 0-9.17 0h-.93a1 1 0 0 1-1-1V16.8h2.81a.94.94 0 0 0 0-1.87h-2.84v-12a1 1 0 0 1 1-1h11.44a.89.89 0 0 0 .94-.94.88.88 0 0 0-.94-.99H19.74a2.91 2.91 0 0 0-2.9 2.89v18.39a2.91 2.91 0 0 0 2.9 2.89h.93a6.6 6.6 0 0 0 .85 1.83h-3.75a.94.94 0 0 0 0 1.87h18.71a.94.94 0 1 0 0-1.87H29a4.78 4.78 0 0 0 .84-1.87H45a6.31 6.31 0 0 0 .84 1.87h-5.61a.94.94 0 1 0 0 1.87h16.83a.94.94 0 1 0 0-1.87h-3.74a4.64 4.64 0 0 0 .84-1.87h1.13A2.71 2.71 0 0 0 58 21.47a.94.94 0 1 0-1.87 0 .85.85 0 0 1-.84.84h-1.13a4.67 4.67 0 0 0-9.16 0h-2V5.6h1.9V14a.88.88 0 0 0 .94.93h10.29v3.64a.94.94 0 0 0 .93.94zm-31.8 6.62a2.8 2.8 0 1 1 2.8-2.8 2.75 2.75 0 0 1-2.8 2.8zm24.32-5.6a2.8 2.8 0 1 1-2.81 2.8 2.76 2.76 0 0 1 2.81-2.8zm-2.81-7.46V5.6h2.72a2.61 2.61 0 0 1 2.15 1.21l3.74 6.26zM21.52 3.73a.89.89 0 0 0-.94.94v1.86a.94.94 0 1 0 1.87 0V5.6h.94a.88.88 0 0 0 .93-.93.88.88 0 0 0-.93-.94zm16.83 16.8a.93.93 0 1 0 0-1.86h-5.61a.93.93 0 1 0 0 1.86zM14 26.13H.94a.94.94 0 1 0 0 1.87H14a.94.94 0 1 0 0-1.87zm0-22.4H.94a.89.89 0 0 0-.94.94.88.88 0 0 0 .94.93H14a.88.88 0 0 0 1-.93.89.89 0 0 0-1-.94zm0 5.6H4.68a.94.94 0 1 0 0 1.87H14a.94.94 0 1 0 0-1.87zm0 5.6H8.42a.94.94 0 1 0 0 1.87H14a.94.94 0 1 0 0-1.87zm0 5.6h-1.84a.94.94 0 0 0 0 1.87H14a.94.94 0 1 0 0-1.87zm11.26 1.87a.94.94 0 1 0 .93.93.94.94 0 0 0-.93-.93zm24.32 1.87a.94.94 0 1 0 0-1.87.94.94 0 0 0 0 1.87z" data-name="Shape 839" fill-rule="evenodd"></path></g></g></svg>