<svg enable-background="new 0 0 18.09 17.5" viewBox="0 0 18.09 17.5" xmlns="http://www.w3.org/2000/svg"><ellipse cx="9.06" cy="15.32" fill="#d8d9da" rx="7.03" ry="2.15"/><path d="m13.42 4.69-4.38-4.46-4.37 4.46v9.95h8.75z" fill="#f7be56"/><path d="m6.64 11.4h4.8v3.25h-4.8z" fill="#fff"/><path d="m6.05 8.82h1.25v1.25h-1.25z" fill="#fff"/><path d="m7.3 10.28h-1.25c-.12 0-.21-.09-.21-.21v-1.25c0-.12.1-.21.21-.21h1.25c.12 0 .21.09.21.21v1.25c0 .12-.1.21-.21.21zm-1.04-.42h.83v-.83h-.83z" fill="#703407"/><path d="m8.42 8.82h1.25v1.25h-1.25z" fill="#fff"/><path d="m9.67 10.28h-1.25c-.12 0-.21-.09-.21-.21v-1.25c0-.12.09-.21.21-.21h1.25c.12 0 .21.09.21.21v1.25c0 .12-.09.21-.21.21zm-1.04-.42h.83v-.83h-.83z" fill="#703407"/><path d="m10.8 8.82h1.25v1.25h-1.25z" fill="#fff"/><path d="m12.05 10.28h-1.25c-.12 0-.21-.09-.21-.21v-1.25c0-.12.09-.21.21-.21h1.25c.12 0 .21.09.21.21v1.25c0 .12-.1.21-.21.21zm-1.04-.42h.83v-.83h-.83z" fill="#703407"/><path d="m6.05 6.28h1.25v1.25h-1.25z" fill="#fff"/><path d="m7.3 7.74h-1.25c-.12 0-.21-.09-.21-.21v-1.25c0-.12.1-.21.21-.21h1.25c.12 0 .21.09.21.21v1.25c0 .12-.1.21-.21.21zm-1.04-.42h.83v-.83h-.83z" fill="#703407"/><path d="m8.42 6.28h1.25v1.25h-1.25z" fill="#fff"/><path d="m9.67 7.74h-1.25c-.12 0-.21-.09-.21-.21v-1.25c0-.12.09-.21.21-.21h1.25c.12 0 .21.09.21.21v1.25c0 .12-.09.21-.21.21zm-1.04-.42h.83v-.83h-.83z" fill="#703407"/><path d="m10.8 6.28h1.25v1.25h-1.25z" fill="#fff"/><path d="m12.05 7.74h-1.25c-.12 0-.21-.09-.21-.21v-1.25c0-.12.09-.21.21-.21h1.25c.12 0 .21.09.21.21v1.25c0 .12-.1.21-.21.21zm-1.04-.42h.83v-.83h-.83z" fill="#703407"/><circle cx="9.05" cy="3.84" fill="#fff" r="1.5"/><path d="m9.05 5.55a1.71 1.71 0 1 1 -.002-3.422 1.71 1.71 0 0 1 .002 3.422zm0-3c-.71 0-1.29.58-1.29 1.29s.58 1.29 1.29 1.29 1.29-.58 1.29-1.29-.58-1.29-1.29-1.29z" fill="#703407"/><path d="m9.74 3.63h-.48v-.48c0-.12-.09-.21-.21-.21s-.22.09-.22.21v.48h-.47c-.12 0-.21.09-.21.21s.09.21.21.21h.48v.48c0 .12.1.21.21.21s.21-.09.21-.21v-.48h.48c.12 0 .21-.09.21-.21s-.1-.21-.21-.21z" fill="#703407"/><path d="m.64 7.53h4.04v7.12h-4.04z" fill="#f7be56"/><path d="m13.42 7.53h4.04v7.12h-4.04z" fill="#f7be56"/><path d="m2.03 8.82h1.25v1.25h-1.25z" fill="#fff"/><path d="m3.28 10.28h-1.25c-.12 0-.21-.09-.21-.21v-1.25c0-.12.09-.21.21-.21h1.25c.12 0 .21.09.21.21v1.25c0 .12-.1.21-.21.21zm-1.04-.42h.83v-.83h-.83z" fill="#703407"/><path d="m2.03 11.4h1.25v1.25h-1.25z" fill="#fff"/><path d="m3.28 12.86h-1.25c-.12 0-.21-.09-.21-.21v-1.25c0-.12.09-.21.21-.21h1.25c.12 0 .21.09.21.21v1.25c0 .12-.1.21-.21.21zm-1.04-.42h.83v-.83h-.83z" fill="#703407"/><path d="m14.81 8.82h1.25v1.25h-1.25z" fill="#fff"/><path d="m16.06 10.28h-1.25c-.12 0-.21-.09-.21-.21v-1.25c0-.12.09-.21.21-.21h1.25c.12 0 .21.09.21.21v1.25c0 .12-.09.21-.21.21zm-1.04-.42h.83v-.83h-.83z" fill="#703407"/><path d="m14.81 11.4h1.25v1.25h-1.25z" fill="#fff"/><path d="m16.06 12.86h-1.25c-.12 0-.21-.09-.21-.21v-1.25c0-.12.09-.21.21-.21h1.25c.12 0 .21.09.21.21v1.25c0 .12-.09.21-.21.21zm-1.04-.42h.83v-.83h-.83z" fill="#703407"/><path d="m4.67 6.75h-4.11c-.19 0-.35.16-.35.35v.09c0 .19.16.35.35.35h4.11z" fill="#fff"/><path d="m13.42 7.53h4.11c.19 0 .35-.16.35-.35v-.09c0-.19-.16-.35-.35-.35h-4.11z" fill="#fff"/><path d="m17.49 6.53h-3.85v-1.84c0-.06-.02-.11-.06-.15l-4.38-4.46a.23.23 0 0 0 -.31 0l-4.37 4.46a.22.22 0 0 0 -.06.15v1.84h-3.86c-.33 0-.6.28-.6.61 0 .27.18.5.42.57v6.94c0 .12.09.21.21.21h4.04c.02 0 .04-.01.06-.01h1.85c.02.01.04.01.06.01h4.8c.02 0 .04-.01.06-.01h1.85c.02.01.04.01.06.01h4.04c.12 0 .21-.09.21-.21v-6.94c.24-.08.42-.3.42-.57a.596.596 0 0 0 -.59-.61zm-13.03 7.91h-3.61v-6.7h3.61zm0-7.12h-3.86a.18.18 0 0 1 -.18-.18c0-.1.08-.18.18-.18h3.85v.36zm6.77 4.29v2.82h-1.97v-2.82zm-2.4 2.82h-1.97v-2.82h1.98v2.82zm4.38-7.68v7.69h-1.55v-2.82h.39c.12 0 .21-.1.21-.21 0-.12-.09-.21-.21-.21h-6c-.12 0-.21.09-.21.21s.1.21.21.21h.39v2.82h-1.56v-9.66l4.16-4.25 4.16 4.25v1.97zm4.03 7.69h-3.61v-6.7h3.61zm.25-7.12h-3.85v-.36h3.85c.1 0 .18.08.18.18s-.08.18-.18.18z" fill="#703407"/></svg>