<svg xmlns="http://www.w3.org/2000/svg" x="0" y="0" viewBox="0 0 166 65" xml:space="preserve"><g class="nc-icon-wrapper"><g id="Medilazar_1_" class="st0"><path class="st1" d="M14.38 32.27L4.98 18.7H.57V46h5.19V28.53l6.79 9.63h3.63l6.79-9.63V46h5.19V18.7h-4.41l-9.37 13.57zm31.04-4.66c-1.4-.79-2.95-1.19-4.64-1.19-1.77 0-3.39.42-4.88 1.27a9.401 9.401 0 0 0-3.53 3.55c-.87 1.52-1.31 3.26-1.31 5.21s.43 3.69 1.29 5.21c.86 1.52 2.03 2.7 3.53 3.55 1.49.84 3.17 1.27 5.01 1.27 1.56 0 2.98-.3 4.27-.9 1.29-.6 2.37-1.39 3.26-2.38l-3.08-3.32c-1.2 1.38-2.7 2.07-4.52 2.07-1.2 0-2.23-.35-3.1-1.05-.87-.7-1.42-1.69-1.66-2.96h13.73c.13-.88.2-1.69.2-2.42 0-1.69-.41-3.23-1.23-4.62-.82-1.4-1.93-2.5-3.34-3.29zm-9.08 6.46c.34-.96.87-1.74 1.6-2.34.73-.6 1.66-.9 2.81-.9 1.12 0 2.05.31 2.81.92.75.61 1.25 1.38 1.48 2.32h-8.7zm29.83-5.06c-1.38-1.72-3.32-2.58-5.81-2.58-1.59 0-3.06.41-4.41 1.23-1.35.82-2.44 1.99-3.26 3.51-.82 1.52-1.23 3.28-1.23 5.28 0 2 .41 3.76 1.23 5.28.82 1.52 1.9 2.69 3.26 3.51 1.35.82 2.82 1.23 4.41 1.23 1.35 0 2.49-.23 3.41-.69.92-.46 1.72-1.13 2.4-2.02V46h4.88V17.3h-4.88v11.71zm-1.09 11.2c-.91.97-2.13 1.46-3.67 1.46-1.51 0-2.72-.49-3.65-1.48-.92-.99-1.38-2.24-1.38-3.74 0-1.53.46-2.79 1.38-3.76.92-.98 2.14-1.46 3.65-1.46 1.53 0 2.76.49 3.67 1.46.91.97 1.36 2.23 1.36 3.76 0 1.53-.45 2.78-1.36 3.76zM74.83 46h4.91V26.89h-4.91V46zm2.49-27.77c-.83 0-1.55.3-2.15.9-.6.6-.9 1.31-.9 2.15 0 .83.3 1.55.9 2.15.6.6 1.31.9 2.15.9.81 0 1.51-.3 2.11-.9.6-.6.9-1.31.9-2.15 0-.83-.3-1.55-.9-2.15-.6-.6-1.3-.9-2.11-.9zM83.53 46h4.88V17.3h-4.88V46zm22.11-16.91c-.49-.78-1.23-1.42-2.2-1.92-.97-.5-2.1-.75-3.37-.75-1.59 0-3.07.41-4.45 1.23-1.38.82-2.49 1.98-3.33 3.49-.85 1.51-1.27 3.28-1.27 5.3 0 2 .42 3.76 1.27 5.28.84 1.52 1.96 2.69 3.33 3.51 1.38.82 2.86 1.23 4.45 1.23 1.27 0 2.4-.26 3.37-.77.98-.51 1.71-1.17 2.2-1.98V46h4.91V26.89h-4.91v2.2zm-1.13 11.14c-.96.99-2.16 1.48-3.59 1.48-1.4 0-2.59-.48-3.55-1.44s-1.44-2.24-1.44-3.82c0-1.61.48-2.89 1.44-3.84.96-.95 2.14-1.42 3.55-1.42 1.43 0 2.63.49 3.59 1.46s1.44 2.24 1.44 3.8c0 1.53-.48 2.79-1.44 3.78zm24.25-10.92v-2.42h-15.33v4.52h7.92l-8.07 11.74V46h15.95v-4.6h-8.85l8.38-12.09zm15.99-.22c-.49-.78-1.23-1.42-2.2-1.92-.98-.5-2.1-.75-3.37-.75-1.59 0-3.07.41-4.45 1.23-1.38.82-2.49 1.98-3.33 3.49-.85 1.51-1.27 3.28-1.27 5.3 0 2 .42 3.76 1.27 5.28.84 1.52 1.96 2.69 3.33 3.51 1.38.82 2.86 1.23 4.45 1.23 1.27 0 2.4-.26 3.37-.77.97-.51 1.71-1.17 2.2-1.98V46h4.91V26.89h-4.91v2.2zm-1.13 11.14c-.96.99-2.16 1.48-3.59 1.48-1.4 0-2.59-.48-3.55-1.44s-1.44-2.24-1.44-3.82c0-1.61.48-2.89 1.44-3.84.96-.95 2.15-1.42 3.55-1.42 1.43 0 2.63.49 3.59 1.46s1.44 2.24 1.44 3.8c.01 1.53-.47 2.79-1.44 3.78zm19.62-13.81c-1.2 0-2.24.29-3.12.88-.88.59-1.65 1.51-2.3 2.79l-.2-3.2h-4.48V46h4.88v-8.62c0-1.07.24-2.06.72-2.98.48-.92 1.12-1.66 1.91-2.2.79-.55 1.62-.82 2.48-.82.7 0 1.43.1 2.18.31V26.7c-.63-.19-1.32-.28-2.07-.28z" id="Medilazar" fill-rule="evenodd" clip-rule="evenodd" fill="#FFFFFF"></path></g><g id="Vector_Smart_Object_xA0_Image_1_"><linearGradient id="SVGID_1_" gradientUnits="userSpaceOnUse" x1="112.431" y1="-2.345" x2="113.19" y2="27.795"><stop offset="0" stop-color="#D1E146"></stop><stop offset="1" stop-color="#3EB44A"></stop></linearGradient><path class="st2" d="M103.98 0c1.71.05 5.8.53 5.67 3.87v4.65h4.55v4.96h-4.55v4.65h-5.02v.02c0 2.98 2.83 3.7 4.72 3.85h1.39c.8 0 1.59-.09 2.34-.26 4.53-1.05 7.91-5.07 7.91-9.88V0h-17.01z" style="" fill="url(#SVGID_1_)"></path><linearGradient id="SVGID_2_" gradientUnits="userSpaceOnUse" x1="101.474" y1="21.595" x2="101.094" y2="-1.278"><stop offset="0" stop-color="#D0E746"></stop><stop offset="1" stop-color="#3EB44A"></stop></linearGradient><path class="st3" d="M104.63 18.15v-.02h.01v-4.65h-4.85V8.52h4.85V3.87h5.01c.13-3.34-3.97-3.82-5.67-3.87h-.73c-.76 0-1.5.08-2.22.24-4.59 1-8.03 5.06-8.03 9.9V22h16.36c-1.9-.14-4.73-.86-4.73-3.85z" style="" fill="url(#SVGID_2_)"></path><linearGradient id="SVGID_3_" gradientUnits="userSpaceOnUse" x1="104.642" y1="17.987" x2="104.642" y2="17.987"><stop offset="0" stop-color="#F6931D"></stop><stop offset="1" stop-color="#EE4035"></stop></linearGradient><linearGradient id="SVGID_4_" gradientUnits="userSpaceOnUse" x1="113.828" y1="20.145" x2="105.373" y2="20.031"><stop offset="0" stop-color="#82C341"></stop><stop offset="1" stop-color="#12AA4B" stop-opacity=".8"></stop></linearGradient><path class="st6" d="M113.09 21.74c-.75.17-1.53.26-2.34.26h-1.39c-1.9-.14-4.72-.86-4.72-3.85v-.02h1.79c.52 3.93 6.66 3.61 6.66 3.61z" style="" fill="url(#SVGID_4_)"></path><linearGradient id="SVGID_5_" gradientUnits="userSpaceOnUse" x1="99.384" y1="1.935" x2="108.01" y2="1.935"><stop offset="0" stop-color="#82C341"></stop><stop offset="1" stop-color="#12AA4B" stop-opacity=".8"></stop></linearGradient><path class="st7" d="M109.65 3.87h-1.76c-.48-3.98-6.86-3.63-6.86-3.63.71-.16 1.46-.24 2.22-.24h.73c1.71.05 5.8.53 5.67 3.87z" style="" fill="url(#SVGID_5_)"></path><path class="st5" d="M106.42 18.13c0-.01 0-.03-.01-.05" style="" fill="none"></path></g><g id="Online_Pharmacy_1_" class="st0"><path class="st1" d="M37.05 52.71c-.77-.45-1.62-.68-2.53-.68-.91 0-1.76.23-2.53.68-.77.45-1.39 1.07-1.83 1.85a5 5 0 0 0-.67 2.54 5 5 0 0 0 .67 2.54 4.997 4.997 0 0 0 4.36 2.53c.91 0 1.76-.23 2.53-.68.77-.45 1.39-1.07 1.83-1.85a5 5 0 0 0 .67-2.54 5 5 0 0 0-.67-2.54c-.44-.78-1.06-1.4-1.83-1.85zm.82 6.36c-.34.61-.81 1.09-1.4 1.44-.59.35-1.24.53-1.95.53s-1.36-.18-1.95-.53a3.87 3.87 0 0 1-1.4-1.44c-.34-.61-.51-1.26-.51-1.97s.17-1.37.51-1.97c.34-.61.81-1.09 1.4-1.44.59-.35 1.24-.53 1.95-.53s1.36.18 1.95.53c.59.35 1.06.84 1.4 1.44.34.61.51 1.26.51 1.97s-.17 1.37-.51 1.97zm6.36-4.1c-.49 0-.91.12-1.28.36s-.66.56-.88.95v-1.15h-1.12V62h1.12v-3.47c0-.46.09-.88.28-1.25.19-.38.44-.67.76-.89.32-.21.67-.32 1.04-.32 1.04 0 1.55.69 1.55 2.07V62h1.12v-3.93c0-1.04-.23-1.81-.69-2.32-.45-.52-1.09-.78-1.9-.78zM48.64 62h1.12V51.7h-1.12V62zm3.57-9.97c-.22 0-.41.07-.56.22-.15.15-.22.33-.22.55 0 .22.07.41.22.56.15.15.34.22.56.22.21 0 .4-.07.55-.22.15-.15.22-.34.22-.56 0-.21-.07-.4-.22-.55a.779.779 0 0 0-.55-.22zM51.65 62h1.11v-6.86h-1.11V62zm6.26-7.03c-.49 0-.91.12-1.28.36s-.66.56-.88.95v-1.15h-1.12V62h1.12v-3.47c0-.46.09-.88.28-1.25.19-.38.44-.67.76-.89.32-.21.67-.32 1.04-.32 1.04 0 1.55.69 1.55 2.07V62h1.12v-3.93c0-1.04-.23-1.81-.69-2.32-.45-.52-1.09-.78-1.9-.78zm8.96.4c-.48-.27-1.02-.4-1.62-.4-.6 0-1.16.15-1.68.46-.52.3-.94.73-1.26 1.28-.32.55-.48 1.17-.48 1.86 0 .69.14 1.31.43 1.85.29.55.69.97 1.21 1.28s1.11.46 1.77.46c.64 0 1.22-.13 1.72-.4s.9-.59 1.19-.99l-.77-.8c-.53.75-1.25 1.12-2.14 1.12-.64 0-1.18-.22-1.6-.65s-.65-.98-.7-1.63h5.39c.03-.17.04-.41.04-.73 0-.61-.13-1.15-.4-1.62-.25-.45-.62-.82-1.1-1.09zm-3.82 2.39c.14-.52.41-.94.81-1.25.4-.31.86-.47 1.39-.47.58 0 1.04.15 1.37.44s.55.72.63 1.28h-4.2zm16.23-5.18c-.47-.25-.99-.38-1.56-.38h-3.5V62h1.15v-3.92h2.38c.56 0 1.07-.13 1.54-.38s.84-.6 1.11-1.05c.28-.45.41-.95.41-1.51 0-.57-.14-1.08-.41-1.52a2.95 2.95 0 0 0-1.12-1.04zm-.24 3.88c-.38.33-.95.5-1.71.5h-1.96v-3.64h2.31c.59 0 1.06.18 1.41.53.35.35.52.78.52 1.29 0 .55-.19.99-.57 1.32zm6.52-1.49c-.48 0-.91.13-1.31.38s-.68.56-.85.94V51.7h-1.12V62h1.12v-3.47c0-.46.09-.88.28-1.25.19-.38.44-.67.76-.89.32-.21.67-.32 1.04-.32 1.04 0 1.55.69 1.55 2.07V62h1.12v-3.93c0-1.04-.23-1.81-.69-2.32-.45-.52-1.09-.78-1.9-.78zm9.59 1.07c-.22-.31-.53-.57-.93-.77-.4-.2-.84-.3-1.34-.3-.63 0-1.19.14-1.71.43-.51.29-.92.71-1.23 1.25-.3.55-.45 1.18-.45 1.91s.15 1.36.45 1.91c.3.55.71.96 1.23 1.25.51.29 1.08.43 1.71.43.49 0 .94-.1 1.34-.31.4-.21.71-.46.93-.78V62h1.12v-6.86h-1.12v.9zm-.56 4.35c-.43.48-.99.71-1.69.71-.4 0-.78-.11-1.13-.32-.35-.21-.63-.51-.84-.9-.21-.38-.32-.82-.32-1.32 0-.49.1-.93.32-1.32.21-.38.49-.68.84-.9.35-.21.73-.32 1.13-.32.7 0 1.26.24 1.69.71.43.48.64 1.08.64 1.82 0 .76-.21 1.36-.64 1.84zm5.47-5.12c-.32.2-.59.48-.82.85v-.98h-1.12V62h1.12v-3.43c0-.52.1-.97.29-1.34.19-.37.43-.65.71-.83.28-.19.55-.28.8-.28.23 0 .47.03.71.08v-1.15c-.2-.06-.44-.08-.74-.08-.31 0-.63.1-.95.3zm10.2-.3c-.46 0-.88.11-1.25.34s-.68.54-.9.94c-.2-.44-.48-.76-.84-.97-.36-.21-.78-.31-1.26-.31-.43 0-.81.09-1.13.27-.33.18-.58.43-.76.75v-.86H103V62h1.12v-3.78c0-.48.09-.88.26-1.2.17-.32.39-.56.65-.71.26-.15.52-.23.78-.23.47 0 .83.15 1.08.45.25.3.38.76.38 1.37V62h1.12v-3.78c0-.48.09-.88.26-1.2.17-.32.39-.56.65-.71.26-.15.52-.23.78-.23.47 0 .83.15 1.08.45.25.3.38.76.38 1.37V62h1.12v-4.14c0-1-.22-1.73-.66-2.19-.46-.47-1.04-.7-1.74-.7zm9.38 1.07c-.22-.31-.53-.57-.93-.77-.4-.2-.84-.3-1.34-.3-.63 0-1.19.14-1.71.43-.51.29-.92.71-1.23 1.25-.3.55-.45 1.18-.45 1.91s.15 1.36.45 1.91c.3.55.71.96 1.23 1.25.51.29 1.08.43 1.71.43.49 0 .94-.1 1.34-.31.4-.21.71-.46.93-.78V62h1.12v-6.86h-1.12v.9zm-.56 4.35c-.43.48-.99.71-1.69.71-.4 0-.78-.11-1.13-.32-.35-.21-.63-.51-.84-.9-.21-.38-.32-.82-.32-1.32 0-.49.1-.93.32-1.32.21-.38.49-.68.84-.9.35-.21.73-.32 1.13-.32.7 0 1.26.24 1.69.71.43.48.64 1.08.64 1.82 0 .76-.22 1.36-.64 1.84zm5.46-4.05c.36-.21.75-.31 1.16-.31.45 0 .84.1 1.19.32.35.21.64.48.88.82l.78-.78c-.32-.44-.72-.78-1.2-1.04-.48-.25-1.03-.38-1.66-.38-.62 0-1.19.15-1.73.46-.54.3-.97.73-1.29 1.27-.32.55-.48 1.17-.48 1.87s.16 1.32.48 1.87c.32.55.75.97 1.29 1.27.54.3 1.11.45 1.73.45.63 0 1.18-.13 1.66-.38s.88-.6 1.2-1.04l-.78-.78c-.24.34-.54.61-.88.82-.35.21-.74.32-1.19.32-.41 0-.8-.1-1.16-.31-.36-.21-.66-.5-.88-.88a2.64 2.64 0 0 1-.34-1.34c0-.51.11-.96.34-1.34.22-.39.51-.68.88-.89zm10.14-1.2l-2.18 4.77-2.2-4.77h-1.18l2.76 6.08-1.6 3.58h1.19l4.37-9.66h-1.16z" id="Online_Pharmacy" fill-rule="evenodd" clip-rule="evenodd" fill="#FFFFFF"></path></g></g></svg>