<svg enable-background="new 0 0 16.13 16.56" viewBox="0 0 16.13 16.56" xmlns="http://www.w3.org/2000/svg"><path d="m8.06 12.25c-3.88 0-7.03.96-7.03 2.15s3.15 2.15 7.03 2.15 7.03-.96 7.03-2.15-3.15-2.15-7.03-2.15z" fill="#d8d9da"/><path d="m14.25 12.52h-6.03c-.9 0-1.63-.74-1.63-1.63v-9.03c0-.9.74-1.63 1.63-1.63h6.03c.9 0 1.63.74 1.63 1.63v9.03c0 .9-.73 1.63-1.63 1.63z" fill="#d9b1b5"/><path d="m14.04 12.73h-5.61c-1.13 0-2.06-.92-2.06-2.06v-8.6c0-1.13.92-2.06 2.06-2.06h5.61c1.13 0 2.06.92 2.06 2.06v8.61c0 1.13-.93 2.05-2.06 2.05zm-5.61-12.3c-.9 0-1.63.73-1.63 1.63v8.61c0 .9.73 1.63 1.63 1.63h5.61c.9 0 1.63-.73 1.63-1.63v-8.6c0-.9-.73-1.63-1.63-1.63h-5.61z" fill="#4c3037"/><path d="m11.23 11.5c-.12 0-.21-.09-.21-.21v-9.83c0-.12.09-.21.21-.21s.21.09.21.21v9.83c.01.11-.09.21-.21.21z" fill="#4c3037"/><path d="m9.82 2.91c0 .47-.38.86-.86.86-.47 0-.85-.38-.85-.86 0-.47.38-.85.85-.85.47-.01.86.37.86.85z" fill="#fff"/><path d="m8.96 3.97a1.071 1.071 0 0 1 0-2.14 1.071 1.071 0 0 1 0 2.14zm0-1.71c-.35 0-.64.29-.64.64s.29.64.64.64c.36 0 .64-.29.64-.64s-.28-.64-.64-.64z" fill="#4c3037"/><path d="m9.82 6.37c0 .47-.38.86-.86.86-.47 0-.85-.38-.85-.86 0-.47.38-.86.85-.86.47.01.86.39.86.86z" fill="#fff"/><path d="m8.96 7.44a1.071 1.071 0 0 1 0-2.14 1.071 1.071 0 0 1 0 2.14zm0-1.71c-.35 0-.64.29-.64.64s.29.64.64.64c.36 0 .64-.29.64-.64a.632.632 0 0 0 -.64-.64z" fill="#4c3037"/><path d="m9.82 9.84c0 .47-.38.86-.86.86-.47 0-.85-.38-.85-.86 0-.47.38-.86.85-.86s.86.39.86.86z" fill="#fff"/><path d="m8.96 10.91a1.071 1.071 0 0 1 0-2.14 1.071 1.071 0 0 1 0 2.14zm0-1.71c-.35 0-.64.29-.64.64s.29.64.64.64c.36 0 .64-.29.64-.64a.626.626 0 0 0 -.64-.64z" fill="#4c3037"/><path d="m14.36 2.91c0 .47-.38.86-.85.86a.86.86 0 0 1 -.86-.86c0-.47.38-.85.86-.85.47-.01.85.37.85.85z" fill="#fff"/><path d="m13.51 3.97a1.071 1.071 0 0 1 0-2.14c.59 0 1.07.48 1.07 1.07-.01.59-.49 1.07-1.07 1.07zm0-1.71c-.35 0-.64.29-.64.64s.29.64.64.64.64-.29.64-.64-.29-.64-.64-.64z" fill="#4c3037"/><path d="m14.36 6.37c0 .47-.38.86-.85.86a.86.86 0 1 1 0-1.72c.47.01.85.39.85.86z" fill="#fff"/><path d="m13.51 7.44a1.071 1.071 0 0 1 0-2.14c.59 0 1.07.48 1.07 1.07s-.49 1.07-1.07 1.07zm0-1.71c-.35 0-.64.29-.64.64s.29.64.64.64.64-.29.64-.64-.29-.64-.64-.64z" fill="#4c3037"/><path d="m14.36 9.84c0 .47-.38.86-.85.86a.86.86 0 1 1 0-1.72c.47 0 .85.39.85.86z" fill="#fff"/><path d="m13.51 10.91a1.071 1.071 0 0 1 0-2.14c.59 0 1.07.48 1.07 1.07-.01.59-.49 1.07-1.07 1.07zm0-1.71c-.35 0-.64.29-.64.64s.29.64.64.64.64-.29.64-.64c0-.36-.29-.64-.64-.64z" fill="#4c3037"/><path d="m6.59 3.83v-.79h-4.2v.79c-1.2.13-2.15 1.15-2.15 2.39v6.62c0 .94.77 1.71 1.71 1.71h5.08c.94 0 1.71-.77 1.71-1.71v-6.62a2.422 2.422 0 0 0 -2.15-2.39z" fill="#d9b1b5"/><path d="m1.79 1.38h5.4v1.66h-5.4z" fill="#fff"/><path d="m.24 6.74h8.49v5.1h-8.49z" fill="#fff"/><path d="m6.8 3.65v-.4h.39c.12 0 .21-.09.21-.21v-1.66c0-.12-.09-.21-.21-.21h-5.4c-.12 0-.21.09-.21.21v1.66c0 .12.09.21.21.21h.39v.39c-1.24.23-2.15 1.3-2.15 2.58v6.62c0 1.06.86 1.92 1.92 1.92h5.08c1.06 0 1.92-.86 1.92-1.92v-6.62a2.619 2.619 0 0 0 -2.15-2.57zm-.48-2.05h.66v1.24h-.66zm-1.08 0h.66v1.24h-.66zm-1.08 0h.66v1.24h-.66zm-1.08 0h.66v1.24h-.66zm-1.08 0h.66v1.24h-.66zm6.52 11.24c0 .83-.67 1.5-1.5 1.5h-5.07c-.82 0-1.5-.67-1.5-1.5v-.79h8.07zm0-1.21h-8.07v-4.68h8.07zm0-5.1h-8.07v-.31c0-1.12.84-2.06 1.96-2.18.11-.01.19-.1.19-.21v-.58h3.78v.58c0 .11.08.2.19.21 1.11.12 1.95 1.06 1.95 2.18z" fill="#4c3037"/><circle cx="2.66" cy="9.28" fill="#d9b1b5" r="1.5"/><g fill="#4c3037"><path d="m2.66 11c-.94 0-1.71-.77-1.71-1.71s.77-1.71 1.71-1.71 1.71.77 1.71 1.71-.77 1.71-1.71 1.71zm0-3c-.72 0-1.29.57-1.29 1.28s.58 1.29 1.29 1.29 1.29-.58 1.29-1.29c-.01-.71-.58-1.28-1.29-1.28z"/><path d="m3.34 9.07h-.47v-.47c0-.12-.09-.21-.21-.21s-.21.09-.21.21v.48h-.49c-.12 0-.21.09-.21.21s.09.21.21.21h.48v.48c0 .12.09.21.21.21s.21-.09.21-.21v-.48h.48c.12 0 .21-.09.21-.21a.207.207 0 0 0 -.21-.22z"/><path d="m7.82 8.39h-2.61c-.12 0-.21-.09-.21-.21s.09-.21.21-.21h2.61c.12 0 .21.09.21.21s-.1.21-.21.21z"/><path d="m7.82 9.5h-2.61c-.12 0-.21-.09-.21-.21s.09-.21.21-.21h2.61c.12 0 .21.09.21.21s-.1.21-.21.21z"/><path d="m7.15 10.61h-1.94c-.12 0-.21-.09-.21-.21s.09-.21.21-.21h1.94c.12 0 .21.09.21.21s-.1.21-.21.21z"/></g></svg>