<svg enable-background="new 0 0 19.77 15.94" viewBox="0 0 19.77 15.94" xmlns="http://www.w3.org/2000/svg"><path d="m9.93 11.63c-3.88 0-7.03.96-7.03 2.15s3.15 2.15 7.03 2.15 7.03-.96 7.03-2.15c0-1.18-3.15-2.15-7.03-2.15z" fill="#d8d9da"/><path d="m11.48 1.33c0-.6-.49-1.09-1.1-1.09h-.94c-.6 0-1.1.49-1.1 1.09z" fill="#fff"/><path d="m.22 9.55c0 .85.69 1.54 1.54 1.54h15.16c.85 0 1.54-.69 1.54-1.54v-.8h-18.24z" fill="#fff"/><path d="m16.92 5.77h-1.76l-1.21-3.08a2.14 2.14 0 0 0 -2-1.36h-10.18c-.85 0-1.54.69-1.54 1.55v5.87h18.24v-1.43c0-.86-.69-1.55-1.55-1.55z" fill="#d9b1b5"/><path d="m13.07 3.61c-.23-.58-.78-.96-1.4-.96h-.7v3.12h2.95z" fill="#fff"/><path d="m13.91 5.98h-2.95c-.12 0-.21-.09-.21-.21v-3.11c0-.12.09-.21.21-.21h.7c.71 0 1.34.43 1.6 1.09l.85 2.16c.03.06.02.14-.02.2-.04.05-.11.08-.18.08zm-2.73-.42h2.42l-.73-1.87c-.2-.5-.67-.82-1.2-.82h-.49z" fill="#4c3037"/><path d="m7.09 5.04c0 1.13-.92 2.05-2.05 2.05s-2.05-.92-2.05-2.05.92-2.05 2.05-2.05 2.05.92 2.05 2.05z" fill="#fff"/><path d="m5.04 7.31c-1.25 0-2.26-1.02-2.26-2.26 0-1.25 1.02-2.26 2.26-2.26 1.25 0 2.26 1.02 2.26 2.26s-1.01 2.26-2.26 2.26zm0-4.11c-1.02 0-1.84.83-1.84 1.84 0 1.02.83 1.84 1.84 1.84 1.02 0 1.84-.83 1.84-1.84s-.83-1.84-1.84-1.84z" fill="#4c3037"/><path d="m5.98 4.83h-.73v-.73c0-.12-.09-.21-.21-.21s-.21.09-.21.21v.73h-.74c-.12 0-.21.1-.21.21 0 .12.09.21.21.21h.73v.73c0 .12.09.21.21.21s.21-.09.21-.21v-.73h.73c.12 0 .21-.09.21-.21a.197.197 0 0 0 -.2-.21z" fill="#4c3037"/><path d="m18.47 7.66v2.17c.6 0 1.09-.49 1.09-1.09-.01-.59-.49-1.08-1.09-1.08z" fill="#fff"/><path d="m19.77 8.75a1.3 1.3 0 0 0 -1.09-1.28v-.15c0-.97-.79-1.76-1.76-1.76h-1.61l-1.15-2.94a2.34 2.34 0 0 0 -2.19-1.49h-.29c-.1-.62-.64-1.1-1.29-1.1h-.95c-.65 0-1.19.48-1.29 1.1h-6.38c-.97 0-1.76.79-1.76 1.76v6.68c0 .97.79 1.76 1.76 1.76h15.15c.8 0 1.48-.54 1.69-1.27.65-.09 1.16-.64 1.16-1.31zm-7.81-7.2c.8 0 1.51.48 1.8 1.23l1.21 3.08c.03.08.11.13.2.13h1.76c.73 0 1.33.6 1.33 1.33v1.22h-8.13v-6.99zm-2.52-1.1h.95a.9.9 0 0 1 .86.67h-2.67c.09-.38.44-.67.86-.67zm-9 2.43c0-.73.6-1.33 1.33-1.33h7.93v6.99h-9.26v-5.66zm16.48 8.01h-15.15c-.73 0-1.33-.6-1.33-1.33v-.6h17.82v.59c-.01.74-.6 1.34-1.34 1.34zm1.76-1.29v-1.7c.38.09.66.44.66.85s-.28.75-.66.85z" fill="#4c3037"/><path d="m12.14 6.79h-1.17c-.12 0-.21-.09-.21-.21s.09-.21.21-.21h1.17c.12 0 .21.09.21.21s-.09.21-.21.21z" fill="#4c3037"/><circle cx="14.27" cy="11.1" fill="#d9b1b5" r="1.5"/><path d="m14.27 12.81c-.94 0-1.71-.77-1.71-1.71s.77-1.71 1.71-1.71 1.71.77 1.71 1.71-.77 1.71-1.71 1.71zm0-3c-.71 0-1.29.58-1.29 1.29s.58 1.29 1.29 1.29 1.29-.58 1.29-1.29-.58-1.29-1.29-1.29z" fill="#4c3037"/><path d="m14.87 11.1c0 .33-.27.6-.6.6s-.6-.27-.6-.6.27-.6.6-.6.6.27.6.6z" fill="#fff"/><path d="m14.27 11.91c-.45 0-.81-.36-.81-.81s.36-.81.81-.81.81.36.81.81-.36.81-.81.81zm0-1.2a.39.39 0 1 0 .39.39c0-.21-.18-.39-.39-.39z" fill="#4c3037"/><circle cx="4.53" cy="11.1" fill="#d9b1b5" r="1.5"/><path d="m4.53 12.81c-.94 0-1.71-.77-1.71-1.71s.77-1.71 1.71-1.71 1.71.77 1.71 1.71-.76 1.71-1.71 1.71zm0-3c-.71 0-1.29.58-1.29 1.29s.58 1.29 1.29 1.29 1.29-.58 1.29-1.29-.58-1.29-1.29-1.29z" fill="#4c3037"/><path d="m5.13 11.1c0 .33-.27.6-.6.6s-.6-.27-.6-.6.27-.6.6-.6.6.27.6.6z" fill="#fff"/><path d="m4.53 11.91c-.45 0-.81-.36-.81-.81s.36-.81.81-.81.81.36.81.81-.36.81-.81.81zm0-1.2a.39.39 0 1 0 .001.781.39.39 0 0 0 -.001-.781z" fill="#4c3037"/></svg>