<svg enable-background="new 0 0 16.64 18.21" viewBox="0 0 16.64 18.21" xmlns="http://www.w3.org/2000/svg"><path d="m8.28 13.9c-3.88 0-7.03.96-7.03 2.15s3.15 2.15 7.03 2.15 7.03-.96 7.03-2.15-3.14-2.15-7.03-2.15z" fill="#d8d9da"/><path d="m12.9 9.53-3.06-1.76-3.05 1.76-3.05-1.76-3.52 5.38 5.4 3.12 5.4-3.12 5.4 3.12z" fill="#f7be56"/><g fill="#703407"><path d="m16.61 16.17-3.52-6.74a.236.236 0 0 0 -.09-.08l-3.05-1.76-.06-.03h-.08-.01c-.02 0-.04.01-.06.02l-2.95 1.7-2.95-1.7a.2.2 0 0 0 -.28.07l-3.52 5.38c-.03.06-.04.12-.03.17.01.06.05.11.1.13l.53.31 4.87 2.81c.02.01.04.02.06.02h.05c.02 0 .04 0 .07-.01.01 0 .01 0 .02-.01.01 0 .02-.01.02-.01l5.29-3.06 5.29 3.06c.03.02.07.03.11.03.05 0 .11-.02.15-.06.06-.05.08-.15.04-.24zm-3.72-6.2s-.01 0 0 0c-.12.03-.18.15-.15.26.03.09.11.15.2.15.02 0 .04 0 .06-.01.03-.01.05-.02.08-.03l.29.55-2.4 1.04-.82-3.75 2.58 1.49zm-5.9 4.98a.216.216 0 0 0 -.26.15c-.04.15-.06.26-.08.33l-.75.43.61-3.49 1.43.03c-.07.1-.14.21-.2.31s-.03.23.07.29c.04.02.07.03.11.03.07 0 .14-.04.18-.1.07-.12.15-.23.23-.34.04-.06.04-.12.03-.18l2.3.04.13.6-3.64 2.1c-.01-.09-.07-.18-.16-.2zm-.88-2.71-.64 3.7-4.29-2.48 3.82-2.19zm.87-2.57 2.72-1.57.53 2.44c-.09.03-.17.07-.26.1-.11.05-.16.17-.11.28.04.08.11.13.19.13.03 0 .06-.01.09-.02.06-.03.12-.04.18-.07l.23 1.06-3.97-.07zm-3.17-1.62 2.75 1.59-.37 2.11-3.07-2.65zm-.92 1.41 1.76 1.52-3.91 2.24-.23-.13zm8.31 3.56-.14-.65 2.51-1.08 2.32 4.45z"/><path d="m11.5 10.72h.04c.13-.02.28-.05.42-.08.11-.02.19-.14.16-.25a.208.208 0 0 0 -.25-.16c-.14.03-.28.06-.41.08-.12.02-.19.13-.17.25.02.09.11.16.21.16z"/><path d="m8.69 11.81c.04.04.1.07.15.07s.11-.02.15-.06l.3-.27a.21.21 0 0 0 .03-.3.21.21 0 0 0 -.3-.03c-.11.09-.23.19-.33.29-.08.08-.08.21 0 .3z"/><path d="m7.26 14.36c.09 0 .17-.05.2-.13.05-.12.1-.25.16-.38.05-.11 0-.23-.11-.28s-.23 0-.28.11c-.06.14-.12.27-.17.4-.04.11.01.23.12.27.03 0 .06.01.08.01z"/></g><path d="m9.28.22a3.26 3.26 0 0 0 -3.26 3.26c0 2.6 3.26 6.62 3.26 6.62s3.26-4.02 3.26-6.62a3.267 3.267 0 0 0 -3.26-3.26z" fill="#f7be56"/><path d="m9.28 10.31c-.06 0-.13-.03-.17-.08-.13-.16-3.31-4.11-3.31-6.75 0-1.91 1.56-3.47 3.47-3.47s3.47 1.56 3.47 3.47c0 2.64-3.17 6.58-3.31 6.75-.03.05-.09.08-.15.08zm0-9.88c-1.68 0-3.05 1.37-3.05 3.05 0 2.16 2.39 5.42 3.05 6.27.66-.85 3.05-4.11 3.05-6.27-.01-1.68-1.37-3.05-3.05-3.05z" fill="#703407"/><path d="m11.14 3.5c0 1.03-.84 1.87-1.87 1.87s-1.87-.84-1.87-1.87.84-1.87 1.87-1.87c1.04 0 1.87.84 1.87 1.87z" fill="#fff"/><path d="m9.28 5.58c-1.15 0-2.08-.93-2.08-2.08s.93-2.08 2.08-2.08 2.08.93 2.08 2.08-.94 2.08-2.08 2.08zm0-3.74c-.91 0-1.66.74-1.66 1.66s.74 1.66 1.66 1.66c.91 0 1.66-.74 1.66-1.66s-.75-1.66-1.66-1.66z" fill="#703407"/><path d="m10.05 3.29h-.56v-.57c0-.12-.09-.21-.21-.21s-.21.09-.21.21v.57h-.57c-.12 0-.21.09-.21.21s.09.21.21.21h.57v.57c0 .12.09.21.21.21s.21-.09.21-.21v-.57h.57c.12 0 .21-.09.21-.21s-.1-.21-.22-.21z" fill="#703407"/></svg>