<svg xmlns="http://www.w3.org/2000/svg" width="300" height="140" viewBox="0 0 300 140" fill="none"><rect width="300" height="140" rx="5" fill="white"></rect><g clip-path="url(#clip0_263_673)"><path fill-rule="evenodd" clip-rule="evenodd" d="M121.708 90.02C121.671 90.2848 121.583 90.5371 121.471 90.7767C121.084 91.5082 120.324 92.0127 119.463 92.0127H107.065C105.818 92.0127 104.795 90.9785 104.795 89.7173V78.0889H93.2701C92.0228 78.0889 91 77.0547 91 75.7935V63.2571C91 61.9959 92.0228 60.9617 93.2701 60.9617H102.637C107.427 61.0626 111.331 61.2896 114 61.504C117.866 61.8193 121.396 63.0301 115.26 65.6786C109.572 68.138 104.508 70.2568 105.793 78.0385C106.878 84.5841 118.203 88.1029 121.646 88.557L121.708 90.02Z" fill="#2ABAE8"></path><path fill-rule="evenodd" clip-rule="evenodd" d="M122.319 66.1704C118.914 70.1306 108.025 72.363 123.28 76.3988C127.283 77.4582 131.636 78.0636 133.233 78.0636C134.48 78.0636 135.503 77.0294 135.503 75.7682V63.2318C135.503 61.9706 134.48 60.9364 133.233 60.9364H121.733V49.2954C121.733 48.0342 120.71 47 119.463 47H107.065C105.818 47 104.795 48.0342 104.795 49.2954V60.1544C110.146 60.0157 115.734 60.0661 119.401 60.722C122.007 61.2012 124.814 63.2822 122.319 66.1704Z" fill="#0F4C9A"></path><path d="M144.147 82.213C144.147 82.3265 144.122 82.4274 144.072 82.5283C144.022 82.6292 143.947 82.7048 143.847 82.7679C143.76 82.831 143.66 82.8688 143.56 82.8814C143.461 82.9066 143.336 82.9066 143.186 82.9066H142.625V80.4851H143.186C143.299 80.4851 143.398 80.4851 143.486 80.4977C143.573 80.5103 143.66 80.5482 143.735 80.6112C143.81 80.6617 143.872 80.7373 143.935 80.8256C143.985 80.9139 144.009 81.0148 144.009 81.1283C144.009 81.2292 143.985 81.3175 143.935 81.4058C143.885 81.4815 143.822 81.5571 143.735 81.6202C143.86 81.6706 143.96 81.7463 144.022 81.8598C144.109 81.9607 144.147 82.0742 144.147 82.213ZM143.785 81.1031C143.785 81.04 143.772 80.977 143.735 80.9139C143.698 80.8509 143.66 80.8004 143.598 80.7752C143.548 80.7373 143.486 80.7247 143.423 80.7121C143.361 80.7121 143.286 80.6995 143.211 80.6995H142.874V81.5193H143.199C143.299 81.5193 143.386 81.5067 143.448 81.4941C143.498 81.4815 143.548 81.4562 143.61 81.431C143.66 81.4058 143.71 81.3553 143.748 81.2923C143.76 81.2292 143.785 81.1662 143.785 81.1031ZM143.897 82.2256C143.897 82.1121 143.872 82.0238 143.822 81.9607C143.772 81.885 143.698 81.8346 143.623 81.8094C143.548 81.7715 143.448 81.7715 143.361 81.7589C143.261 81.7463 143.199 81.7463 143.174 81.7463H142.862V82.6922H143.224C143.336 82.6922 143.436 82.6796 143.498 82.6796C143.56 82.667 143.623 82.6418 143.685 82.6165C143.748 82.5913 143.797 82.5409 143.835 82.4652C143.885 82.3769 143.897 82.3012 143.897 82.2256ZM146.853 82.9066H145.544V80.4851H146.853V80.6995H145.781V81.5697H146.816V81.7841H145.781V82.6796H146.853V82.9066ZM151.655 82.2634C151.556 82.4652 151.406 82.6292 151.194 82.7553C150.994 82.8688 150.782 82.9445 150.558 82.9445C150.208 82.9445 149.909 82.8183 149.66 82.5787C149.423 82.3391 149.298 82.0364 149.298 81.6833C149.298 81.3301 149.423 81.04 149.66 80.813C149.909 80.5608 150.196 80.4473 150.533 80.4473C150.757 80.4473 150.994 80.5103 151.206 80.6238C151.418 80.75 151.568 80.9139 151.643 81.1031H151.368C151.281 80.9644 151.169 80.8635 151.007 80.7878C150.857 80.7121 150.695 80.6743 150.533 80.6743C150.258 80.6743 150.034 80.7752 149.834 80.977C149.635 81.1788 149.535 81.4184 149.535 81.6833C149.535 81.9733 149.647 82.213 149.834 82.4148C150.034 82.6165 150.283 82.7174 150.545 82.7174C150.707 82.7174 150.87 82.6796 151.019 82.6039C151.169 82.5283 151.294 82.4148 151.381 82.276H151.655V82.2634ZM154.736 81.2671C154.736 81.4688 154.661 81.6328 154.524 81.7841C154.387 81.9229 154.212 81.9986 154.025 81.9986L154.699 82.9066H154.399L153.589 81.8094H153.713C153.838 81.8094 153.913 81.8094 153.988 81.7968C154.05 81.7841 154.112 81.7589 154.2 81.7211C154.287 81.6832 154.362 81.6202 154.412 81.5319C154.474 81.4436 154.499 81.3427 154.499 81.2292C154.499 81.1535 154.487 81.0653 154.437 80.9896C154.399 80.9139 154.337 80.8509 154.275 80.8004C154.2 80.7626 154.125 80.7247 154.038 80.7121C153.95 80.6995 153.851 80.6869 153.726 80.6869H153.352V82.894H153.115V80.4725H153.688C153.851 80.4725 153.988 80.4725 154.075 80.4851C154.175 80.4977 154.275 80.5355 154.387 80.5986C154.499 80.6617 154.586 80.75 154.649 80.8635C154.699 81.0022 154.736 81.1283 154.736 81.2671ZM157.443 82.9066H156.133V80.4851H157.443V80.6995H156.37V81.5697H157.405V81.7841H156.37V82.6796H157.443V82.9066ZM161.047 82.9066H160.785L160.436 82.0868H159.314L158.977 82.9066H158.715L159.75 80.4851H160.025L160.736 82.1625L161.047 82.9066ZM160.349 81.8724L159.887 80.75L159.426 81.8724H160.349ZM163.23 80.6995H162.681V82.9066H162.444V80.6995H161.896V80.4851H163.23V80.6995ZM164.802 82.9066H164.565V80.4851H164.802V82.9066ZM168.381 80.4851L167.384 82.9066H167.159L166.174 80.4851H166.436L167.271 82.6165L168.119 80.4851H168.381ZM171.225 82.9066H169.916V80.4851H171.225V80.6995H170.152V81.5697H171.188V81.7841H170.152V82.6796H171.225V82.9066ZM174.506 82.0238H173.632V81.8094H174.506V82.0238ZM178.484 82.213C178.484 82.3265 178.459 82.4274 178.41 82.5283C178.36 82.6292 178.285 82.7048 178.197 82.7679C178.098 82.831 178.01 82.8688 177.911 82.8814C177.811 82.9066 177.686 82.9066 177.536 82.9066H176.975V80.4851H177.536C177.649 80.4851 177.748 80.4851 177.836 80.4977C177.923 80.5103 178.01 80.5482 178.085 80.6112C178.173 80.6617 178.235 80.7373 178.285 80.8256C178.322 80.9139 178.36 81.0148 178.36 81.1283C178.36 81.2292 178.335 81.3175 178.297 81.4058C178.247 81.4815 178.173 81.5571 178.098 81.6202C178.222 81.6706 178.322 81.7463 178.397 81.8598C178.447 81.9607 178.484 82.0742 178.484 82.213ZM178.11 81.1031C178.11 81.04 178.098 80.977 178.06 80.9139C178.023 80.8509 177.985 80.8004 177.936 80.7752C177.886 80.7373 177.823 80.7247 177.761 80.7121C177.686 80.7121 177.624 80.6995 177.549 80.6995H177.212V81.5193H177.524C177.636 81.5193 177.723 81.5067 177.773 81.4941C177.836 81.4815 177.886 81.4562 177.936 81.431C177.973 81.4058 178.023 81.3553 178.06 81.2923C178.098 81.2292 178.11 81.1662 178.11 81.1031ZM178.235 82.2256C178.235 82.1121 178.21 82.0238 178.16 81.9607C178.11 81.885 178.035 81.8346 177.96 81.8094C177.886 81.7715 177.798 81.7715 177.699 81.7589C177.611 81.7463 177.549 81.7463 177.524 81.7463H177.212V82.6922H177.561C177.686 82.6922 177.773 82.6796 177.836 82.6796C177.898 82.667 177.96 82.6418 178.023 82.6165C178.073 82.5913 178.135 82.5409 178.173 82.4652C178.21 82.3769 178.235 82.3012 178.235 82.2256ZM181.191 82.9066H179.881V80.4851H181.191V80.6995H180.118V81.5697H181.154V81.7841H180.118V82.6796H181.191V82.9066ZM185.257 82.213C185.257 82.3265 185.232 82.4274 185.182 82.5283C185.132 82.6292 185.058 82.7048 184.97 82.7679C184.87 82.831 184.783 82.8688 184.683 82.8814C184.584 82.9066 184.459 82.9066 184.309 82.9066H183.748V80.4851H184.309C184.434 80.4851 184.534 80.4851 184.608 80.4977C184.696 80.5103 184.783 80.5482 184.858 80.6112C184.933 80.6617 185.008 80.7373 185.058 80.8256C185.107 80.9139 185.132 81.0148 185.132 81.1283C185.132 81.2292 185.107 81.3175 185.058 81.4058C185.008 81.4815 184.945 81.5571 184.858 81.6202C184.983 81.6706 185.082 81.7463 185.157 81.8598C185.22 81.9607 185.257 82.0742 185.257 82.213ZM184.883 81.1031C184.883 81.04 184.87 80.977 184.833 80.9139C184.796 80.8509 184.758 80.8004 184.708 80.7752C184.658 80.7373 184.596 80.7247 184.521 80.7121C184.459 80.7121 184.384 80.6995 184.309 80.6995H183.972V81.5193H184.297C184.409 81.5193 184.484 81.5067 184.546 81.4941C184.596 81.4815 184.658 81.4562 184.708 81.431C184.758 81.4058 184.808 81.3553 184.845 81.2923C184.87 81.2292 184.883 81.1662 184.883 81.1031ZM185.008 82.2256C185.008 82.1121 184.983 82.0238 184.933 81.9607C184.883 81.885 184.808 81.8346 184.733 81.8094C184.658 81.7715 184.571 81.7715 184.471 81.7589C184.384 81.7463 184.309 81.7463 184.284 81.7463H183.972V82.6922H184.334C184.446 82.6922 184.546 82.6796 184.608 82.6796C184.671 82.667 184.733 82.6418 184.796 82.6165C184.858 82.5913 184.908 82.5409 184.945 82.4652C184.995 82.3769 185.008 82.3012 185.008 82.2256ZM187.964 82.9066H186.654V80.4851H187.964V80.6995H186.891V81.5697H187.926V81.7841H186.891V82.6796H187.964V82.9066ZM191.568 82.9066H191.306L190.957 82.0868H189.835L189.485 82.9066H189.236L190.259 80.4851H190.521L191.232 82.1625L191.568 82.9066ZM190.87 81.8724L190.408 80.75L189.947 81.8724H190.87ZM194.537 81.9481C194.537 82.0868 194.524 82.2256 194.499 82.3265C194.474 82.4274 194.425 82.5409 194.35 82.6292C194.275 82.7301 194.188 82.7931 194.075 82.8562C193.963 82.9066 193.851 82.9318 193.726 82.9318C193.464 82.9318 193.277 82.8562 193.165 82.7174C193.04 82.5661 192.965 82.44 192.94 82.3265C192.915 82.2003 192.903 82.0742 192.903 81.9355V80.4599H193.14V81.9355C193.14 82.0364 193.152 82.1247 193.165 82.213C193.177 82.2886 193.215 82.3769 193.265 82.4526C193.315 82.5283 193.377 82.5787 193.452 82.6165C193.527 82.667 193.626 82.6922 193.726 82.6922C193.813 82.6922 193.888 82.6796 193.976 82.6292C194.05 82.5913 194.113 82.5409 194.175 82.4652C194.225 82.4021 194.275 82.3265 194.287 82.2382C194.3 82.1499 194.312 82.049 194.312 81.9355V80.4599H194.549V81.9481H194.537ZM197.206 80.6995H196.657V82.9066H196.42V80.6995H195.871V80.4851H197.206V80.6995ZM198.765 82.9066H198.528V80.4851H198.765V82.9066ZM201.472 80.6995H200.499V81.5697H201.447V81.7968H200.499V82.9066H200.262V80.4851H201.472V80.6995ZM204.59 81.9481C204.59 82.0868 204.577 82.2256 204.553 82.3265C204.528 82.4274 204.49 82.5409 204.415 82.6292C204.34 82.7301 204.253 82.7931 204.141 82.8562C204.029 82.9066 203.904 82.9318 203.779 82.9318C203.517 82.9318 203.33 82.8562 203.218 82.7174C203.106 82.5661 203.031 82.44 203.006 82.3265C202.968 82.2003 202.956 82.0742 202.956 81.9355V80.4599H203.205V81.9355C203.205 82.0364 203.218 82.1247 203.23 82.213C203.255 82.2886 203.28 82.3769 203.33 82.4526C203.38 82.5283 203.442 82.5787 203.53 82.6165C203.617 82.667 203.704 82.6922 203.804 82.6922C203.891 82.6922 203.979 82.6796 204.054 82.6292C204.128 82.5913 204.203 82.5409 204.253 82.4652C204.316 82.4021 204.34 82.3265 204.365 82.2382C204.39 82.1499 204.39 82.049 204.39 81.9355V80.4599H204.64V81.9481H204.59ZM207.359 82.9066H206.124V80.4851H206.374V82.6922H207.359V82.9066Z" fill="#6E6C66"></path><path d="M142.625 78.0509V58.3634C142.625 57.7202 142.85 57.1779 143.286 56.7365C143.723 56.295 144.271 56.068 144.908 56.068H153.202C155.559 56.068 157.318 56.5851 158.453 57.6067C159.638 58.6661 160.224 60.23 160.224 62.2732C160.224 63.6353 159.925 64.7578 159.339 65.6532C158.827 66.4982 158.029 67.1162 156.919 67.5072C157.892 67.8477 158.565 68.3648 158.952 69.0459C159.326 69.6891 159.563 70.7738 159.65 72.3124L159.775 74.9357C159.775 75.188 159.775 75.4655 159.775 75.7681C159.775 76.0708 159.8 76.3357 159.837 76.6005C159.962 77.3699 160.212 77.8618 160.598 78.0762H155.659C155.447 77.6473 155.322 77.2059 155.272 76.7393C155.198 76.0456 155.148 75.579 155.148 75.3267L155.085 72.9556C154.998 71.6818 154.749 70.7611 154.325 70.2062C153.863 69.7396 153.04 69.4999 151.867 69.4999H147.128V78.0762H142.625V78.0509ZM147.128 65.6532H152.379C153.514 65.6532 154.362 65.4136 154.911 64.947C155.46 64.4803 155.734 63.7488 155.734 62.7651C155.734 61.7813 155.46 61.0624 154.911 60.5832C154.412 60.0661 153.651 59.8138 152.641 59.8138H147.128V65.6532ZM161.858 61.0498H164.141C164.727 61.0498 165.238 61.2642 165.662 61.693C166.086 62.1218 166.298 62.6263 166.298 63.2317V78.0635H161.858V61.0498ZM161.858 56.0554H164.141C164.727 56.0554 165.238 56.2698 165.662 56.6986C166.086 57.1274 166.298 57.6319 166.298 58.2247V59.5616H161.858V56.0554ZM195.223 72.8169H198.378C197.917 74.6078 197.031 75.9699 195.722 76.9032C194.412 77.887 192.766 78.3789 190.795 78.3789C188.4 78.3789 186.517 77.5843 185.157 76.0078C183.798 74.4691 183.124 72.2872 183.124 69.4243C183.124 66.7 183.773 64.5686 185.082 63.0425C186.442 61.466 188.313 60.6715 190.708 60.6715C193.24 60.6715 195.198 61.4408 196.582 62.9669C197.929 64.5434 198.603 66.7253 198.603 69.5378C198.603 69.7017 198.603 69.8531 198.603 69.9792C198.603 70.1053 198.603 70.1936 198.603 70.2314C198.603 70.4458 198.578 70.5972 198.541 70.6729H187.602C187.639 71.9971 187.964 72.9935 188.55 73.6367C189.099 74.3178 189.922 74.6709 191.02 74.6709C191.743 74.6709 192.342 74.5195 192.853 74.2169C192.978 74.179 193.102 74.1033 193.202 73.9898C193.315 73.8889 193.427 73.7628 193.551 73.6367C193.589 73.5106 193.751 73.334 194.025 73.1196C194.325 72.9178 194.711 72.8169 195.223 72.8169ZM187.639 67.8099H194.088C194.001 66.6622 193.714 65.8172 193.202 65.2623C192.653 64.6695 191.88 64.3668 190.87 64.3668C189.947 64.3668 189.186 64.6569 188.6 65.2623C187.989 65.855 187.677 66.7 187.639 67.8099ZM199.326 78.0509V69.8026C199.326 68.1378 199.563 66.7379 200.05 65.6154C200.536 64.4803 201.197 63.5722 202.045 62.8912C202.844 62.248 203.792 61.7813 204.864 61.4786C205.937 61.1759 207.047 61.0372 208.182 61.0372C208.269 61.0372 208.369 61.0372 208.506 61.0372C208.631 61.0372 208.743 61.0372 208.818 61.0372V65.5902H207.359C206.137 65.5902 205.226 65.8929 204.64 66.4856C204.054 67.0784 203.754 68.0243 203.754 69.2981V78.0509H199.326Z" fill="#0F4C9A"></path><path d="M177.798 78.1268H173.308L167.433 61.113H172.111L175.466 73.0693L178.434 62.6517C178.771 61.6301 179.445 61.113 180.455 61.113H183.735L177.798 78.1268Z" fill="#0F4C9A"></path></g><defs><clipPath id="clip0_263_673"><rect width="117.818" height="45" fill="white" transform="translate(91 47)"></rect></clipPath></defs></svg>