<svg xmlns="http://www.w3.org/2000/svg" width="300" height="140" viewBox="0 0 300 140" fill="none"><rect width="300" height="140" rx="5" fill="white"></rect><g clip-path="url(#clip0_263_681)"><path d="M110.895 66.5041V74.2442V76.2015V78.9019V82.1518V85.1034H112.883L111.214 87.9974L109.545 90.8914L107.876 87.9921L106.201 85.1034H108.19V81.911V78.9071V76.2067V74.0087V66.5041H110.895ZM93.0948 73.4959V67.2263V63.7985V61.0981V59.3188V54.8966H91.1066L92.7756 52.0026L94.4447 49.1086L96.1137 52.0026L97.7828 54.8966H95.7946V59.5595V61.0929V63.7933V67.4618V73.4854H93.0948V73.4959ZM101.995 48.7004C101.246 48.7004 100.645 48.0933 100.645 47.3502C100.645 46.6018 101.252 46 101.995 46C104.443 46 106.667 46.9996 108.279 48.6114C109.89 50.2233 110.889 52.4527 110.889 54.8966V58.3925H108.19V54.8966C108.19 53.1958 107.494 51.6468 106.369 50.5216C105.249 49.4017 103.695 48.7004 101.995 48.7004ZM95.7998 81.6023V85.0981C95.7998 86.799 96.4957 88.348 97.6206 89.4732C98.7455 90.5983 100.294 91.2944 101.995 91.2944C102.738 91.2944 103.345 91.9014 103.345 92.6446C103.345 93.3929 102.738 93.9948 101.995 93.9948C99.546 93.9948 97.3224 92.9952 95.7109 91.3833C94.0994 89.7715 93.0948 87.5421 93.0948 85.0981V81.6023H95.7998Z" fill="#9FC13B"></path><path d="M110.895 61.0981H113.15H117.089C119.538 61.0981 121.762 62.0977 123.373 63.7096C124.985 65.3214 125.989 67.5456 125.989 69.9948C125.989 72.444 124.99 74.6681 123.373 76.28C121.762 77.8919 119.538 78.8914 117.089 78.8914H113.594V76.191H117.089C118.795 76.191 120.344 75.495 121.464 74.3698C122.588 73.2447 123.284 71.6956 123.284 69.9948C123.284 68.2887 122.588 66.7397 121.464 65.6197C120.339 64.4946 118.79 63.7985 117.089 63.7985H112.909H110.895H108.195H105.008H98.4996V61.0981H105.249H108.195H110.895ZM105.49 78.9019H98.2328H95.7946H93.0948H90.327H86.8947C84.446 78.9019 82.2224 77.9023 80.6108 76.2905C78.9993 74.6734 78 72.4492 78 70C78 67.5508 78.9993 65.3267 80.6108 63.7148C82.2224 62.1029 84.446 61.1034 86.8947 61.1034H90.3898V63.8038H86.8947C85.1942 63.8038 83.6403 64.4998 82.5206 65.625C81.3957 66.7501 80.6998 68.2992 80.6998 70C80.6998 71.7061 81.3957 73.2551 82.5206 74.3751C83.6455 75.5002 85.1942 76.1963 86.8947 76.1963H90.5676H93.0895H95.7893H98.4682H105.479V78.9019H105.49Z" fill="#17A8BB"></path><path d="M219.446 75.2803V56.3096H222.8V75.2856H219.446V75.2803ZM207.292 71.4234C207.967 72.109 208.825 72.4491 209.866 72.4491C210.907 72.4491 211.765 72.109 212.451 71.4234C213.136 70.7378 213.476 69.8586 213.476 68.7858C213.476 67.713 213.136 66.8338 212.451 66.1482C211.765 65.4626 210.907 65.1225 209.866 65.1225C208.825 65.1225 207.972 65.4626 207.292 66.1482C206.617 66.8338 206.277 67.713 206.277 68.7858C206.282 69.8586 206.617 70.7378 207.292 71.4234ZM213.482 62.286H216.835V75.2803H213.482V73.747C212.477 75.0134 211.064 75.6414 209.243 75.6414C207.512 75.6414 206.026 74.9768 204.786 73.6528C203.546 72.3288 202.928 70.7012 202.928 68.7806C202.928 66.8547 203.546 65.2324 204.786 63.9083C206.026 62.5843 207.512 61.9197 209.243 61.9197C211.064 61.9197 212.477 62.5529 213.482 63.8194V62.286ZM196.597 75.6467C194.641 75.6467 193.008 74.9873 191.7 73.6737C190.392 72.3549 189.738 70.7274 189.738 68.7858C189.738 66.8442 190.392 65.2167 191.7 63.8979C193.008 62.5791 194.641 61.9197 196.597 61.9197C197.864 61.9197 199.015 62.2232 200.051 62.8303C201.092 63.4373 201.877 64.2485 202.416 65.2742L199.527 66.9646C199.266 66.4256 198.873 66.0017 198.345 65.6929C197.816 65.3789 197.225 65.2271 196.566 65.2271C195.561 65.2271 194.729 65.5621 194.07 66.2267C193.411 66.8966 193.081 67.7496 193.081 68.7858C193.081 69.8063 193.411 70.6541 194.07 71.3187C194.729 71.9834 195.561 72.3183 196.566 72.3183C197.241 72.3183 197.843 72.1665 198.371 71.863C198.9 71.5595 199.292 71.1408 199.554 70.6018L202.463 72.266C201.892 73.2865 201.087 74.1081 200.045 74.7204C199.015 75.3379 197.864 75.6467 196.597 75.6467ZM184.417 75.2803V62.286H187.771V75.2803H184.417ZM186.081 60.7265C185.526 60.7265 185.045 60.5224 184.637 60.1142C184.229 59.706 184.024 59.2245 184.024 58.6698C184.024 58.1151 184.229 57.6284 184.637 57.2149C185.045 56.7963 185.526 56.5922 186.081 56.5922C186.651 56.5922 187.143 56.8015 187.551 57.2149C187.959 57.6284 188.163 58.1151 188.163 58.6698C188.163 59.2245 187.959 59.706 187.551 60.1142C187.143 60.5224 186.651 60.7265 186.081 60.7265ZM172.252 71.4234C172.938 72.109 173.801 72.4491 174.837 72.4491C175.878 72.4491 176.736 72.109 177.411 71.4234C178.086 70.7378 178.426 69.8586 178.426 68.7858C178.426 67.713 178.086 66.8338 177.411 66.1482C176.736 65.4626 175.878 65.1225 174.837 65.1225C173.796 65.1225 172.938 65.4626 172.252 66.1482C171.567 66.8338 171.227 67.713 171.227 68.7858C171.227 69.8586 171.567 70.7378 172.252 71.4234ZM178.426 57.0893H181.78V75.2856H178.426V73.7522C177.437 75.0187 176.035 75.6467 174.214 75.6467C172.467 75.6467 170.97 74.982 169.73 73.658C168.49 72.334 167.873 70.7064 167.873 68.7858C167.873 66.8599 168.49 65.2376 169.73 63.9136C170.97 62.5896 172.461 61.9249 174.214 61.9249C176.035 61.9249 177.437 62.5582 178.426 63.8246V57.0893ZM156.786 67.5612H163.415C163.227 66.6768 162.829 66.0174 162.233 65.583C161.636 65.1486 160.956 64.9341 160.192 64.9341C159.292 64.9341 158.549 65.1643 157.958 65.6249C157.367 66.0854 156.974 66.7291 156.786 67.5612ZM156.838 70.1622C157.288 71.7897 158.512 72.6061 160.501 72.6061C161.783 72.6061 162.756 72.1718 163.41 71.3083L166.115 72.8678C164.833 74.7204 162.944 75.6467 160.448 75.6467C158.298 75.6467 156.577 74.9977 155.279 73.6999C153.981 72.402 153.333 70.764 153.333 68.7858C153.333 66.8285 153.971 65.1957 155.253 63.8874C156.535 62.5791 158.183 61.9249 160.192 61.9249C162.097 61.9249 163.671 62.5843 164.906 63.9031C166.146 65.2219 166.764 66.8495 166.764 68.791C166.764 69.2254 166.722 69.6859 166.633 70.1674H156.838V70.1622ZM151.208 57.0893V75.2856H147.651V63.4844L142.523 71.9258L142.104 71.9415L136.998 63.5263V75.2856H133.414V57.0893H137.102L142.319 65.6824L147.514 57.0893H151.208Z" fill="black"></path><path d="M189.304 83.6065H191.894C191.82 83.2611 191.663 83.0047 191.433 82.832C191.198 82.6645 190.936 82.5756 190.638 82.5756C190.287 82.5756 189.994 82.6645 189.764 82.8425C189.534 83.0256 189.377 83.2768 189.304 83.6065ZM189.325 84.6166C189.503 85.255 189.979 85.569 190.758 85.569C191.261 85.569 191.637 85.4016 191.894 85.0614L192.951 85.6685C192.448 86.3907 191.71 86.757 190.737 86.757C189.9 86.757 189.225 86.5058 188.718 85.9929C188.21 85.4853 187.954 84.8468 187.954 84.0723C187.954 83.3082 188.205 82.6698 188.707 82.1569C189.21 81.644 189.853 81.3928 190.638 81.3928C191.381 81.3928 191.998 81.6493 192.48 82.1621C192.961 82.675 193.207 83.3135 193.207 84.0723C193.207 84.2398 193.191 84.4229 193.155 84.6113H189.325V84.6166ZM185.788 82.4133C185.908 82.0889 186.112 81.8429 186.389 81.6807C186.672 81.5184 186.986 81.4347 187.326 81.4347V82.8948C186.928 82.8477 186.573 82.9314 186.253 83.1408C185.939 83.3501 185.782 83.7007 185.782 84.1874V86.6157H184.474V81.5394H185.782V82.4133H185.788ZM179.347 83.6065H181.937C181.864 83.2611 181.707 83.0047 181.476 82.832C181.241 82.6645 180.979 82.5756 180.681 82.5756C180.331 82.5756 180.038 82.6645 179.807 82.8425C179.572 83.0256 179.42 83.2768 179.347 83.6065ZM179.368 84.6166C179.546 85.255 180.022 85.569 180.801 85.569C181.304 85.569 181.68 85.4016 181.937 85.0614L182.994 85.6685C182.491 86.3907 181.754 86.757 180.781 86.757C179.938 86.757 179.268 86.5058 178.761 85.9929C178.253 85.4853 178.002 84.8468 178.002 84.0723C178.002 83.3082 178.253 82.6698 178.756 82.1569C179.258 81.644 179.902 81.3928 180.681 81.3928C181.424 81.3928 182.041 81.6493 182.523 82.1621C183.004 82.675 183.25 83.3135 183.25 84.0723C183.25 84.2398 183.234 84.4229 183.198 84.6113H179.368V84.6166ZM175.292 79.5141H176.684V86.6209H175.292V83.6746H172.65V86.6209H171.248V79.5141H172.65V82.3348H175.287V79.5141H175.292ZM165.299 81.3981C165.853 81.3981 166.314 81.5865 166.675 81.958C167.036 82.3296 167.219 82.8425 167.219 83.5019V86.6209H165.911V83.6641C165.911 83.3239 165.822 83.0675 165.639 82.8896C165.456 82.7116 165.215 82.6227 164.906 82.6227C164.566 82.6227 164.299 82.7273 164.095 82.9367C163.891 83.146 163.792 83.46 163.792 83.8787V86.6209H162.484V81.5446H163.792V82.1098C164.1 81.6388 164.608 81.3981 165.299 81.3981ZM157.241 85.1137C157.503 85.3806 157.843 85.5167 158.246 85.5167C158.654 85.5167 158.989 85.3859 159.255 85.1137C159.522 84.8468 159.653 84.5014 159.653 84.0828C159.653 83.6641 159.522 83.3187 159.255 83.0518C158.989 82.7849 158.648 82.6488 158.246 82.6488C157.837 82.6488 157.503 82.7797 157.241 83.0518C156.979 83.3187 156.843 83.6641 156.843 84.0828C156.843 84.5014 156.979 84.8416 157.241 85.1137ZM159.658 81.5446H160.966V86.6209H159.658V86.0243C159.266 86.5163 158.717 86.7675 158.005 86.7675C157.33 86.7675 156.749 86.511 156.263 85.9877C155.781 85.4696 155.535 84.8364 155.535 84.0828C155.535 83.3344 155.776 82.6959 156.263 82.1778C156.744 81.6597 157.325 81.4033 158.005 81.4033C158.717 81.4033 159.266 81.6493 159.658 82.1464V81.5446ZM150.57 84.9986C150.837 85.2603 151.177 85.3911 151.59 85.3911C152.004 85.3911 152.344 85.2603 152.611 84.9986C152.877 84.7369 153.013 84.4072 153.013 83.999C153.013 83.6013 152.877 83.2716 152.611 83.0099C152.344 82.7483 152.004 82.6174 151.59 82.6174C151.177 82.6174 150.837 82.7483 150.57 83.0099C150.303 83.2716 150.167 83.6013 150.167 83.999C150.172 84.4072 150.303 84.7369 150.57 84.9986ZM153.013 81.5446H154.29V86.3802C154.29 87.1652 154.034 87.7618 153.516 88.1752C152.998 88.5887 152.375 88.7928 151.643 88.7928C151.093 88.7928 150.612 88.6881 150.199 88.4788C149.78 88.2694 149.461 87.9607 149.241 87.5525L150.356 86.914C150.612 87.385 151.057 87.6257 151.684 87.6257C152.098 87.6257 152.422 87.5158 152.658 87.3013C152.893 87.0867 153.013 86.7779 153.013 86.375V85.8255C152.626 86.3383 152.087 86.6 151.386 86.6C150.669 86.6 150.068 86.3488 149.586 85.8412C149.105 85.3388 148.859 84.7212 148.859 83.999C148.859 83.2821 149.105 82.6698 149.592 82.1621C150.078 81.6545 150.68 81.4033 151.386 81.4033C152.082 81.4033 152.626 81.6597 153.013 82.1726V81.5446ZM144.213 85.0876C144.475 85.3492 144.799 85.4853 145.191 85.4853C145.584 85.4853 145.913 85.3545 146.175 85.0876C146.437 84.8259 146.573 84.491 146.573 84.0828C146.573 83.6798 146.442 83.3396 146.175 83.078C145.908 82.8111 145.584 82.6802 145.191 82.6802C144.799 82.6802 144.475 82.8111 144.213 83.078C143.951 83.3396 143.821 83.6746 143.821 84.0828C143.821 84.4857 143.951 84.8207 144.213 85.0876ZM147.101 85.9825C146.578 86.5006 145.945 86.7622 145.191 86.7622C144.438 86.7622 143.805 86.5058 143.287 85.9825C142.769 85.4644 142.513 84.8311 142.513 84.0775C142.513 83.3292 142.774 82.6907 143.287 82.1726C143.805 81.6545 144.438 81.3981 145.191 81.3981C145.945 81.3981 146.578 81.6545 147.101 82.1726C147.624 82.6907 147.881 83.3239 147.881 84.0775C147.881 84.8311 147.619 85.4644 147.101 85.9825ZM139.949 86.6209V79.2053H141.257V86.6157H139.949V86.6209ZM136.197 86.7622C135.491 86.7622 134.9 86.6052 134.418 86.2912C133.937 85.9772 133.597 85.5481 133.403 85.0091L134.601 84.3078C134.879 85.03 135.423 85.3963 136.234 85.3963C136.626 85.3963 136.914 85.3231 137.097 85.1818C137.28 85.0405 137.369 84.8625 137.369 84.6427C137.369 84.3915 137.259 84.1979 137.034 84.0566C136.809 83.9205 136.412 83.7688 135.836 83.6065C135.517 83.5123 135.25 83.4181 135.031 83.3239C134.811 83.2297 134.591 83.1041 134.371 82.9419C134.152 82.7849 133.984 82.5808 133.869 82.3401C133.754 82.0941 133.696 81.8115 133.696 81.487C133.696 80.8433 133.927 80.3305 134.382 79.9485C134.837 79.5664 135.386 79.3728 136.03 79.3728C136.605 79.3728 137.113 79.5141 137.547 79.7915C137.987 80.0741 138.322 80.4613 138.567 80.9637L137.39 81.644C137.108 81.0317 136.652 80.7282 136.03 80.7282C135.737 80.7282 135.512 80.7963 135.344 80.9271C135.177 81.0579 135.093 81.2306 135.093 81.4399C135.093 81.665 135.187 81.8429 135.371 81.9842C135.559 82.1203 135.915 82.272 136.443 82.4343C136.658 82.5023 136.825 82.5546 136.935 82.5913C137.045 82.6279 137.202 82.6855 137.39 82.764C137.584 82.8425 137.73 82.9157 137.835 82.9838C137.94 83.0518 138.06 83.1408 138.196 83.2559C138.332 83.371 138.431 83.4914 138.505 83.6118C138.578 83.7321 138.635 83.8787 138.688 84.0514C138.74 84.2241 138.766 84.4125 138.766 84.6166C138.766 85.2707 138.526 85.7941 138.049 86.1813C137.584 86.5686 136.961 86.7622 136.197 86.7622Z" fill="black"></path></g><defs><clipPath id="clip0_263_681"><rect width="144.8" height="48" fill="white" transform="translate(78 46)"></rect></clipPath></defs></svg>