<svg xmlns="http://www.w3.org/2000/svg" width="300" height="140" viewBox="0 0 300 140" fill="none"><rect width="300" height="140" rx="5" fill="white"></rect><g clip-path="url(#clip0_263_839)"><path d="M140.752 67.6213C140.849 67.6213 140.898 67.6213 140.995 67.6699C141.092 67.7184 141.14 67.767 141.189 67.8155L142.45 69.1262C141.916 69.8544 141.189 70.3883 140.364 70.7767C139.539 71.165 138.569 71.3107 137.405 71.3107C136.386 71.3107 135.416 71.1165 134.64 70.7767C133.816 70.4369 133.137 69.9514 132.554 69.3204C131.972 68.6893 131.536 67.9611 131.245 67.0874C130.954 66.2136 130.808 65.2912 130.808 64.3204C130.808 63.301 131.002 62.3786 131.342 61.5048C131.681 60.631 132.166 59.9029 132.797 59.3204C133.428 58.6893 134.155 58.2039 135.028 57.8641C135.901 57.5243 136.872 57.3301 137.939 57.3301C138.472 57.3301 138.957 57.3786 139.394 57.4757C139.83 57.5728 140.267 57.6699 140.655 57.8641C141.043 58.0097 141.431 58.2039 141.722 58.4466C142.062 58.6893 142.353 58.932 142.595 59.1747L141.528 60.631C141.48 60.7281 141.383 60.7767 141.286 60.8738C141.189 60.9223 141.043 60.9709 140.898 60.9709C140.801 60.9709 140.655 60.9223 140.558 60.8738C140.461 60.8252 140.364 60.7767 140.218 60.6796C140.121 60.631 139.976 60.534 139.83 60.4369C139.685 60.3398 139.539 60.2912 139.345 60.1942C139.151 60.1456 138.957 60.0485 138.715 60C138.472 59.9514 138.181 59.9029 137.842 59.9029C137.26 59.9029 136.726 60 136.289 60.1942C135.804 60.3883 135.416 60.6796 135.077 61.0679C134.737 61.4563 134.446 61.8932 134.301 62.4272C134.107 62.9611 134.01 63.5922 134.01 64.2233C134.01 64.9029 134.107 65.534 134.301 66.0679C134.495 66.6019 134.737 67.0874 135.077 67.4272C135.416 67.8155 135.804 68.0582 136.241 68.2524C136.677 68.4466 137.163 68.5437 137.648 68.5437C137.939 68.5437 138.181 68.5437 138.424 68.4951C138.666 68.4466 138.86 68.398 139.103 68.3495C139.297 68.301 139.491 68.2039 139.685 68.0582C139.879 67.9611 140.073 67.8155 140.218 67.6699C140.315 67.6213 140.364 67.5728 140.461 67.5243C140.558 67.6213 140.655 67.6213 140.752 67.6213Z" fill="#004A63"></path><path d="M146.912 57.0874V71.1165H144.002V57.0874H146.912Z" fill="#004A63"></path><path d="M152.588 58.7378C152.588 58.9805 152.539 59.1747 152.442 59.3689C152.345 59.563 152.2 59.7572 152.054 59.9029C151.909 60.0485 151.714 60.1941 151.472 60.2912C151.278 60.3883 151.035 60.4368 150.793 60.4368C150.55 60.4368 150.356 60.3883 150.114 60.2912C149.92 60.1941 149.726 60.097 149.58 59.9029C149.435 59.7572 149.289 59.563 149.192 59.3689C149.095 59.1747 149.047 58.932 149.047 58.7378C149.047 58.4951 149.095 58.3009 149.192 58.0582C149.289 57.864 149.386 57.6698 149.58 57.5242C149.726 57.3786 149.92 57.233 150.114 57.1359C150.308 57.0388 150.55 56.9902 150.793 56.9902C151.035 56.9902 151.278 57.0388 151.472 57.1359C151.666 57.233 151.86 57.33 152.054 57.5242C152.2 57.6698 152.345 57.864 152.442 58.0582C152.539 58.3009 152.588 58.5436 152.588 58.7378ZM152.248 61.4077V71.1164H149.338V61.4077H152.248Z" fill="#004A63"></path><path d="M161.561 63.7378C161.464 63.8349 161.367 63.9319 161.319 63.9805C161.222 64.029 161.125 64.0776 160.979 64.0776C160.834 64.0776 160.688 64.029 160.591 63.9805C160.494 63.9319 160.349 63.8349 160.203 63.7378C160.058 63.6407 159.912 63.5921 159.718 63.4951C159.524 63.4465 159.281 63.398 158.99 63.398C158.651 63.398 158.311 63.4465 158.069 63.5921C157.826 63.7378 157.584 63.9319 157.438 64.1747C157.293 64.4174 157.147 64.7086 157.05 65.0485C156.953 65.3883 156.905 65.7766 156.905 66.262C156.905 67.1844 157.099 67.9125 157.438 68.398C157.778 68.8834 158.311 69.1261 158.942 69.1261C159.281 69.1261 159.524 69.0776 159.767 68.9805C159.961 68.8834 160.155 68.7863 160.252 68.6892C160.397 68.5921 160.494 68.4951 160.64 68.398C160.737 68.3009 160.882 68.2523 161.076 68.2523C161.319 68.2523 161.464 68.3494 161.61 68.4951L162.434 69.5145C162.143 69.8543 161.804 70.1455 161.464 70.3397C161.125 70.5339 160.785 70.7281 160.446 70.8252C160.106 70.9708 159.767 71.0193 159.379 71.0679C159.039 71.1164 158.699 71.1164 158.36 71.1164C157.778 71.1164 157.196 71.0193 156.662 70.7766C156.129 70.5339 155.644 70.2426 155.255 69.8057C154.867 69.3688 154.528 68.8349 154.285 68.2038C154.043 67.5727 153.946 66.8446 153.946 66.0679C153.946 65.3883 154.043 64.7086 154.237 64.1261C154.431 63.4951 154.77 63.0096 155.158 62.5242C155.547 62.0873 156.08 61.7475 156.662 61.4562C157.244 61.2135 157.972 61.0679 158.748 61.0679C159.524 61.0679 160.155 61.2135 160.737 61.4562C161.319 61.6989 161.852 62.0387 162.289 62.5242L161.561 63.7378Z" fill="#004A63"></path><path d="M166.606 57.0874V64.9515H167.042C167.237 64.9515 167.382 64.9029 167.479 64.8544C167.576 64.8058 167.673 64.7088 167.77 64.5631L169.613 61.8447C169.71 61.6991 169.856 61.5534 170.001 61.5049C170.147 61.4078 170.341 61.4078 170.583 61.4078H173.251L170.729 64.8544C170.632 65 170.486 65.1457 170.341 65.2913C170.195 65.4369 170.05 65.534 169.904 65.6311C170.195 65.8253 170.438 66.1165 170.632 66.4563L173.348 71.1165H170.729C170.486 71.1165 170.341 71.068 170.147 71.0194C170.001 70.9709 169.856 70.8253 169.759 70.6311L167.916 67.1845C167.819 67.0389 167.722 66.9418 167.625 66.8932C167.528 66.8447 167.382 66.8447 167.188 66.8447H166.606V71.1651H163.696V57.0874H166.606Z" fill="#004A63"></path><path d="M185.426 65.6311C185.523 65.8738 185.669 66.1651 185.766 66.4078C185.863 66.1166 185.96 65.8738 186.105 65.5826C186.202 65.3399 186.348 65.0486 186.494 64.8059L189.986 57.9127C190.034 57.8156 190.131 57.7185 190.18 57.6214C190.229 57.5729 190.326 57.5243 190.423 57.4758C190.52 57.4272 190.617 57.4272 190.714 57.4272C190.811 57.4272 190.956 57.4272 191.053 57.4272H193.478V71.068H190.665V63.301C190.665 62.9127 190.665 62.5243 190.714 62.0874L187.076 69.1263C186.979 69.369 186.833 69.5146 186.639 69.6117C186.445 69.7088 186.251 69.7573 186.008 69.7573H185.572C185.329 69.7573 185.087 69.7088 184.941 69.6117C184.747 69.5146 184.602 69.3204 184.505 69.1263L180.867 62.0874C180.915 62.3302 180.915 62.5243 180.915 62.7185C180.915 62.9127 180.915 63.1554 180.915 63.301V71.1651H178.102V57.4758H180.527C180.673 57.4758 180.77 57.4758 180.867 57.4758C180.964 57.4758 181.061 57.4758 181.158 57.5243C181.255 57.5729 181.303 57.6214 181.4 57.67C181.449 57.7185 181.546 57.8156 181.594 57.9612L185.087 64.903C185.184 65.1457 185.329 65.3884 185.426 65.6311Z" fill="#004A63"></path><path d="M199.833 61.262C200.463 61.262 201.045 61.359 201.579 61.5532C202.113 61.7474 202.549 62.0387 202.937 62.427C203.325 62.8154 203.616 63.2523 203.859 63.8348C204.053 64.3688 204.198 64.9998 204.198 65.728C204.198 65.9707 204.198 66.1163 204.15 66.262C204.15 66.4076 204.101 66.5047 204.053 66.6018C204.004 66.6989 203.956 66.7474 203.859 66.7474C203.762 66.7959 203.665 66.7959 203.519 66.7959H197.893C197.99 67.6212 198.232 68.2037 198.62 68.5435C199.008 68.9319 199.542 69.0775 200.172 69.0775C200.512 69.0775 200.803 69.029 201.045 68.9319C201.288 68.8348 201.53 68.7377 201.676 68.6406C201.87 68.5435 202.064 68.4464 202.21 68.3493C202.355 68.2523 202.549 68.2037 202.695 68.2037C202.937 68.2037 203.083 68.3008 203.228 68.4464L204.053 69.4658C203.762 69.8057 203.422 70.0969 203.083 70.2911C202.743 70.4853 202.404 70.6794 202.016 70.7765C201.628 70.9222 201.288 70.9707 200.9 71.0192C200.512 71.0678 200.172 71.0678 199.833 71.0678C199.154 71.0678 198.523 70.9707 197.893 70.728C197.31 70.4853 196.777 70.194 196.34 69.7571C195.904 69.3202 195.564 68.7862 195.273 68.1066C195.031 67.4756 194.885 66.6989 194.885 65.8251C194.885 65.194 194.982 64.5629 195.225 63.9804C195.467 63.3979 195.758 62.9124 196.195 62.4756C196.631 62.0387 197.116 61.6989 197.699 61.4561C198.426 61.4076 199.105 61.262 199.833 61.262ZM199.93 63.3008C199.396 63.3008 198.96 63.4464 198.62 63.7862C198.329 64.126 198.087 64.5629 197.99 65.1455H201.628C201.628 64.9027 201.579 64.7086 201.531 64.4658C201.482 64.2231 201.385 64.029 201.239 63.8833C201.094 63.6891 200.948 63.5921 200.706 63.4464C200.463 63.3493 200.221 63.3008 199.93 63.3008Z" fill="#004A63"></path><path d="M212.687 71.1651C212.493 71.1651 212.347 71.1165 212.25 71.0194C212.105 70.9224 212.056 70.8253 212.008 70.6311L211.765 69.9029C211.571 70.0971 211.377 70.2913 211.135 70.4855C210.941 70.6311 210.698 70.7767 210.456 70.9224C210.213 71.068 209.922 71.1165 209.679 71.2136C209.388 71.2622 209.097 71.3107 208.758 71.3107C208.273 71.3107 207.788 71.2136 207.351 70.9709C206.915 70.7282 206.527 70.4369 206.236 70C205.945 69.5631 205.702 69.0777 205.508 68.4466C205.314 67.8156 205.217 67.1359 205.217 66.3592C205.217 65.6311 205.314 64.9515 205.508 64.3204C205.702 63.6893 205.993 63.1554 206.333 62.7185C206.672 62.2816 207.157 61.8932 207.642 61.6505C208.176 61.4078 208.709 61.2622 209.34 61.2622C209.825 61.2622 210.262 61.3592 210.601 61.5049C210.941 61.6505 211.28 61.8447 211.523 62.0874V57.0874H214.433V71.1165H212.687V71.1651ZM209.777 69.0777C209.971 69.0777 210.165 69.0777 210.359 69.0292C210.553 68.9806 210.698 68.9321 210.844 68.835C210.989 68.7379 211.135 68.6893 211.232 68.5437C211.377 68.4466 211.474 68.301 211.62 68.1554V64.0292C211.377 63.7864 211.135 63.5923 210.892 63.4952C210.65 63.3981 210.359 63.3495 210.068 63.3495C209.777 63.3495 209.534 63.3981 209.34 63.4952C209.097 63.5923 208.903 63.7864 208.758 64.0292C208.612 64.2719 208.467 64.5631 208.37 64.9515C208.273 65.3398 208.224 65.7767 208.224 66.3107C208.224 66.8447 208.273 67.233 208.321 67.6214C208.418 67.9612 208.515 68.2525 208.612 68.4466C208.758 68.6408 208.903 68.835 209.097 68.9321C209.34 69.0292 209.534 69.0777 209.777 69.0777Z" fill="#004A63"></path><path d="M220.108 58.7378C220.108 58.9805 220.06 59.1747 219.963 59.3689C219.866 59.563 219.72 59.7572 219.575 59.9029C219.429 60.0485 219.235 60.1941 218.993 60.2912C218.799 60.3883 218.556 60.4368 218.314 60.4368C218.071 60.4368 217.877 60.3883 217.635 60.2912C217.44 60.1941 217.246 60.097 217.101 59.9029C216.955 59.7572 216.81 59.563 216.713 59.3689C216.616 59.1747 216.567 58.932 216.567 58.7378C216.567 58.4951 216.616 58.3009 216.713 58.0582C216.81 57.864 216.907 57.6698 217.101 57.5242C217.246 57.3786 217.44 57.233 217.635 57.1359C217.829 57.0388 218.071 56.9902 218.314 56.9902C218.556 56.9902 218.799 57.0388 218.993 57.1359C219.187 57.233 219.381 57.33 219.575 57.5242C219.72 57.6698 219.866 57.864 219.963 58.0582C220.06 58.3009 220.108 58.5436 220.108 58.7378ZM219.769 61.4077V71.1164H216.858V61.4077H219.769Z" fill="#004A63"></path><path d="M229.082 63.7378C228.985 63.8349 228.888 63.9319 228.84 63.9805C228.742 64.029 228.645 64.0776 228.5 64.0776C228.354 64.0776 228.209 64.029 228.112 63.9805C228.015 63.9319 227.869 63.8349 227.724 63.7378C227.578 63.6407 227.433 63.5921 227.239 63.4951C227.045 63.4465 226.802 63.398 226.511 63.398C226.172 63.398 225.832 63.4465 225.59 63.5921C225.347 63.7378 225.105 63.9319 224.959 64.1747C224.813 64.4174 224.668 64.7086 224.571 65.0485C224.474 65.3883 224.425 65.7766 224.425 66.262C224.425 67.1844 224.619 67.9125 224.959 68.398C225.299 68.8834 225.832 69.1261 226.463 69.1261C226.802 69.1261 227.045 69.0776 227.287 68.9805C227.481 68.8834 227.675 68.7863 227.772 68.6892C227.918 68.5921 228.015 68.4951 228.16 68.398C228.257 68.3009 228.403 68.2523 228.597 68.2523C228.84 68.2523 228.985 68.3494 229.131 68.4951L229.955 69.5145C229.664 69.8543 229.325 70.1455 228.985 70.3397C228.645 70.5339 228.306 70.7281 227.966 70.8252C227.627 70.9708 227.287 71.0193 226.899 71.0679C226.56 71.1164 226.22 71.1164 225.881 71.1164C225.299 71.1164 224.716 71.0193 224.183 70.7766C223.649 70.5339 223.164 70.2426 222.776 69.8057C222.388 69.3688 222.049 68.8349 221.806 68.2038C221.564 67.5727 221.467 66.8446 221.467 66.0679C221.467 65.3883 221.564 64.7086 221.758 64.1261C221.952 63.4951 222.291 63.0096 222.679 62.5242C223.067 62.0873 223.601 61.7475 224.183 61.4562C224.765 61.2135 225.493 61.0679 226.269 61.0679C227.045 61.0679 227.675 61.2135 228.257 61.4562C228.84 61.6989 229.373 62.0387 229.81 62.5242L229.082 63.7378Z" fill="#004A63"></path><path d="M147.009 77.0874C146.961 77.1359 146.912 77.1845 146.912 77.233C146.864 77.2815 146.815 77.2815 146.767 77.2815C146.718 77.2815 146.67 77.2815 146.573 77.233C146.524 77.1845 146.427 77.1359 146.379 77.1359C146.282 77.0874 146.185 77.0388 146.088 77.0388C145.991 76.9903 145.845 76.9903 145.748 76.9903C145.506 76.9903 145.36 77.0388 145.263 77.1359C145.166 77.233 145.118 77.3786 145.118 77.5243C145.118 77.6214 145.166 77.7184 145.215 77.767C145.263 77.8155 145.36 77.9126 145.457 77.9612C145.554 78.0097 145.7 78.0582 145.845 78.1068C145.991 78.1553 146.136 78.2039 146.282 78.2524C146.427 78.301 146.573 78.3495 146.718 78.4466C146.864 78.4951 146.961 78.5922 147.106 78.6893C147.203 78.7864 147.3 78.932 147.349 79.0777C147.397 79.2233 147.446 79.4175 147.446 79.6116C147.446 79.8544 147.397 80.0971 147.3 80.2913C147.203 80.4854 147.106 80.6796 146.912 80.8252C146.767 80.9709 146.573 81.1165 146.33 81.2136C146.088 81.3107 145.845 81.3592 145.554 81.3592C145.409 81.3592 145.215 81.3592 145.069 81.3107C144.924 81.2621 144.73 81.2136 144.584 81.165C144.439 81.1165 144.293 81.0194 144.148 80.9709C144.002 80.8738 143.905 80.7767 143.808 80.6796L144.148 80.0971C144.196 80.0485 144.196 80 144.245 80C144.293 79.9514 144.342 79.9514 144.39 79.9514C144.439 79.9514 144.536 79.9514 144.584 80C144.681 80.0485 144.73 80.0971 144.827 80.1456C144.924 80.1942 145.021 80.2427 145.166 80.2913C145.263 80.3398 145.409 80.3398 145.603 80.3398C145.845 80.3398 145.991 80.2913 146.136 80.1942C146.282 80.0971 146.33 79.9514 146.33 79.7573C146.33 79.6116 146.282 79.5146 146.233 79.466C146.185 79.3689 146.088 79.3204 145.991 79.2718C145.894 79.2233 145.748 79.1748 145.603 79.1262C145.457 79.0777 145.312 79.0291 145.166 78.9806C145.021 78.932 144.875 78.8835 144.73 78.7864C144.584 78.7379 144.487 78.6408 144.342 78.4951C144.245 78.3981 144.148 78.2524 144.099 78.0582C144.051 77.9126 144.002 77.6699 144.002 77.4272C144.002 77.233 144.051 77.0388 144.099 76.8447C144.196 76.6505 144.293 76.5048 144.439 76.3592C144.584 76.2136 144.778 76.1165 145.021 76.0194C145.263 75.9223 145.506 75.8738 145.797 75.8738C145.942 75.8738 146.136 75.8738 146.282 75.9223C146.427 75.9709 146.573 75.9709 146.718 76.0194C146.864 76.068 146.961 76.1165 147.106 76.2136C147.203 76.2621 147.349 76.3592 147.446 76.4563L147.009 77.0874Z" fill="#009F9A"></path><path d="M151.714 80.2912H153.655V81.262H150.502V76.0679H151.714V80.2912Z" fill="#009F9A"></path><path d="M161.61 78.6409C161.61 79.0292 161.561 79.369 161.416 79.7088C161.27 80.0486 161.125 80.3399 160.882 80.5341C160.64 80.7768 160.349 80.9709 160.009 81.1166C159.67 81.2622 159.33 81.3108 158.893 81.3108C158.505 81.3108 158.117 81.2622 157.778 81.1166C157.438 80.9709 157.147 80.7768 156.905 80.5341C156.662 80.2913 156.468 80.0001 156.371 79.7088C156.226 79.369 156.177 79.0292 156.177 78.6409C156.177 78.2525 156.226 77.9127 156.371 77.5729C156.517 77.2331 156.662 76.9418 156.905 76.7476C157.147 76.5049 157.438 76.3108 157.778 76.1651C158.117 76.0195 158.505 75.9709 158.893 75.9709C159.282 75.9709 159.67 76.0195 160.009 76.1651C160.349 76.3108 160.64 76.5049 160.882 76.7476C161.125 76.9904 161.319 77.2816 161.416 77.5729C161.513 77.9127 161.61 78.301 161.61 78.6409ZM160.349 78.6409C160.349 78.3981 160.3 78.1554 160.252 77.9612C160.203 77.7671 160.106 77.5729 159.961 77.4273C159.815 77.2816 159.67 77.1845 159.524 77.0875C159.33 76.9904 159.136 76.9904 158.893 76.9904C158.651 76.9904 158.457 77.0389 158.263 77.0875C158.069 77.1845 157.923 77.2816 157.778 77.4273C157.632 77.5729 157.535 77.7671 157.487 77.9612C157.438 78.1554 157.39 78.3981 157.39 78.6409C157.39 78.8836 157.438 79.1263 157.487 79.3205C157.535 79.5146 157.632 79.7088 157.778 79.8544C157.923 80.0001 158.069 80.0972 158.263 80.1942C158.457 80.2913 158.651 80.2913 158.893 80.2913C159.136 80.2913 159.33 80.2428 159.524 80.1942C159.718 80.0972 159.864 80.0001 159.961 79.8544C160.106 79.7088 160.203 79.5146 160.252 79.3205C160.3 79.1263 160.349 78.9321 160.349 78.6409Z" fill="#009F9A"></path><path d="M167.14 80.3883C167.285 80.3883 167.479 80.3883 167.576 80.3397C167.673 80.2912 167.819 80.2912 167.964 80.2426V79.4659H167.431C167.334 79.4659 167.285 79.4659 167.237 79.4174C167.188 79.3688 167.188 79.3203 167.188 79.2718V78.5921H169.031V80.7766C168.886 80.8737 168.74 80.9708 168.595 81.0193C168.449 81.0679 168.304 81.165 168.11 81.2135C167.964 81.262 167.77 81.3106 167.576 81.3106C167.382 81.3106 167.188 81.3591 166.994 81.3591C166.606 81.3591 166.266 81.3106 165.927 81.165C165.587 81.0193 165.345 80.8252 165.102 80.5824C164.86 80.3397 164.666 80.0485 164.52 79.7572C164.375 79.4174 164.326 79.0776 164.326 78.6892C164.326 78.3009 164.375 77.9611 164.52 77.6213C164.666 77.2815 164.811 76.9902 165.054 76.796C165.296 76.5533 165.587 76.3591 165.927 76.262C166.266 76.1164 166.654 76.0679 167.091 76.0679C167.285 76.0679 167.528 76.0679 167.722 76.1164C167.916 76.165 168.11 76.2135 168.255 76.262C168.401 76.3106 168.546 76.4077 168.692 76.5048C168.837 76.6019 168.934 76.6989 169.031 76.796L168.692 77.33C168.643 77.3786 168.595 77.4271 168.595 77.4271C168.546 77.4756 168.498 77.4756 168.449 77.4756C168.401 77.4756 168.304 77.4756 168.207 77.4271C168.11 77.3786 168.013 77.33 167.916 77.2815C167.819 77.2329 167.722 77.1844 167.673 77.1844C167.576 77.1358 167.479 77.1358 167.382 77.1358C167.285 77.1358 167.188 77.1358 167.043 77.1358C166.8 77.1358 166.606 77.1844 166.412 77.2329C166.218 77.33 166.072 77.4271 165.927 77.5727C165.781 77.7184 165.684 77.9125 165.636 78.1067C165.587 78.3009 165.539 78.5436 165.539 78.7863C165.539 79.0776 165.587 79.3203 165.636 79.5145C165.733 79.7086 165.83 79.9028 165.975 80.0485C166.121 80.1941 166.266 80.2912 166.46 80.3883C166.703 80.3397 166.897 80.3883 167.14 80.3883Z" fill="#009F9A"></path><path d="M177.132 81.2622H176.21C176.113 81.2622 176.016 81.2622 175.968 81.1652C175.919 81.1166 175.871 81.0681 175.822 80.971L175.531 80.0487H173.542L173.251 80.971C173.251 81.0195 173.203 81.1166 173.106 81.1652C173.057 81.2137 172.96 81.2622 172.863 81.2622H171.893L173.93 76.0195H175.192L177.132 81.2622ZM173.785 79.272H175.192L174.707 77.8642C174.658 77.7671 174.658 77.67 174.61 77.5244C174.561 77.3788 174.513 77.2817 174.464 77.136C174.416 77.2817 174.367 77.4273 174.367 77.5244C174.319 77.67 174.27 77.7671 174.27 77.8642L173.785 79.272Z" fill="#009F9A"></path><path d="M180.867 76.0679C180.915 76.0679 180.915 76.0679 180.964 76.1164C181.012 76.1164 181.012 76.165 181.061 76.165C181.109 76.165 181.109 76.2135 181.158 76.262L183.632 79.4174C183.632 79.3203 183.632 79.2232 183.632 79.1261C183.632 79.029 183.632 78.9319 183.632 78.8349V76.0679H184.699V81.3106H184.02C183.923 81.3106 183.826 81.3106 183.777 81.262C183.729 81.2135 183.632 81.165 183.583 81.1164L181.109 78.0096C181.109 78.1067 181.109 78.2038 181.109 78.2523C181.109 78.3494 181.109 78.398 181.109 78.4951V81.3106H180.042V76.0679H180.673C180.77 76.0679 180.818 76.0679 180.867 76.0679Z" fill="#009F9A"></path><path d="M196.437 81.262H195.225V79.0776H193.09V81.262H191.878V76.0679H193.09V78.2523H195.225V76.0679H196.437V81.262Z" fill="#009F9A"></path><path d="M203.18 76.0679V76.9902H201.045V78.2038H202.695V79.0776H201.045V80.3397H203.18V81.262H199.833V76.0679H203.18Z" fill="#009F9A"></path><path d="M207.594 79.3203V81.262H206.381V76.0679H208.079C208.467 76.0679 208.758 76.1164 209.049 76.165C209.291 76.262 209.534 76.3591 209.68 76.5048C209.825 76.6504 209.971 76.796 210.068 76.9902C210.165 77.1844 210.165 77.3785 210.165 77.6213C210.165 77.7669 210.165 77.9611 210.116 78.1067C210.068 78.2523 210.019 78.398 209.922 78.5436C209.825 78.6892 209.728 78.7863 209.583 78.8834C209.437 78.9805 209.291 79.0776 209.146 79.1261C209.243 79.1747 209.291 79.2232 209.388 79.2718C209.437 79.3203 209.534 79.4174 209.583 79.5145L210.698 81.3106H209.583C209.388 81.3106 209.243 81.2135 209.146 81.0679L208.273 79.563C208.224 79.5145 208.176 79.4659 208.127 79.4174C208.079 79.3688 207.982 79.3688 207.933 79.3688H207.594V79.3203ZM207.594 78.4951H208.079C208.224 78.4951 208.37 78.4951 208.515 78.4465C208.612 78.398 208.709 78.3494 208.806 78.2523C208.903 78.1552 208.952 78.1067 208.952 78.0096C209 77.9125 209 77.8154 209 77.6698C209 77.4271 208.903 77.2815 208.758 77.1358C208.612 76.9902 208.37 76.9417 208.079 76.9417H207.594V78.4951Z" fill="#009F9A"></path><path d="M217.004 76.0679V76.9902H214.87V78.2038H216.519V79.0776H214.87V80.3397H217.004V81.262H213.657V76.0679H217.004Z" fill="#009F9A"></path><path d="M111.018 70C111.018 70.9708 110.242 71.7961 109.271 71.7961C108.301 71.7961 107.525 70.9708 107.525 70V66.9417H100.783C99.8127 66.9417 98.9881 66.1165 98.9881 65.1941V58.4951H92.9248V65.1941C92.9248 66.165 92.1487 66.9417 91.1786 66.9417H84.4847V73.0582H91.1786C92.1487 73.0582 92.9248 73.8349 92.9248 74.8058V81.5048H95.9807C96.9508 81.5048 97.7269 82.3301 97.7269 83.3009C97.7269 84.2718 96.9508 85.0485 95.9807 85.0485H91.1786C90.2084 85.0485 89.4323 84.2233 89.4323 83.3009V76.6019H82.69C81.7198 76.6019 80.9437 75.8252 80.9437 74.8543V65.1941C80.9437 64.2233 81.7683 63.398 82.69 63.398H89.3838V56.699C89.3838 55.7281 90.1599 54.9514 91.1301 54.9514H100.783C101.753 54.9514 102.529 55.7281 102.529 56.699V63.398H109.223C110.193 63.398 110.969 64.2233 110.969 65.1941V70H111.018Z" fill="#004A63"></path><path d="M99.2791 73.932L99.3277 73.8834C99.4247 73.7378 99.5702 73.5922 99.7157 73.4951C100.007 73.3495 100.298 73.2524 100.637 73.2524H109.077C110.048 73.2524 110.824 74.0291 110.824 74.9999C110.824 75.9708 110.048 76.7475 109.077 76.7475H104.906L113.492 85.3397C114.171 86.0194 114.171 87.1359 113.492 87.864C109.271 92.0873 103.887 94.5145 98.2605 95.097C92.6823 95.631 86.8615 94.3203 81.9139 90.9708C77.1603 87.4757 73.7163 82.6698 72.0671 77.233C70.4179 71.8446 70.6119 65.9223 72.8917 60.4368C75.1715 54.9029 79.246 50.5825 84.1937 47.9611C89.1413 45.2912 95.0106 44.3203 100.831 45.4854C106.652 46.6504 111.697 49.8058 115.286 54.1262C118.876 58.4951 120.961 64.0291 120.961 69.9999C120.961 70.9708 120.137 71.7475 119.167 71.7475C118.197 71.7475 117.421 70.9708 117.421 69.9999C117.421 64.9029 115.626 60.097 112.57 56.3592C109.514 52.6213 105.197 49.9514 100.201 48.932C95.1561 47.9126 90.1115 48.7863 85.8429 51.0679C81.6228 53.3495 78.0819 57.0388 76.1416 61.7961C74.2014 66.5048 74.0559 71.6019 75.414 76.2621C76.8207 80.8737 79.7796 85.0485 84.0482 87.9126C88.2682 90.7281 93.2644 91.8931 98.0665 91.4077C102.287 91.0194 106.41 89.3203 109.805 86.4077L102.529 79.1262V83.3009C102.529 84.2718 101.704 85.0485 100.783 85.0485C99.8127 85.0485 98.9881 84.2232 98.9881 83.3009V74.8058C99.0366 74.466 99.1336 74.1747 99.2791 73.932Z" fill="#009F9A"></path></g><defs><clipPath id="clip0_263_839"><rect width="158.955" height="50" fill="white" transform="translate(71 45)"></rect></clipPath></defs></svg>