<svg xmlns="http://www.w3.org/2000/svg" width="300" height="140" viewBox="0 0 300 140" fill="none"><rect width="300" height="140" rx="5" fill="white"></rect><g clip-path="url(#clip0_263_632)"><path d="M93.7936 46H110.851C112.483 46 113.799 47.2987 113.799 48.9091V58.6753H123.696C125.328 58.6753 126.644 59.974 126.644 61.5844V78.4156C126.644 80.026 125.328 81.3247 123.696 81.3247H113.799V91.0909C113.799 92.7013 112.483 94 110.851 94H93.7936C92.1616 94 90.8455 92.7013 90.8455 91.0909V81.3247H80.9481C79.3161 81.3247 78 80.026 78 78.4156V61.5844C78 59.974 79.3161 58.6753 80.9481 58.6753H90.8455V48.9091C90.8455 47.2987 92.1616 46 93.7936 46Z" fill="url(#paint0_linear_263_632)"></path><path d="M112.693 47.0908H91.951V53.2726H112.693V47.0908Z" fill="url(#paint1_linear_263_632)"></path><path fill-rule="evenodd" clip-rule="evenodd" d="M83.3698 58.6754C85.5283 56.1299 88.6344 54.4676 92.1616 54.2598C99.7952 54.052 106.165 57.5325 112.062 63.039C112.483 63.4546 111.904 63.8702 111.64 63.7143C111.325 63.5585 109.535 62.3117 109.166 62.1039C108.798 61.8962 108.429 62.4156 108.692 62.6754C108.956 62.9351 111.377 65.2728 111.904 65.7403C112.43 66.2078 111.851 66.6754 111.377 66.4156C110.903 66.1039 108.903 64.3377 108.429 64.078C108.008 63.7663 107.587 64.2858 107.85 64.6494C108.113 65.013 110.798 67.8182 111.114 68.2858C111.43 68.8052 110.745 69.2208 110.377 68.8572C110.008 68.4936 107.324 65.5325 107.008 65.2728C106.692 64.9611 106.218 65.3247 106.271 65.6364C106.376 66.0001 108.64 69.2728 108.85 69.8442C109.061 70.4156 108.271 70.5715 107.955 70.1559C107.639 69.7403 105.112 65.8962 104.797 65.3767C104.428 64.8572 103.954 65.1689 103.849 65.5325C103.796 65.8962 103.954 66.5195 103.902 66.9871C103.902 67.5065 103.902 68.026 103.428 68.078C102.901 68.1819 102.585 67.7663 102.322 66.5195C101.217 61.1169 96.1627 58.4676 90.8981 58.6234H83.3698V58.6754ZM121.275 81.3247C119.116 83.8702 116.01 85.5325 112.483 85.7403C104.849 85.9481 98.4791 82.4676 92.5828 76.9611C92.1616 76.5455 92.7407 76.1299 93.004 76.2858C93.3198 76.4416 95.1098 77.6884 95.4783 77.8962C95.8468 78.1039 96.2153 77.5845 95.9521 77.3247C95.6889 77.065 93.2672 74.7273 92.7407 74.2598C92.2143 73.7923 92.7934 73.3247 93.2672 73.5845C93.741 73.8962 95.7415 75.6104 96.2153 75.9221C96.6365 76.2338 97.0576 75.7663 96.7944 75.3507C96.5312 74.9871 93.8463 72.1819 93.5304 71.7143C93.2145 71.1949 93.8989 70.7793 94.2674 71.1429C94.636 71.5065 97.3209 74.4676 97.6367 74.7273C97.9526 75.039 98.4264 74.6754 98.3738 74.3637C98.2685 74.0001 96.0047 70.7273 95.7942 70.1559C95.5836 69.5845 96.3733 69.4286 96.6891 69.8442C97.005 70.2598 99.532 74.1039 99.8479 74.6234C100.216 75.1429 100.69 74.8312 100.795 74.4676C100.848 74.1039 100.69 73.4806 100.743 73.013C100.743 72.4936 100.743 71.9741 101.217 71.9221C101.743 71.8182 102.059 72.2338 102.322 73.4806C103.428 78.8312 108.482 81.4806 113.746 81.3247H121.275Z" fill="white"></path><path d="M199.664 90.2598H202.348V89.5845H200.453V88.5975H202.138V87.9222H200.453V87.039H202.348V86.3637H199.664V90.2598ZM195.031 87.9222V87.039H196.084C196.452 87.039 196.61 87.2468 196.61 87.4546C196.61 87.6624 196.452 87.8702 196.084 87.8702L195.031 87.9222ZM194.294 90.2598H195.083V88.5975H195.82L196.873 90.2598H197.716L196.663 88.5455C197.137 88.4416 197.452 88.0261 197.452 87.5066C197.452 86.8312 196.926 86.4157 196.189 86.4157H194.346V90.2598H194.294ZM189.608 90.2598H192.293V89.5845H190.398V88.5975H192.083V87.9222H190.398V87.039H192.293V86.3637H189.608V90.2598ZM184.08 90.2598H184.87V88.5975H186.713V90.2598H187.502V86.3637H186.713V87.9222H184.87V86.3637H184.08V90.2598ZM176.973 90.2598H177.763V87.4027L179.711 90.2598H180.553V86.3637H179.764V89.1689L177.816 86.3637H176.973V90.2598ZM172.604 88.5975L173.13 87.2468L173.657 88.5975H172.604ZM174.288 90.2598H175.131L173.499 86.3637H172.709L171.077 90.2598H171.919L172.288 89.2728H173.867L174.288 90.2598ZM167.813 90.3637C168.971 90.3637 169.761 89.5325 169.761 88.3377V88.078H167.655V88.7533H168.971C168.813 89.3248 168.392 89.6884 167.866 89.6884C167.076 89.6884 166.602 89.1689 166.602 88.3377C166.602 87.5066 167.129 86.9871 167.866 86.9871C168.234 86.9871 168.655 87.2468 168.866 87.5585L169.603 87.4027C169.234 86.7274 168.603 86.3118 167.918 86.3118C166.708 86.3118 165.865 87.1429 165.865 88.3377C165.76 89.5325 166.602 90.3637 167.813 90.3637ZM161.969 89.6364C161.18 89.6364 160.706 89.117 160.706 88.2858C160.706 87.5066 161.232 86.9351 161.969 86.9351C162.759 86.9351 163.233 87.4546 163.233 88.2858C163.233 89.117 162.706 89.6364 161.969 89.6364ZM161.969 90.3637C163.18 90.3637 164.023 89.5325 164.023 88.3377C164.023 87.1429 163.18 86.3118 161.969 86.3118C160.759 86.3118 159.916 87.1429 159.916 88.3377C159.916 89.5325 160.706 90.3637 161.969 90.3637ZM155.81 90.2598H158.495V89.5845H156.6V86.3637H155.81V90.2598ZM152.177 90.3637C153.23 90.3637 153.915 89.8962 153.915 89.1689C153.915 87.7663 151.335 88.078 151.335 87.4546C151.335 87.1949 151.651 86.9871 152.177 86.9871C152.651 86.9871 153.02 87.2468 153.072 87.6105L153.757 87.4546C153.599 86.7793 152.914 86.3118 152.125 86.3118C151.177 86.3118 150.545 86.7793 150.545 87.4546C150.545 88.8572 153.125 88.3377 153.125 89.1689C153.125 89.4806 152.704 89.6884 152.125 89.6884C151.493 89.6884 151.072 89.3767 151.072 88.9611H150.335C150.387 89.7923 151.124 90.3637 152.177 90.3637Z" fill="#21262F"></path><path d="M217.405 60.9091H219.353C219.827 60.9091 220.301 61.065 220.616 61.4286C220.985 61.7922 221.143 62.1559 221.143 62.6754V79.1429H217.405V60.9091ZM212.93 78.5195C212.193 78.8832 211.403 79.1429 210.561 79.2468C209.719 79.3507 208.982 79.4026 208.35 79.4026C207.087 79.4026 205.928 79.039 204.981 78.3637C204.033 77.6883 203.507 76.5455 203.507 74.9351C203.507 73.4286 203.928 72.3896 204.823 71.7663C205.718 71.1429 206.823 70.7273 208.192 70.4676C208.35 70.4676 208.561 70.4676 208.824 70.4156C209.087 70.3637 209.35 70.3117 209.666 70.2598C211.246 70.052 212.035 69.5844 212.035 68.9091C212.035 68.3896 211.772 68.026 211.193 67.8702C210.614 67.7143 210.14 67.6104 209.666 67.6104C209.192 67.6104 208.719 67.6624 208.35 67.8182C207.982 67.9741 207.666 68.2338 207.508 68.6494H203.928C204.086 67.5585 204.56 66.6234 205.455 65.9481C206.402 65.1169 207.771 64.7533 209.561 64.7533C211.561 64.7533 213.088 65.065 214.088 65.7403C215.141 66.4676 215.668 67.4546 215.668 68.7013V73.5325C215.668 74.9351 215.405 76.026 214.878 76.8572C214.246 77.5845 213.615 78.1559 212.93 78.5195ZM212.035 72.026C211.509 72.2857 210.824 72.4935 209.929 72.7013C209.087 72.8572 208.666 72.9611 208.666 72.9611C208.034 73.1169 207.56 73.3767 207.244 73.6364C206.981 74 206.876 74.4156 206.876 74.7793C206.876 75.2987 207.034 75.7143 207.35 76.026C207.666 76.2857 208.139 76.4416 208.771 76.4416C209.771 76.4416 210.561 76.1299 211.14 75.6104C211.719 75.039 211.983 74.2598 211.983 73.2728L212.035 72.026ZM202.296 79.0909C201.138 79.1429 199.821 79.1429 198.453 79.039C197.084 78.9351 196.4 78.052 196.4 76.4416V60.8572H198.347C198.821 60.8572 199.242 61.013 199.611 61.3767C199.979 61.7403 200.137 62.1559 200.137 62.6234V65.013H202.348V65.7403C202.348 66.2598 202.191 66.7273 201.822 67.039C201.453 67.4026 201.032 67.5585 200.559 67.5585H200.137V75.4026C200.137 76.026 200.506 76.2857 201.19 76.2857H202.296V79.0909ZM190.872 60.9091H192.82C193.293 60.9091 193.767 61.065 194.136 61.4286C194.504 61.7922 194.662 62.2078 194.662 62.6754V63.7663H190.924L190.872 60.9091ZM190.872 65.013H192.82C193.293 65.013 193.767 65.1689 194.136 65.5325C194.504 65.8961 194.662 66.3117 194.662 66.7793V79.039H190.924L190.872 65.013ZM185.028 72.1299C185.028 70.7273 184.765 69.6883 184.238 68.9611C183.712 68.2338 182.922 67.8702 181.922 67.8702C180.974 67.8702 180.185 68.2338 179.658 68.9611C179.184 69.6364 178.921 70.6754 178.921 72.1299C178.921 73.4806 179.184 74.4676 179.711 75.1429C180.237 75.8702 181.027 76.2338 182.027 76.2338C182.975 76.2338 183.659 75.8702 184.238 75.1429C184.765 74.4156 185.028 73.3767 185.028 72.1299ZM178.974 82.4676C178.974 82.9351 178.816 83.4026 178.447 83.7143C178.079 84.078 177.658 84.2338 177.184 84.2338H175.341V71.0909C175.341 68.5974 176.078 66.9351 177.552 66.052C179.027 65.1689 180.606 64.7013 182.343 64.7013C183.238 64.7013 184.133 64.8572 185.028 65.2208C185.923 65.5845 186.66 66.052 187.187 66.6754C188.239 68.026 188.819 69.7922 188.819 71.9741C188.819 74.2078 188.292 75.9741 187.187 77.3767C186.134 78.7273 184.712 79.4026 183.08 79.4026C182.185 79.4026 181.396 79.2468 180.711 78.9351C179.974 78.5715 179.448 78.052 178.974 77.2728V82.4676ZM160.917 74.4676H164.549C164.602 75.1948 164.865 75.7143 165.339 76.078C165.865 76.4416 166.602 76.5974 167.497 76.5974C168.129 76.5974 168.708 76.4935 169.182 76.2338C169.603 75.9741 169.814 75.6624 169.814 75.2468C169.814 74.6234 169.077 74.1559 167.55 73.8442C166.918 73.7403 166.444 73.6364 166.076 73.5325C164.181 73.065 162.917 72.5455 162.285 71.9221C161.548 71.2987 161.232 70.4156 161.232 69.3767C161.232 68.026 161.759 66.9351 162.812 66.052C163.865 65.2208 165.286 64.8572 167.023 64.8572C168.866 64.8572 170.393 65.2728 171.498 66.052C172.551 66.9351 173.078 68.078 173.183 69.4806H170.866C170.182 69.4806 169.656 69.1689 169.34 68.5974C169.182 68.4416 169.077 68.3377 168.919 68.1819C168.497 67.8702 167.918 67.7143 167.129 67.7143C166.392 67.7143 165.865 67.8182 165.497 68.026C165.181 68.2338 165.023 68.5455 165.023 68.9611C165.023 69.5325 165.97 70 167.813 70.3637C168.024 70.4156 168.234 70.4676 168.392 70.5195C168.55 70.5715 168.708 70.5715 168.866 70.5715C170.709 71.039 171.972 71.5585 172.709 72.1819C173.393 72.8052 173.709 73.6883 173.709 74.7273C173.709 76.2857 173.13 77.4806 171.972 78.3117C170.919 79.0909 169.287 79.4546 167.129 79.4546C165.076 79.4546 163.549 79.039 162.549 78.2598C161.496 77.4286 160.969 76.2857 160.969 74.7273V74.4676H160.917ZM150.967 68.5455C150.23 69.3767 149.861 70.5715 149.966 72.1819C150.019 73.7922 150.335 74.8832 150.861 75.5585C151.072 75.8702 151.44 76.078 151.967 76.2857C152.493 76.4935 153.02 76.4935 153.599 76.3377C154.125 76.1819 154.652 75.7663 155.073 75.1429C155.494 74.5195 155.757 73.4806 155.757 72.078C155.757 70.7793 155.547 69.8442 155.126 69.2208C154.704 68.5974 154.231 68.1819 153.704 68.026C153.178 67.8702 152.651 67.8182 152.072 68.026C151.598 68.078 151.23 68.2857 150.967 68.5455ZM148.387 77.8442C147.65 77.2208 147.123 76.3377 146.755 75.2987C146.439 74.2078 146.281 73.1169 146.281 71.9221C146.281 70.987 146.386 70 146.702 69.065C146.965 68.1299 147.387 67.2987 147.966 66.6754C148.913 65.6364 150.072 65.013 151.546 64.8052C153.02 64.5974 154.336 64.7013 155.494 65.1689C156.863 65.6883 157.863 66.6234 158.495 67.9221C159.127 69.065 159.39 70.4676 159.39 71.9741C159.39 73.1169 159.285 74.052 159.021 74.8832C158.758 75.7143 158.442 76.3896 158.074 76.9611C157.231 78.1039 156.126 78.8312 154.81 79.1429C153.651 79.4546 152.441 79.5065 151.23 79.2468C150.072 78.9351 149.124 78.4676 148.387 77.8442ZM140.49 69.013C139.964 68.2857 139.227 67.9221 138.279 67.9221C137.279 67.9221 136.489 68.2857 135.963 68.9611C135.436 69.6883 135.173 70.6234 135.173 71.8702V79.1429H131.54V60.9091H133.383C133.909 60.9091 134.331 61.065 134.646 61.4286C135.015 61.7922 135.173 62.2078 135.173 62.6754V66.8312C135.805 65.7922 136.752 65.1169 137.91 64.8052C139.069 64.5455 140.227 64.5974 141.28 65.013C142.28 65.4286 143.122 66.1039 143.807 67.039C144.491 67.9741 144.807 69.2208 144.807 70.8312V79.039H141.227V71.8182C141.227 71.2987 141.174 70.7793 141.122 70.3637C141.017 69.8961 140.806 69.4806 140.49 69.013Z" fill="#21262F"></path></g><defs><linearGradient id="paint0_linear_263_632" x1="102.322" y1="94" x2="102.322" y2="46" gradientUnits="userSpaceOnUse"><stop stop-color="#3FA025"></stop><stop offset="1" stop-color="#83CC00"></stop></linearGradient><linearGradient id="paint1_linear_263_632" x1="102.322" y1="53.2609" x2="102.322" y2="41.4897" gradientUnits="userSpaceOnUse"><stop stop-color="#7DC517"></stop><stop offset="1" stop-color="white"></stop></linearGradient><clipPath id="clip0_263_632"><rect width="143.143" height="48" fill="white" transform="translate(78 46)"></rect></clipPath></defs></svg>