<svg xmlns="http://www.w3.org/2000/svg" width="300" height="140" viewBox="0 0 300 140" fill="none"><rect width="300" height="140" rx="5" fill="white"></rect><g clip-path="url(#clip0_263_712)"><path d="M91.0531 44.8296C91.9629 51.8057 95.2046 57.2448 98.5318 62.6641C101.573 67.6203 104.753 72.5536 105.698 78.3736C106.792 85.1133 105.554 91.3078 99.7733 95.8042C92.3176 101.601 80.2308 99.2101 75.0677 91.0549C71.3727 85.2217 71.1231 79.0535 73.7539 72.7966C75.7246 68.1097 78.7791 64.0173 81.8402 59.9413C85.2889 55.3365 88.8689 50.7974 91.0531 44.8296ZM79.3309 82.8175C81.7056 82.8175 83.8339 82.8175 86.1527 82.8175C86.1527 85.0279 86.1527 87.0643 86.1527 89.1991C88.1562 89.1991 89.9561 89.1991 92.0581 89.1991C92.0581 86.9986 92.0581 84.9129 92.0581 82.6368C94.4722 82.6368 96.5874 82.6368 98.8077 82.6368C98.8306 80.6957 99.0343 78.955 98.6303 77.0171C96.4461 77.0171 94.3277 77.0171 91.9662 77.0171C91.9662 74.787 91.9662 72.7605 91.9662 70.6519C89.9035 70.468 88.0971 70.3793 86.0673 70.7209C86.0673 72.8065 86.0673 74.8428 86.0673 76.9022C83.6959 77.2832 81.4592 76.7412 79.3309 77.2569C79.3309 79.1126 79.3309 80.7943 79.3309 82.8175Z" fill="#40CF3B"></path><path d="M101.632 98.6913C103.166 96.448 104.996 94.543 106.332 92.2899C109.728 86.5618 109.692 80.6465 107.485 74.5572C105.6 69.3546 102.647 64.6874 99.8193 59.9545C97.2935 55.7274 94.6955 51.5332 93.7332 46.6492C93.3588 44.7574 93.2931 42.8787 94.0058 41C94.8171 45.4373 97.4348 48.9024 100.23 52.2755C104.864 57.8722 110.08 63.0485 113.407 69.5747C119.112 80.7681 115.246 92.349 103.922 97.7716C103.183 98.1296 102.398 98.3891 101.632 98.6913Z" fill="#2AA5F7"></path><path d="M79.3309 82.8175C79.3309 80.7943 79.3309 79.1159 79.3309 77.2569C81.4593 76.7413 83.696 77.2832 86.0673 76.9022C86.0673 74.8396 86.0673 72.8065 86.0673 70.7209C88.0971 70.3793 89.9036 70.468 91.9662 70.6519C91.9662 72.7605 91.9662 74.787 91.9662 77.0172C94.3277 77.0172 96.4495 77.0172 98.6303 77.0172C99.0343 78.955 98.8307 80.6957 98.8077 82.6368C96.5874 82.6368 94.4722 82.6368 92.0582 82.6368C92.0582 84.913 92.0582 86.9986 92.0582 89.1992C89.9561 89.1992 88.1562 89.1992 86.1527 89.1992C86.1527 87.0643 86.1527 85.0279 86.1527 82.8175C83.8339 82.8175 81.7056 82.8175 79.3309 82.8175Z" fill="#FEFEFE"></path><path d="M133.958 66.0013C135.052 66.8289 135.735 67.9489 136.001 69.3645H132.542C132.312 68.8817 131.964 68.4942 131.491 68.2084C131.022 67.9227 130.453 67.7781 129.79 67.7781C128.759 67.7781 127.931 68.1263 127.307 68.8193C126.683 69.5123 126.371 70.4517 126.371 71.6374C126.371 72.9249 126.699 73.9102 127.356 74.5967C128.013 75.2831 128.946 75.628 130.154 75.628C130.93 75.628 131.613 75.4145 132.197 74.9875C132.782 74.5605 133.196 73.9529 133.439 73.1646H129.314V70.8163H136.172V74.0449C135.915 74.8331 135.508 75.5656 134.95 76.2422C134.388 76.9188 133.672 77.464 132.802 77.8844C131.928 78.3048 130.933 78.515 129.813 78.515C128.45 78.515 127.261 78.226 126.239 77.6446C125.221 77.0666 124.433 76.252 123.881 75.2076C123.326 74.1631 123.05 72.9741 123.05 71.6341C123.05 70.2973 123.326 69.1051 123.881 68.0606C124.436 67.0162 125.218 66.2049 126.23 65.6236C127.241 65.0455 128.424 64.7532 129.773 64.7532C131.468 64.7597 132.864 65.1736 133.958 66.0013Z" fill="black"></path><path d="M145.831 68.2642C146.665 68.7043 147.322 69.3382 147.798 70.1659C148.275 70.9936 148.514 71.9625 148.514 73.0693C148.514 74.1762 148.275 75.1451 147.798 75.9728C147.322 76.8004 146.665 77.4343 145.831 77.8745C144.997 78.3146 144.051 78.5346 142.993 78.5346C141.936 78.5346 140.987 78.3146 140.146 77.8745C139.305 77.4343 138.645 76.8004 138.168 75.9728C137.692 75.1451 137.452 74.1762 137.452 73.0693C137.452 71.9625 137.692 70.9936 138.168 70.1659C138.645 69.3382 139.305 68.7043 140.146 68.2642C140.987 67.8241 141.936 67.604 142.993 67.604C144.051 67.604 144.997 67.8241 145.831 68.2642ZM141.417 71.1118C140.99 71.565 140.776 72.2154 140.776 73.0693C140.776 73.9233 140.99 74.5736 141.417 75.017C141.844 75.4637 142.369 75.687 142.993 75.687C143.617 75.687 144.14 75.4637 144.56 75.017C144.98 74.5703 145.191 73.9233 145.191 73.0693C145.191 72.2154 144.98 71.565 144.56 71.1118C144.14 70.6585 143.617 70.4352 142.993 70.4352C142.369 70.4319 141.844 70.6585 141.417 71.1118Z" fill="black"></path><path d="M167.121 68.8389C167.873 69.6469 168.247 70.7702 168.247 72.2121V78.3999H164.999V72.5898C164.999 71.9165 164.818 71.3909 164.454 71.0132C164.089 70.6388 163.597 70.4483 162.973 70.4483C162.322 70.4483 161.81 70.6487 161.435 71.0494C161.061 71.4501 160.871 72.015 160.871 72.7409V78.3967H157.603V72.5898C157.603 71.9165 157.425 71.3909 157.067 71.0132C156.709 70.6388 156.22 70.4483 155.596 70.4483C154.945 70.4483 154.43 70.6454 154.049 71.0395C153.668 71.4336 153.477 72.0019 153.477 72.7409V78.3967H150.209V67.7386H153.477V69.5549C153.756 68.9572 154.187 68.4842 154.768 68.1426C155.346 67.7978 156.026 67.627 156.801 67.627C157.616 67.627 158.335 67.8142 158.959 68.1919C159.583 68.5663 160.053 69.105 160.371 69.8046C160.739 69.1411 161.248 68.6123 161.889 68.2182C162.532 67.824 163.242 67.627 164.017 67.627C165.337 67.6237 166.369 68.0277 167.121 68.8389Z" fill="black"></path><path d="M180.452 73.6606H173.062C173.102 74.462 173.305 75.0401 173.673 75.3882C174.041 75.7397 174.514 75.9138 175.086 75.9138C175.568 75.9138 175.969 75.7922 176.288 75.5492C176.606 75.3061 176.817 74.9941 176.918 74.6131H180.377C180.236 75.3653 179.93 76.0353 179.461 76.6298C178.991 77.221 178.39 77.6874 177.664 78.0257C176.938 78.364 176.13 78.5315 175.237 78.5315C174.192 78.5315 173.266 78.3114 172.458 77.8713C171.65 77.4312 171.016 76.7973 170.556 75.9696C170.097 75.1419 169.87 74.173 169.87 73.0661C169.87 71.9461 170.097 70.974 170.547 70.1528C171 69.3317 171.634 68.7011 172.448 68.261C173.263 67.8209 174.192 67.6008 175.237 67.6008C176.294 67.6008 177.224 67.8176 178.025 68.2511C178.827 68.6847 179.447 69.2923 179.887 70.074C180.328 70.8557 180.548 71.7589 180.548 72.7771C180.548 73.0497 180.518 73.342 180.452 73.6606ZM176.682 70.7112C176.294 70.3598 175.811 70.1857 175.24 70.1857C174.642 70.1857 174.143 70.363 173.749 70.7211C173.355 71.0791 173.131 71.6013 173.079 72.2877H177.244C177.257 71.5849 177.069 71.0593 176.682 70.7112Z" fill="black"></path><path d="M188.401 68.159C188.985 68.5302 189.412 69.0327 189.682 69.6666V64.2637H192.95V78.3999H189.682V76.472C189.416 77.1091 188.989 77.6117 188.401 77.9795C187.816 78.3507 187.113 78.5346 186.299 78.5346C185.418 78.5346 184.633 78.3145 183.94 77.8744C183.247 77.4343 182.699 76.8004 182.298 75.9727C181.898 75.145 181.697 74.1761 181.697 73.0693C181.697 71.9493 181.898 70.9771 182.298 70.156C182.699 69.3349 183.247 68.7042 183.94 68.2641C184.633 67.824 185.422 67.604 186.299 67.604C187.113 67.604 187.813 67.7912 188.401 68.159ZM185.658 71.1577C185.231 71.6175 185.018 72.2547 185.018 73.0693C185.018 73.8838 185.231 74.521 185.658 74.9808C186.085 75.4406 186.647 75.6673 187.35 75.6673C188.036 75.6673 188.601 75.4308 189.041 74.9611C189.481 74.4914 189.701 73.8608 189.701 73.0693C189.701 72.2679 189.481 71.634 189.041 71.1676C188.601 70.7045 188.039 70.4713 187.35 70.4713C186.65 70.4713 186.085 70.7012 185.658 71.1577Z" fill="black"></path><path d="M195.429 63.5083C195.787 63.1832 196.257 63.0222 196.842 63.0222C197.426 63.0222 197.899 63.1832 198.254 63.5083C198.612 63.8335 198.789 64.244 198.789 64.74C198.789 65.2228 198.612 65.6268 198.254 65.9519C197.896 66.2771 197.426 66.438 196.842 66.438C196.257 66.438 195.784 66.2771 195.429 65.9519C195.071 65.6268 194.894 65.2228 194.894 64.74C194.894 64.244 195.071 63.8335 195.429 63.5083ZM198.468 67.7387V78.3967H195.199V67.7387H198.468Z" fill="black"></path><path d="M208.991 68.7438C209.92 69.5025 210.505 70.5437 210.748 71.8673H207.29C207.188 71.4075 206.978 71.0528 206.659 70.7966C206.34 70.5404 205.94 70.4156 205.457 70.4156C204.885 70.4156 204.412 70.6422 204.045 71.0922C203.673 71.5454 203.49 72.2023 203.49 73.0694C203.49 73.9365 203.673 74.5934 204.045 75.0467C204.412 75.4999 204.885 75.7233 205.457 75.7233C205.94 75.7233 206.34 75.5952 206.659 75.3423C206.978 75.0861 207.188 74.7314 207.29 74.2715H210.748C210.505 75.5952 209.92 76.6363 208.991 77.395C208.061 78.1537 206.909 78.5315 205.532 78.5315C204.488 78.5315 203.562 78.3114 202.754 77.8713C201.946 77.4312 201.312 76.7973 200.852 75.9696C200.392 75.1419 200.166 74.173 200.166 73.0661C200.166 71.9461 200.392 70.974 200.842 70.1528C201.296 69.3317 201.929 68.7011 202.744 68.261C203.558 67.8209 204.488 67.6008 205.532 67.6008C206.909 67.6041 208.061 67.9851 208.991 68.7438Z" fill="black"></path><path d="M218.601 68.1592C219.186 68.5303 219.619 69.0328 219.899 69.6667V67.7388H223.147V78.3968H219.899V76.4688C219.619 77.106 219.186 77.6085 218.601 77.9764C218.017 78.3475 217.314 78.5315 216.499 78.5315C215.619 78.5315 214.834 78.3114 214.141 77.8713C213.448 77.4312 212.899 76.7973 212.499 75.9696C212.098 75.1419 211.898 74.173 211.898 73.0661C211.898 71.9461 212.098 70.974 212.499 70.1528C212.899 69.3317 213.448 68.7011 214.141 68.261C214.834 67.8209 215.622 67.6008 216.499 67.6008C217.314 67.6041 218.013 67.7913 218.601 68.1592ZM215.859 71.1579C215.432 71.6177 215.218 72.2549 215.218 73.0694C215.218 73.884 215.432 74.5212 215.859 74.981C216.286 75.4408 216.847 75.6674 217.55 75.6674C218.237 75.6674 218.802 75.4309 219.242 74.9613C219.682 74.4916 219.902 73.861 219.902 73.0694C219.902 72.268 219.682 71.6341 219.242 71.1677C218.802 70.7046 218.24 70.4714 217.55 70.4714C216.847 70.4714 216.286 70.7013 215.859 71.1579Z" fill="black"></path><path d="M228.668 64.2637V78.3999H225.4V64.2637H228.668Z" fill="black"></path><path d="M151.007 81.9933C151.553 82.4137 151.92 82.9786 152.111 83.6979H150.958C150.8 83.2907 150.548 82.9688 150.203 82.7323C149.858 82.4958 149.434 82.3743 148.932 82.3743C148.531 82.3743 148.176 82.4728 147.861 82.6699C147.546 82.867 147.299 83.1461 147.119 83.5107C146.938 83.8753 146.846 84.3023 146.846 84.7916C146.846 85.2745 146.938 85.6981 147.119 86.0627C147.299 86.4273 147.546 86.7098 147.861 86.9035C148.176 87.1006 148.531 87.1991 148.932 87.1991C149.434 87.1991 149.858 87.0809 150.203 86.8411C150.548 86.6047 150.8 86.2828 150.958 85.8854H152.111C151.92 86.6014 151.553 87.1696 151.007 87.5834C150.462 88.0005 149.776 88.2075 148.951 88.2075C148.317 88.2075 147.756 88.0629 147.266 87.7739C146.777 87.4849 146.399 87.0809 146.133 86.5652C145.867 86.0496 145.733 85.4551 145.733 84.7916C145.733 84.1249 145.867 83.5337 146.133 83.018C146.399 82.5024 146.777 82.0951 147.266 81.8028C147.756 81.5105 148.317 81.366 148.951 81.366C149.776 81.366 150.462 81.5729 151.007 81.9933Z" fill="#2AA5F7"></path><path d="M154.282 81.1064V88.1516H153.198V81.1064H154.282Z" fill="#2AA5F7"></path><path d="M155.632 80.9258C155.76 80.8042 155.927 80.7451 156.138 80.7451C156.348 80.7451 156.515 80.8042 156.647 80.9258C156.778 81.0473 156.841 81.1984 156.841 81.3823C156.841 81.5662 156.775 81.714 156.647 81.829C156.515 81.9439 156.348 81.9998 156.138 81.9998C155.927 81.9998 155.76 81.9439 155.632 81.829C155.504 81.714 155.441 81.5662 155.441 81.3823C155.441 81.1984 155.507 81.0473 155.632 80.9258ZM156.68 82.9063V88.1515H155.596V82.9063H156.68Z" fill="#2AA5F7"></path><path d="M162.391 83.412C162.759 83.8061 162.943 84.3678 162.943 85.0969V88.1515H161.859V85.2086C161.859 84.7389 161.738 84.3743 161.498 84.1182C161.258 83.862 160.926 83.7339 160.509 83.7339C160.079 83.7339 159.731 83.8718 159.471 84.1477C159.212 84.4236 159.081 84.8276 159.081 85.363V88.1515H157.997V82.9062H159.081V84.059C159.218 83.6649 159.455 83.3594 159.783 83.146C160.112 82.9292 160.493 82.8208 160.926 82.8208C161.534 82.8208 162.023 83.0179 162.391 83.412Z" fill="#2AA5F7"></path><path d="M164.247 80.9258C164.375 80.8042 164.543 80.7451 164.753 80.7451C164.963 80.7451 165.13 80.8042 165.262 80.9258C165.393 81.0473 165.456 81.1984 165.456 81.3823C165.456 81.5662 165.39 81.714 165.262 81.829C165.13 81.9439 164.963 81.9998 164.753 81.9998C164.543 81.9998 164.375 81.9439 164.247 81.829C164.119 81.714 164.056 81.5662 164.056 81.3823C164.056 81.1984 164.119 81.0473 164.247 80.9258ZM165.295 82.9063V88.1515H164.211V82.9063H165.295Z" fill="#2AA5F7"></path><path d="M170.625 83.3793C171.069 83.7373 171.345 84.2234 171.453 84.8409H170.3C170.238 84.5125 170.083 84.253 169.837 84.0658C169.594 83.8786 169.285 83.7866 168.917 83.7866C168.497 83.7866 168.149 83.9344 167.87 84.23C167.59 84.5256 167.449 84.9592 167.449 85.5306C167.449 86.1021 167.587 86.5357 167.87 86.8346C168.149 87.1335 168.497 87.2813 168.917 87.2813C169.285 87.2813 169.591 87.186 169.837 86.9955C170.08 86.805 170.234 86.5455 170.3 86.2138H171.453C171.345 86.828 171.069 87.3174 170.625 87.6787C170.182 88.04 169.62 88.2206 168.94 88.2206C168.431 88.2206 167.985 88.1122 167.594 87.8954C167.203 87.6787 166.897 87.3699 166.674 86.9627C166.451 86.5554 166.342 86.0759 166.342 85.5241C166.342 84.9789 166.454 84.5026 166.674 84.0953C166.897 83.6881 167.203 83.3793 167.594 83.1626C167.985 82.9458 168.431 82.8374 168.94 82.8374C169.62 82.8407 170.182 83.018 170.625 83.3793Z" fill="#2AA5F7"></path><path d="M179.782 81.9933C180.328 82.4137 180.695 82.9786 180.886 83.6979H179.733C179.575 83.2907 179.323 82.9688 178.978 82.7323C178.633 82.4958 178.209 82.3743 177.707 82.3743C177.306 82.3743 176.951 82.4728 176.636 82.6699C176.321 82.867 176.074 83.1461 175.894 83.5107C175.713 83.8753 175.621 84.3023 175.621 84.7916C175.621 85.2745 175.713 85.6981 175.894 86.0627C176.074 86.4273 176.321 86.7098 176.636 86.9035C176.951 87.1006 177.306 87.1991 177.707 87.1991C178.209 87.1991 178.633 87.0809 178.978 86.8411C179.323 86.6047 179.575 86.2828 179.733 85.8854H180.886C180.695 86.6014 180.328 87.1696 179.782 87.5834C179.237 88.0005 178.551 88.2075 177.726 88.2075C177.092 88.2075 176.531 88.0629 176.041 87.7739C175.552 87.4849 175.174 87.0809 174.908 86.5652C174.642 86.0496 174.508 85.4551 174.508 84.7916C174.508 84.1249 174.642 83.5337 174.908 83.018C175.174 82.5024 175.552 82.0951 176.041 81.8028C176.531 81.5105 177.092 81.366 177.726 81.366C178.551 81.366 179.237 81.5729 179.782 81.9933Z" fill="#2AA5F7"></path><path d="M186.804 85.7441H182.768C182.788 86.2828 182.935 86.6835 183.215 86.943C183.494 87.2024 183.839 87.3338 184.252 87.3338C184.614 87.3338 184.919 87.2418 185.172 87.0579C185.422 86.874 185.576 86.6309 185.635 86.3255H186.798C186.729 86.6933 186.581 87.0218 186.361 87.3075C186.138 87.5933 185.849 87.8166 185.494 87.9776C185.139 88.1385 184.742 88.2206 184.305 88.2206C183.796 88.2206 183.349 88.1122 182.958 87.8954C182.568 87.6787 182.262 87.3699 182.039 86.9627C181.815 86.5554 181.707 86.0759 181.707 85.5241C181.707 84.9789 181.819 84.5026 182.039 84.0953C182.262 83.6881 182.568 83.3793 182.958 83.1626C183.349 82.9458 183.796 82.8374 184.305 82.8374C184.821 82.8374 185.267 82.9425 185.652 83.156C186.036 83.3695 186.332 83.6618 186.538 84.0329C186.745 84.4041 186.847 84.8179 186.847 85.2745C186.844 85.4551 186.831 85.6095 186.804 85.7441ZM185.573 84.3877C185.441 84.1545 185.264 83.9837 185.041 83.872C184.814 83.7603 184.571 83.7045 184.302 83.7045C183.878 83.7045 183.52 83.8359 183.234 84.0953C182.949 84.3548 182.794 84.7391 182.768 85.2482H185.747C185.763 84.9066 185.704 84.6176 185.573 84.3877Z" fill="#2AA5F7"></path><path d="M192.29 83.412C192.657 83.8061 192.841 84.3678 192.841 85.0969V88.1515H191.758V85.2086C191.758 84.7389 191.636 84.3743 191.396 84.1182C191.156 83.862 190.825 83.7339 190.408 83.7339C189.977 83.7339 189.629 83.8718 189.37 84.1477C189.11 84.4236 188.979 84.8276 188.979 85.363V88.1515H187.895V82.9062H188.979V84.059C189.117 83.6649 189.353 83.3594 189.682 83.146C190.01 82.9292 190.391 82.8208 190.825 82.8208C191.432 82.8208 191.922 83.0179 192.29 83.412Z" fill="#2AA5F7"></path><path d="M196.743 87.2088V88.1515H196.077C195.518 88.1515 195.094 88.0168 194.805 87.7475C194.516 87.4782 194.372 87.0282 194.372 86.4009V83.8291H193.623V82.9062H194.375V81.6023H195.469V82.9062H196.733V83.8291H195.469V86.4173C195.469 86.7162 195.525 86.9231 195.636 87.0348C195.748 87.1497 195.942 87.2056 196.221 87.2056H196.743V87.2088Z" fill="#2AA5F7"></path><path d="M202.596 85.7441H198.56C198.579 86.2828 198.727 86.6835 199.006 86.943C199.285 87.2024 199.63 87.3338 200.044 87.3338C200.405 87.3338 200.711 87.2418 200.964 87.0579C201.213 86.874 201.368 86.6309 201.427 86.3255H202.59C202.521 86.6933 202.373 87.0218 202.153 87.3075C201.929 87.5933 201.64 87.8166 201.286 87.9776C200.931 88.1385 200.533 88.2206 200.097 88.2206C199.588 88.2206 199.141 88.1122 198.75 87.8954C198.359 87.6787 198.054 87.3699 197.83 86.9627C197.607 86.5554 197.499 86.0759 197.499 85.5241C197.499 84.9789 197.61 84.5026 197.83 84.0953C198.054 83.6881 198.359 83.3793 198.75 83.1626C199.141 82.9458 199.588 82.8374 200.097 82.8374C200.609 82.8374 201.059 82.9425 201.443 83.156C201.828 83.3695 202.123 83.6618 202.33 84.0329C202.537 84.4041 202.639 84.8179 202.639 85.2745C202.636 85.4551 202.622 85.6095 202.596 85.7441ZM201.364 84.3877C201.233 84.1545 201.056 83.9837 200.832 83.872C200.606 83.7603 200.363 83.7045 200.093 83.7045C199.67 83.7045 199.312 83.8359 199.026 84.0953C198.74 84.3548 198.586 84.7391 198.56 85.2482H201.539C201.555 84.9066 201.496 84.6176 201.364 84.3877Z" fill="#2AA5F7"></path><path d="M205.529 83.1197C205.858 82.9193 206.239 82.8208 206.672 82.8208V83.9999H206.347C205.871 83.9999 205.49 84.1149 205.201 84.3481C204.912 84.5813 204.767 84.9623 204.767 85.4943V88.1515H203.683V82.9062H204.767V83.9342C204.944 83.5926 205.197 83.32 205.529 83.1197Z" fill="#2AA5F7"></path></g><defs><clipPath id="clip0_263_712"><rect width="156.668" height="58" fill="white" transform="translate(72 41)"></rect></clipPath></defs></svg>