<svg xmlns="http://www.w3.org/2000/svg" width="300" height="140" viewBox="0 0 300 140" fill="none"><rect width="300" height="140" rx="5" fill="white"></rect><g clip-path="url(#clip0_263_644)"><path d="M110.92 82.7941H89.8689V79.9749C89.8689 77.6082 91.7701 75.6765 94.138 75.6765H115.19V78.4957C115.19 80.8798 113.271 82.7941 110.92 82.7941Z" fill="url(#paint0_linear_263_644)"></path><path d="M98.9947 91.9999V70.8038C98.9947 68.437 100.896 66.5054 103.264 66.5054H106.064V87.7015C106.064 90.0682 104.163 91.9999 101.795 91.9999H98.9947Z" fill="url(#paint1_linear_263_644)"></path><path d="M88.5554 89.8246C86.0666 88.415 83.6814 86.7618 81.5037 84.8127C80.4148 83.8556 79.3951 82.7941 78.4445 81.6629C77.4939 80.5318 76.6297 79.331 75.8692 78.0258L75.3334 77.0339L74.8494 76.0245C74.5383 75.3284 74.2618 74.5975 74.0371 73.884C73.5705 72.4397 73.2421 70.943 73.1038 69.4116C72.81 66.3662 73.2248 63.1642 74.5556 60.2754L75.0914 59.2138L75.7136 58.1871L75.7482 58.1175L75.8173 58.0131L75.9038 57.9087L76.0593 57.6824L76.3704 57.2474C76.647 56.9341 76.9235 56.6035 77.2 56.2902C78.2889 55.1243 79.5679 54.1324 80.9333 53.3492C82.2987 52.5487 83.7851 51.9571 85.3061 51.5568C86.8271 51.1565 88.4172 50.9477 90.0073 50.9651C90.4048 50.9651 90.8023 50.9999 91.1998 51.0173L92.3233 51.1391C92.7208 51.2088 93.1529 51.2784 93.5331 51.348C93.9134 51.435 94.3109 51.522 94.6739 51.6264C96.1948 52.0441 97.6467 52.6357 99.0294 53.4015C101.777 54.8981 104.18 56.9689 106.098 59.4575L103.35 59.2486C104.405 58.2393 105.563 57.3692 106.807 56.6209C108.051 55.8726 109.365 55.2635 110.73 54.811C113.461 53.9235 116.417 53.5581 119.303 54.0279C119.666 54.0627 120.012 54.1672 120.375 54.2368C120.738 54.3064 121.083 54.3934 121.429 54.5152L121.948 54.6718L122.017 54.6892L122.051 54.7066L122.155 54.7414L122.276 54.7936L122.501 54.8807L122.967 55.0547L123.192 55.1417L123.451 55.2635C123.797 55.4375 124.16 55.5941 124.488 55.7682L125.439 56.325C126.044 56.7253 126.649 57.143 127.202 57.6128C129.431 59.4749 131.142 61.9112 132.11 64.6608C132.594 66.0356 132.888 67.48 132.94 68.9244L132.923 70.0207V70.1599V70.2644V70.334L132.905 70.5776L132.854 71.0649C132.75 71.8306 132.612 72.5267 132.404 73.2054C132.024 74.5801 131.454 75.8853 130.762 77.0861C130.071 78.2868 129.259 79.418 128.36 80.4447C126.528 82.4808 124.402 84.1689 122.155 85.561C119.908 86.9706 117.557 88.154 115.19 89.3026C117.35 87.806 119.545 86.3616 121.585 84.7431C123.607 83.1247 125.508 81.3671 126.994 79.3136C127.738 78.2868 128.394 77.2253 128.93 76.0942C129.466 74.9804 129.863 73.797 130.105 72.6137C130.226 72.022 130.296 71.4129 130.347 70.8734L130.365 70.3862L130.382 70.1425V70.0729V70.0381C130.382 70.0033 130.382 70.0729 130.382 70.0555V70.0381V69.9337L130.347 69.0462C130.226 67.8802 129.933 66.7143 129.483 65.6353C129.034 64.539 128.429 63.5122 127.703 62.5725C126.96 61.6502 126.13 60.8149 125.197 60.084C124.748 59.7185 124.246 59.4053 123.745 59.092L122.985 58.6744L122.241 58.3437L122.051 58.2567L121.827 58.1697L121.36 58.0131L121.135 57.9261L121.014 57.8913H120.997C120.928 57.8739 121.066 57.9087 121.049 57.9087H121.014L120.962 57.8913L120.548 57.7868C120.271 57.7172 119.994 57.6302 119.701 57.5954C119.407 57.5432 119.13 57.4736 118.836 57.4562C116.538 57.1604 114.135 57.491 111.923 58.2393C110.8 58.6222 109.745 59.1442 108.743 59.7533C107.74 60.3624 106.807 61.0933 105.96 61.8938L104.474 63.3034L103.195 61.685C101.587 59.6315 99.5652 57.8565 97.301 56.6035C96.1603 55.977 94.9677 55.4723 93.7405 55.1069C93.4294 55.0025 93.1183 54.9503 92.8072 54.8633C92.4961 54.7936 92.2196 54.7414 91.9085 54.6892L90.906 54.55C90.5949 54.5326 90.2665 54.4978 89.9554 54.4978C87.4147 54.4108 84.8221 55.0199 82.5753 56.2206C81.4518 56.8123 80.3975 57.578 79.4988 58.4655L78.8766 59.1094L78.2371 59.8925L77.7013 60.6756L77.2173 61.511C76.6124 62.6421 76.1976 63.8951 75.921 65.1829C75.6618 66.4706 75.5581 67.8106 75.5926 69.1506C75.6272 70.4906 75.8173 71.848 76.1284 73.1706C76.3013 73.8492 76.4914 74.4583 76.7161 75.1022L77.0963 76.0767L77.5284 77.0165C78.1161 78.2694 78.8247 79.4702 79.6198 80.6188C80.4148 81.7673 81.3136 82.8637 82.2469 83.9252C84.1308 86.1701 86.2913 88.0496 88.5554 89.8246Z" fill="url(#paint2_linear_263_644)"></path><path d="M143.621 76.7729V61.25H149.705C154.527 61.25 157.88 64.3476 157.88 68.9941C157.88 73.6927 154.527 76.7729 149.722 76.7729H143.621ZM154.527 68.9941C154.527 66.2793 152.868 64.1562 149.722 64.1562H146.905V73.8667H149.705C152.747 73.8667 154.527 71.6566 154.527 68.9941Z" fill="#00A995"></path><path d="M160.144 76.7731V65.5311H163.083V67.0451C163.895 66.0706 165.26 65.2527 166.643 65.2527V68.1415C166.436 68.0893 166.176 68.0719 165.831 68.0719C164.863 68.0719 163.567 68.6287 163.083 69.3596V76.7905H160.144V76.7731Z" fill="#00A995"></path><path d="M175.994 76.7729V75.3633C175.233 76.1987 173.885 77.0688 172.07 77.0688C169.616 77.0688 168.458 75.7114 168.458 73.5361V65.531H171.396V72.3527C171.396 73.919 172.208 74.4236 173.453 74.4236C174.594 74.4236 175.492 73.7971 175.994 73.1358V65.531H178.932V76.7729H175.994Z" fill="#00A995"></path><path d="M181.611 79.6619L182.924 77.5388C183.823 78.5134 185.033 78.9136 186.416 78.9136C187.833 78.9136 189.509 78.3045 189.509 76.0248V74.9285C188.628 76.0422 187.435 76.6687 186.035 76.6687C183.27 76.6687 181.11 74.7196 181.11 70.9607C181.11 67.2888 183.218 65.2354 186.035 65.2354C187.384 65.2354 188.593 65.7922 189.509 66.9582V65.5138H192.448V76.0074C192.448 80.271 189.164 81.3151 186.416 81.3151C184.532 81.3325 183.028 80.8975 181.611 79.6619ZM189.527 72.788V69.1335C189.026 68.42 187.954 67.8805 187.003 67.8805C185.31 67.8805 184.169 69.0465 184.169 70.9781C184.169 72.9098 185.327 74.0758 187.003 74.0758C187.954 74.0758 189.008 73.5189 189.527 72.788Z" fill="#00A995"></path><path d="M194.383 74.5803L196.181 72.0048C197.27 73.1533 198.946 74.1278 201.072 74.1278C202.904 74.1278 203.751 73.3099 203.751 72.405C203.751 69.7076 194.885 71.5871 194.885 65.7573C194.885 63.1818 197.097 61.0413 200.727 61.0413C203.181 61.0413 205.203 61.7896 206.741 63.1992L204.909 65.6703C203.665 64.5043 202.006 63.9649 200.433 63.9649C199.05 63.9649 198.255 64.5739 198.255 65.4963C198.255 67.9326 207.104 66.2794 207.104 72.0744C207.104 74.911 205.065 77.0514 200.934 77.0514C197.961 77.0514 195.835 76.0595 194.383 74.5803Z" fill="#006699"></path><path d="M209.524 73.9538V68.124H207.675V65.5311H209.524V62.4683H212.462V65.5485H214.726V68.124H212.462V73.1707C212.462 73.8842 212.825 74.4237 213.482 74.4237C213.914 74.4237 214.329 74.2671 214.502 74.0756L215.124 76.338C214.692 76.7382 213.897 77.0515 212.67 77.0515C210.596 77.0515 209.524 75.9899 209.524 73.9538Z" fill="#006699"></path><path d="M216.005 71.152C216.005 67.9674 218.218 65.27 221.899 65.27C225.598 65.27 227.81 67.9674 227.81 71.152C227.81 74.3367 225.598 77.0688 221.899 77.0688C218.235 77.0514 216.005 74.3367 216.005 71.152ZM224.768 71.152C224.768 69.4118 223.748 67.8978 221.899 67.8978C220.067 67.8978 219.065 69.4118 219.065 71.152C219.065 72.9271 220.084 74.4411 221.899 74.4411C223.748 74.4237 224.768 72.9097 224.768 71.152Z" fill="#006699"></path><path d="M230.022 76.7731V65.5311H232.961V67.0451C233.773 66.0706 235.138 65.2527 236.521 65.2527V68.1415C236.314 68.0893 236.054 68.0719 235.709 68.0719C234.741 68.0719 233.445 68.6287 232.961 69.3596V76.7905H230.022V76.7731Z" fill="#006699"></path><path d="M237.627 71.152C237.627 67.8978 240.03 65.27 243.4 65.27C246.753 65.27 249 67.776 249 71.4305V72.1266H240.704C240.911 73.5013 242.017 74.6325 243.919 74.6325C244.869 74.6325 246.165 74.2322 246.874 73.5361L248.188 75.4852C247.082 76.512 245.319 77.0514 243.59 77.0514C240.185 77.0514 237.627 74.7543 237.627 71.152ZM243.4 67.6715C241.568 67.6715 240.79 68.9593 240.669 70.0731H246.165C246.079 68.9941 245.336 67.6715 243.4 67.6715Z" fill="#006699"></path><path d="M155.098 87.9104V84.0297H154.199V83.5076H155.098V82.011H155.685V83.5076H156.791V84.0297H155.685V87.8234C155.685 88.2584 155.858 88.5717 156.238 88.5717C156.498 88.5717 156.722 88.4499 156.843 88.3106L157.068 88.7631C156.861 88.9719 156.601 89.0938 156.152 89.0938C155.443 89.0938 155.098 88.6587 155.098 87.9104Z" fill="#00386C"></path><path d="M163.739 88.9546V88.3107C163.256 88.8328 162.651 89.0938 161.907 89.0938C160.974 89.0938 160.006 88.4499 160.006 87.2839C160.006 86.1006 160.957 85.4741 161.907 85.4741C162.651 85.4741 163.273 85.7177 163.739 86.2572V85.1435C163.739 84.3255 163.083 83.8905 162.288 83.8905C161.596 83.8905 161.078 84.1341 160.577 84.691L160.248 84.2907C160.801 83.6817 161.441 83.3684 162.339 83.3684C163.446 83.3684 164.31 83.8905 164.31 85.1086V88.9372H163.739V88.9546ZM163.739 87.8756V86.6749C163.359 86.1702 162.754 85.9266 162.097 85.9266C161.216 85.9266 160.611 86.5008 160.611 87.2839C160.611 88.0496 161.199 88.6239 162.097 88.6239C162.754 88.6239 163.359 88.3803 163.739 87.8756Z" fill="#00386C"></path><path d="M168.389 90.3467L168.717 89.8768C169.184 90.4337 169.702 90.6425 170.515 90.6425C171.483 90.6425 172.347 90.1379 172.347 88.9197V88.0496C171.967 88.6065 171.275 89.0763 170.463 89.0763C169.028 89.0763 168.06 87.98 168.06 86.2397C168.06 84.5169 169.028 83.3857 170.463 83.3857C171.241 83.3857 171.915 83.786 172.347 84.3951V83.5076H172.934V88.9197C172.934 90.5729 171.811 91.182 170.497 91.182C169.616 91.1646 169.028 90.9906 168.389 90.3467ZM172.364 87.5449V84.8997C172.053 84.3777 171.327 83.9078 170.584 83.9078C169.391 83.9078 168.683 84.9172 168.683 86.2397C168.683 87.5623 169.374 88.5542 170.584 88.5542C171.344 88.5368 172.053 88.067 172.364 87.5449Z" fill="#00386C"></path><path d="M177.013 88.9546V81.4368H177.601V88.9546H177.013Z" fill="#00386C"></path><path d="M181.49 82.2024C181.49 81.9588 181.697 81.7673 181.939 81.7673C182.181 81.7673 182.389 81.9588 182.389 82.2024C182.389 82.446 182.181 82.6549 181.939 82.6549C181.697 82.6549 181.49 82.446 181.49 82.2024ZM181.645 88.9545V83.5076H182.233V88.9545H181.645Z" fill="#00386C"></path><path d="M189.942 88.9545V85.2652C189.942 84.2211 189.423 83.9078 188.628 83.9078C187.937 83.9078 187.211 84.3429 186.865 84.8475V88.9719H186.277V83.525H186.865V84.3429C187.263 83.873 188.023 83.3857 188.818 83.3857C189.924 83.3857 190.529 83.9252 190.529 85.1608V88.9719H189.942V88.9545Z" fill="#00386C"></path><path d="M194.28 86.2224C194.28 84.6388 195.386 83.3684 196.872 83.3684C198.514 83.3684 199.43 84.6736 199.43 86.2572V86.4138H194.902C194.954 87.5972 195.749 88.5717 197.028 88.5717C197.719 88.5717 198.341 88.3107 198.791 87.8234L199.085 88.2063C198.549 88.7631 197.858 89.0938 196.959 89.0938C195.386 89.0938 194.28 87.9104 194.28 86.2224ZM196.855 83.8731C195.576 83.8731 194.937 85.0042 194.902 85.944H198.843C198.825 85.0216 198.22 83.8731 196.855 83.8731Z" fill="#00386C"></path><path d="M211.961 88.9545V85.2478C211.961 84.2037 211.443 83.9078 210.647 83.9078C209.956 83.9078 209.23 84.3429 208.885 84.8476V88.9719H208.297V81.4541H208.885V84.3603C209.282 83.8904 210.043 83.4032 210.838 83.4032C211.944 83.4032 212.549 83.9252 212.549 85.1434V88.9719H211.961V88.9545Z" fill="#00386C"></path><path d="M216.299 86.2224C216.299 84.6388 217.405 83.3684 218.892 83.3684C220.534 83.3684 221.45 84.6736 221.45 86.2572V86.4138H216.921C216.973 87.5972 217.768 88.5717 219.047 88.5717C219.739 88.5717 220.361 88.3107 220.81 87.8234L221.104 88.2063C220.568 88.7631 219.877 89.0938 218.978 89.0938C217.423 89.0938 216.299 87.9104 216.299 86.2224ZM218.892 83.8731C217.613 83.8731 216.973 85.0042 216.939 85.944H220.879C220.845 85.0216 220.24 83.8731 218.892 83.8731Z" fill="#00386C"></path><path d="M225.2 88.9547V83.5077H225.788V84.4475C226.255 83.8384 226.86 83.4033 227.62 83.4033V84.0472C227.516 84.0298 227.447 84.0298 227.326 84.0298C226.773 84.0298 226.03 84.5345 225.788 85.0043V88.9721H225.2V88.9547Z" fill="#00386C"></path><path d="M230.697 86.2224C230.697 84.6388 231.803 83.3684 233.289 83.3684C234.931 83.3684 235.847 84.6736 235.847 86.2572V86.4138H231.319C231.371 87.5972 232.166 88.5717 233.445 88.5717C234.136 88.5717 234.758 88.3107 235.208 87.8234L235.501 88.2063C234.966 88.7631 234.274 89.0938 233.376 89.0938C231.803 89.0938 230.697 87.9104 230.697 86.2224ZM233.272 83.8731C231.993 83.8731 231.353 85.0042 231.319 85.944H235.259C235.242 85.0216 234.637 83.8731 233.272 83.8731Z" fill="#00386C"></path></g><defs><linearGradient id="paint0_linear_263_644" x1="89.8682" y1="79.2485" x2="115.183" y2="79.2485" gradientUnits="userSpaceOnUse"><stop stop-color="#4FBFA5"></stop><stop offset="0.01607" stop-color="#3EBAA2"></stop><stop offset="0.0440386" stop-color="#27B49D"></stop><stop offset="0.0765415" stop-color="#16AF9A"></stop><stop offset="0.1158" stop-color="#09AB97"></stop><stop offset="0.1689" stop-color="#02A996"></stop><stop offset="0.2959" stop-color="#00A995"></stop><stop offset="1" stop-color="#007570"></stop></linearGradient><linearGradient id="paint1_linear_263_644" x1="102.526" y1="91.9929" x2="102.526" y2="66.504" gradientUnits="userSpaceOnUse"><stop stop-color="#007570"></stop><stop offset="0.7041" stop-color="#00A995"></stop><stop offset="0.8311" stop-color="#02A996"></stop><stop offset="0.8842" stop-color="#09AB97"></stop><stop offset="0.9235" stop-color="#16AF9A"></stop><stop offset="0.956" stop-color="#27B49D"></stop><stop offset="0.9839" stop-color="#3EBAA2"></stop><stop offset="1" stop-color="#4FBFA5"></stop></linearGradient><linearGradient id="paint2_linear_263_644" x1="73.0001" y1="70.4165" x2="132.933" y2="70.4165" gradientUnits="userSpaceOnUse"><stop stop-color="#00386C"></stop><stop offset="0.7041" stop-color="#007DB0"></stop><stop offset="0.8558" stop-color="#007EB2"></stop><stop offset="0.9193" stop-color="#0081B9"></stop><stop offset="0.9661" stop-color="#0088C6"></stop><stop offset="1" stop-color="#008FD5"></stop></linearGradient><clipPath id="clip0_263_644"><rect width="176" height="41" fill="white" transform="translate(73 51)"></rect></clipPath></defs></svg>