<svg xmlns="http://www.w3.org/2000/svg" width="300" height="140" viewBox="0 0 300 140" fill="none"><rect width="300" height="140" rx="5" fill="white"></rect><g clip-path="url(#clip0_263_786)"><path d="M99.1127 62.4224H91.5775V54.8872C91.5775 51.014 88.4085 47.845 84.5352 47.845C80.5916 47.845 77.4226 51.014 77.4226 54.9576V62.4224H69.8873C66.0141 62.4224 62.8451 65.5914 62.8451 69.5351C62.8451 73.4083 66.0141 76.5774 69.8873 76.5774H77.3521V84.0421C77.3521 87.9858 80.5211 91.1548 84.4648 91.1548C88.4085 91.1548 91.5775 87.9858 91.5775 84.0421V76.5774H99.0423C102.986 76.5774 106.155 73.4083 106.155 69.4647C106.155 65.5914 102.986 62.4224 99.1127 62.4224Z" fill="#00A79D"></path><path d="M84.5352 92C80.169 92 76.6479 88.4789 76.6479 84.1127V77.4225H69.9577C65.5211 77.4225 62 73.831 62 69.5352C62 65.2394 65.5211 61.6479 69.8873 61.6479H76.5775V54.9577C76.5775 50.5211 80.169 47 84.5352 47C88.9014 47 92.4225 50.5211 92.4225 54.8873V61.5775H99.1127C103.479 61.5775 107 65.0986 107 69.4648C107 73.831 103.479 77.3521 99.1127 77.3521H92.4225V84.0423C92.4225 88.4789 88.831 92 84.5352 92ZM69.8873 63.1972C66.4366 63.1972 63.6197 66.0141 63.6197 69.4648C63.6197 72.9155 66.4366 75.7324 69.8873 75.7324H78.1972V84.0423C78.1972 87.493 81.0141 90.3099 84.4648 90.3099C87.9155 90.3099 90.7324 87.493 90.7324 84.0423V75.8028H99.0423C102.493 75.8028 105.31 72.9859 105.31 69.5352C105.31 66.0845 102.493 63.2676 99.0423 63.2676H90.8028V54.8873C90.8028 51.4366 87.9859 48.6197 84.5352 48.6197C81.0845 48.6197 78.2676 51.4366 78.2676 54.8873V63.1972H69.8873Z" fill="black"></path><path d="M84.4648 62.4226C80.5211 62.4226 77.3521 65.5916 77.3521 69.5353C77.3521 73.4789 80.5211 76.648 84.4648 76.648H91.5775V62.4226H84.4648Z" fill="white"></path><path d="M106.155 69.5353C106.155 65.5916 102.986 62.4226 99.0422 62.4226H91.5775V76.5775H99.0422C102.986 76.5775 106.155 73.4085 106.155 69.5353Z" fill="#FBB040"></path><path d="M86.1549 74.3239C82.2113 74.3239 79.0423 71.1549 79.0423 67.2113C79.0423 66.0845 79.3239 65.0986 79.7465 64.1831C78.2676 65.4507 77.3521 67.3521 77.3521 69.5352C77.3521 73.4789 80.5211 76.6479 84.4648 76.6479H91.5775V74.3944H86.1549V74.3239Z" fill="#E6E7E8"></path><path d="M93.338 74.3239H91.5775V76.5774H99.0422C101.859 76.5774 104.324 74.8873 105.451 72.4929C104.183 73.6197 102.563 74.2535 100.803 74.2535H93.338V74.3239Z" fill="#D99937"></path><path d="M103.831 69.5352C103.479 69.5352 103.127 69.2535 103.056 68.9014C102.986 68.4789 102.845 68.0564 102.634 67.7042C102.423 67.3521 102.563 66.9296 102.845 66.7183C103.268 66.4366 103.831 66.5775 104.042 67C104.324 67.493 104.465 68.0564 104.606 68.6197C104.676 69.0423 104.324 69.5352 103.831 69.5352Z" fill="#FECD8A"></path><path d="M101.859 65.662C101.648 65.9437 101.225 66.0846 100.873 65.9437C100.31 65.662 99.7465 65.5212 99.1127 65.5212H93.9014C93.4789 65.5212 93.0563 65.1691 93.0563 64.6761C93.0563 64.2536 93.4084 63.8311 93.9014 63.8311H99.1127C99.9577 63.8311 100.803 64.0423 101.577 64.3944C102 64.6761 102.141 65.2395 101.859 65.662Z" fill="#FECD8A"></path><path d="M89.4648 65.5212H85.2394C84.8169 65.5212 84.3943 65.1691 84.3943 64.6761C84.3943 64.2536 84.7465 63.8311 85.2394 63.8311H89.4648C89.8873 63.8311 90.3098 64.1832 90.3098 64.6761C90.2394 65.1691 89.8873 65.5212 89.4648 65.5212Z" fill="#E6E7E8"></path><path d="M99.1127 61.5774H84.4648C80.0986 61.5774 76.5775 65.0985 76.5775 69.4647C76.5775 73.8309 80.0986 77.352 84.4648 77.352H99.1127C103.479 77.352 107 73.8309 107 69.4647C107 65.0985 103.479 61.5774 99.1127 61.5774ZM78.1267 69.5351C78.1267 66.0844 80.9436 63.2675 84.3944 63.2675H90.7324V75.8732H84.3944C81.0141 75.8027 78.1267 72.9858 78.1267 69.5351ZM99.1127 75.8027H92.4225V63.1971H99.1127C102.563 63.1971 105.38 66.014 105.38 69.4647C105.38 72.9154 102.563 75.8027 99.1127 75.8027Z" fill="black"></path><path d="M121.296 63.0562C125.028 63.0562 127.141 64.8871 127.141 68.1266C127.141 71.5069 125.028 73.4787 121.296 73.4787H118.338V77.6336H115.028V63.0562H121.296ZM118.338 70.7322H121.085C122.916 70.7322 123.972 69.8871 123.972 68.197C123.972 66.5773 122.916 65.7322 121.085 65.7322H118.338V70.7322Z" fill="black"></path><path d="M139.183 77.704V71.9294H132.563V77.704H129.254V63.0562H132.563V69.1829H139.183V63.0562H142.493V77.704H139.183Z" fill="black"></path><path d="M148.62 74.8871L147.493 77.704H144.113L150.451 63.0562H153.831L160.099 77.704H156.578L155.451 74.8871H148.62ZM152 66.5069L149.676 72.2111H154.324L152 66.5069Z" fill="black"></path><path d="M168.268 73.5491H167.986H164.958V77.704H161.648V63.0562H167.986C171.789 63.0562 173.972 64.8871 173.972 68.1266C173.972 70.3801 172.986 71.9998 171.225 72.8449L174.324 77.704H170.592L168.268 73.5491ZM167.986 70.7322C169.817 70.7322 170.873 69.8871 170.873 68.197C170.873 66.5773 169.817 65.7322 167.986 65.7322H164.958V70.6618H167.986V70.7322Z" fill="black"></path><path d="M189.676 77.704V67.8449L185.803 76.2252H183.62L179.747 67.8449V77.704H176.789V63.0562H180.521L184.817 71.9998L189.042 63.0562H192.704V77.704H189.676Z" fill="black"></path><path d="M198.761 74.8871L197.634 77.704H194.254L200.592 63.0562H203.972L210.24 77.704H206.719L205.592 74.8871H198.761ZM202.212 66.5069L199.888 72.2111H204.535L202.212 66.5069Z" fill="black"></path><path d="M223.901 65.3802L222 67.7041C221.014 66.5774 219.535 65.8027 218.197 65.8027C215.662 65.8027 213.761 67.7746 213.761 70.3098C213.761 72.845 215.732 74.8168 218.197 74.8168C219.535 74.8168 220.944 74.1126 222 73.1267L223.972 75.2394C222.423 76.8591 220.169 77.845 218.056 77.845C213.69 77.845 210.38 74.6056 210.38 70.3802C210.38 66.1549 213.761 62.9858 218.197 62.9858C220.24 62.9858 222.493 63.9013 223.901 65.3802Z" fill="black"></path><path d="M232.986 77.704H229.676V73.0562L224.254 63.0562H227.564L231.296 69.6054L234.958 63.0562H238.268L232.916 72.9857V77.704H232.986Z" fill="black"></path><path d="M118.338 81.2253L118.056 81.8591C117.634 81.5774 117.141 81.507 116.789 81.507C116.366 81.507 116.085 81.6478 116.085 81.9295C116.085 82.845 118.408 82.352 118.408 83.9013C118.408 84.676 117.704 85.1689 116.789 85.1689C116.085 85.1689 115.451 84.8872 115.028 84.4647L115.31 83.8309C115.732 84.2534 116.296 84.4647 116.789 84.4647C117.282 84.4647 117.563 84.2534 117.563 83.9717C117.563 82.9858 115.239 83.5492 115.239 81.9999C115.239 81.2957 115.873 80.8027 116.789 80.8027C117.423 80.8027 117.986 81.014 118.338 81.2253Z" fill="black"></path><path d="M123.056 84.4647V85.0985H120.451V80.8027H121.155V84.3943H123.056V84.4647Z" fill="black"></path><path d="M129.113 82.9858C129.113 84.183 128.127 85.1689 126.859 85.1689C125.592 85.1689 124.606 84.2534 124.606 82.9858C124.606 81.7886 125.592 80.8027 126.859 80.8027C128.127 80.8027 129.113 81.7182 129.113 82.9858ZM125.31 82.9858C125.31 83.8309 126.014 84.5351 126.859 84.5351C127.704 84.5351 128.408 83.8309 128.408 82.9858C128.408 82.1408 127.704 81.507 126.859 81.507C126.014 81.4365 125.31 82.1408 125.31 82.9858Z" fill="black"></path><path d="M134.535 82.9859V84.5352C134.113 84.8873 133.479 85.0986 132.845 85.0986C131.577 85.0986 130.592 84.1831 130.592 82.9155C130.592 81.7183 131.577 80.7324 132.915 80.7324C133.549 80.7324 134.113 80.9437 134.535 81.2958L134.113 81.8592C133.761 81.5775 133.338 81.3662 132.845 81.3662C132 81.3662 131.296 82 131.296 82.9155C131.296 83.7606 132 84.4648 132.845 84.4648C133.197 84.4648 133.549 84.324 133.831 84.1831V82.9859H134.535Z" fill="black"></path><path d="M137.352 84.1126L136.93 85.0985H136.155L138.056 80.8027H138.761L140.662 85.0985H139.887L139.465 84.1126H137.352ZM138.408 81.5774L137.634 83.4788H139.254L138.408 81.5774Z" fill="black"></path><path d="M145.451 85.0985L143.197 81.9999V85.0985H142.493V80.8027H143.197L145.521 83.9013V80.8027H146.225V85.0985H145.451Z" fill="black"></path><path d="M154.887 82.9859V84.5352C154.465 84.8873 153.831 85.0986 153.197 85.0986C151.93 85.0986 150.944 84.1831 150.944 82.9155C150.944 81.7183 151.93 80.7324 153.268 80.7324C153.901 80.7324 154.465 80.9437 154.887 81.2958L154.465 81.8592C154.113 81.5775 153.69 81.3662 153.197 81.3662C152.352 81.3662 151.648 82 151.648 82.9155C151.648 83.7606 152.352 84.4648 153.197 84.4648C153.549 84.4648 153.901 84.324 154.183 84.1831V82.9859H154.887Z" fill="black"></path><path d="M161.296 82.9858C161.296 84.183 160.31 85.1689 159.042 85.1689C157.775 85.1689 156.789 84.2534 156.789 82.9858C156.789 81.7886 157.775 80.8027 159.042 80.8027C160.31 80.8027 161.296 81.7182 161.296 82.9858ZM157.493 82.9858C157.493 83.8309 158.197 84.5351 159.042 84.5351C159.887 84.5351 160.592 83.8309 160.592 82.9858C160.592 82.1408 159.887 81.507 159.042 81.507C158.197 81.4365 157.493 82.1408 157.493 82.9858Z" fill="black"></path><path d="M163.972 81.507V82.6337H166.085V83.2675H163.972V84.4647H166.366V85.0985H163.268V80.8027H166.296V81.507H163.972Z" fill="black"></path><path d="M171.366 81.2254L171.085 81.8592C170.592 81.5775 170.169 81.4366 169.817 81.4366C169.394 81.4366 169.113 81.5775 169.113 81.8592C169.113 82.7747 171.437 82.2817 171.437 83.831C171.437 84.6057 170.732 85.0986 169.817 85.0986C169.113 85.0986 168.479 84.8169 168.056 84.3944L168.338 83.7606C168.761 84.1831 169.324 84.3944 169.817 84.3944C170.31 84.3944 170.592 84.1831 170.592 83.9014C170.592 82.9155 168.268 83.4789 168.268 81.9296C168.268 81.2254 168.901 80.7324 169.817 80.7324C170.451 80.8028 171.014 81.0141 171.366 81.2254Z" fill="black"></path><path d="M179.254 85.0985V83.3379H177V85.0985H176.296V80.8027H177V82.6337H179.254V80.8027H179.958V85.0985H179.254Z" fill="black"></path><path d="M183.056 81.507V82.6337H185.169V83.2675H183.056V84.4647H185.451V85.0985H182.352V80.8027H185.38V81.507H183.056Z" fill="black"></path><path d="M189.465 83.8309C189.394 83.8309 189.324 83.8309 189.254 83.8309H188.268V85.0985H187.563V80.8027H189.324C190.451 80.8027 191.014 81.3661 191.014 82.2816C191.014 82.9858 190.662 83.4788 190.099 83.6901L191.085 85.0985H190.24L189.465 83.8309ZM189.324 83.1971C189.958 83.1971 190.38 82.9154 190.38 82.352C190.38 81.7887 190.028 81.507 189.324 81.507H188.338V83.1971H189.324Z" fill="black"></path><path d="M193.901 81.507V82.6337H196.014V83.2675H193.901V84.4647H196.296V85.0985H193.197V80.8027H196.225V81.507H193.901Z" fill="black"></path></g><defs><clipPath id="clip0_263_786"><rect width="176.268" height="45" fill="white" transform="translate(62 47)"></rect></clipPath></defs></svg>