<svg xmlns="http://www.w3.org/2000/svg" width="300" height="140" viewBox="0 0 300 140" fill="none"><rect width="300" height="140" rx="5" fill="white"></rect><g clip-path="url(#clip0_263_872)"><path fill-rule="evenodd" clip-rule="evenodd" d="M85.7531 72.5062C86.9629 66.9753 88.3457 67.1481 89.7284 72.5062C88.3457 72.3333 86.9629 72.3333 85.7531 72.5062ZM87.6543 49C76.074 49 66.5679 58.3333 66.5679 70.0864C66.5679 72.3333 66.9136 74.5802 67.6049 76.6543C71.4074 74.9259 75.5555 73.716 79.5308 73.0247C79.358 72.1605 79.358 71.2963 79.1852 70.2593C79.0123 67.321 76.074 60.9259 77.2839 57.4691C78.4938 54.1852 82.1234 54.358 84.1975 55.2222C85.4074 55.7407 86.4444 56.0864 87.6543 56.0864C86.0987 57.1235 84.5432 57.8148 82.2963 57.9877C87.6543 58.3333 90.2469 54.7037 93.5308 54.8765C95.2592 54.8765 97.1605 55.5679 97.8518 57.642C99.0617 60.9259 96.1234 67.4938 95.9506 70.4321C95.9506 71.2963 95.7778 72.1605 95.6049 73.1975C99.7531 73.8889 103.728 75.0988 107.531 76.8272C108.222 74.7531 108.568 72.5062 108.568 70.2593C108.741 58.3333 99.2345 49 87.6543 49Z" fill="#242424"></path><path fill-rule="evenodd" clip-rule="evenodd" d="M60 82.358C63.1111 81.6667 66.2222 80.9753 69.3333 80.4568C72.963 86.8519 79.7037 91.1729 87.6543 91.1729C91.4568 91.1729 94.9136 90.1358 98.0247 88.4074L105.802 90.6543C106.494 90.8272 107.185 90.6543 107.704 90.1358C108.222 89.6173 108.395 88.926 108.222 88.2346V88.0618L105.975 80.4568C109.086 80.9753 112.198 81.6667 115.309 82.358C98.5432 70.9506 76.7654 70.9506 60 82.358Z" fill="#C80007"></path><path fill-rule="evenodd" clip-rule="evenodd" d="M169.926 62.8271V76.6543H167.333V62.8271H169.926ZM162.84 72.3333C162.148 72.1605 161.457 72.1605 160.765 72.1605C159.556 72.1605 158.864 72.5062 158.864 73.3704C158.864 74.2346 159.383 74.7531 160.42 74.7531C161.284 74.7531 161.975 74.4074 162.84 73.8889V72.3333ZM156.444 73.3704C156.444 71.2963 157.827 70.4321 160.765 70.4321C161.457 70.4321 162.148 70.4321 162.84 70.6049V69.9136C162.84 69.0494 162.148 68.5309 160.938 68.5309C159.901 68.5309 158.691 68.7037 157.309 69.0494V66.9753C158.691 66.6296 159.901 66.4568 160.938 66.4568C163.877 66.4568 165.432 67.4938 165.432 69.7407V76.6543H163.877L163.012 75.7901C162.148 76.3086 161.111 76.6543 160.074 76.6543C157.654 76.6543 156.444 75.6173 156.444 73.3704ZM150.914 64.9012H152.815L153.161 66.4568H155.753V68.5309H153.506V73.1975C153.506 74.0617 153.852 74.5802 154.716 74.5802H155.753V76.6543H153.506C151.778 76.6543 150.914 75.7901 150.914 73.8889V64.9012ZM140.025 76.6543V66.6296H141.926L142.272 68.1852C143.309 67.1481 144.346 66.6296 145.556 66.6296C147.975 66.6296 149.185 67.8395 149.185 70.4321V76.6543H146.593V70.2592C146.593 69.2222 146.074 68.5309 144.864 68.5309C144 68.5309 143.309 68.8765 142.444 69.5679V76.6543H140.025ZM131.728 70.6049H136.049C136.049 69.2222 135.358 68.5309 133.975 68.5309C132.593 68.5309 131.901 69.2222 131.728 70.6049ZM133.975 66.4568C137.086 66.4568 138.642 68.0123 138.642 71.1234C138.642 71.4691 138.642 71.9876 138.469 72.3333H131.728C131.728 73.716 132.765 74.4074 134.84 74.4074C135.877 74.4074 136.914 74.2346 137.951 74.0617V76.1358C137.086 76.4815 136.049 76.6543 134.667 76.6543C131.037 76.6543 129.136 74.9259 129.136 71.4691C129.309 68.1852 130.864 66.4568 133.975 66.4568ZM116.173 76.6543V62.8271H121.531C126.025 62.8271 128.272 65.0741 128.272 69.3951C128.272 74.2346 126.025 76.6543 121.531 76.6543H116.173ZM121.531 74.4074C124.296 74.4074 125.852 72.679 125.852 69.3951C125.852 66.4568 124.469 65.0741 121.531 65.0741H118.765V74.4074H121.531Z" fill="#242424"></path><path fill-rule="evenodd" clip-rule="evenodd" d="M235.605 64.9012H237.506L237.852 66.4568H240.444V68.5309H238.198V73.1975C238.198 74.0617 238.543 74.5802 239.407 74.5802H240.444V76.6543H238.025C236.296 76.6543 235.432 75.7901 235.432 73.8889V64.9012H235.605ZM233.877 62.8271V76.6543H231.284V62.8271H233.877ZM229.383 66.4568V76.6543H227.309L226.963 75.4444C225.926 76.1358 224.716 76.6543 223.333 76.6543C221.259 76.6543 220.222 75.4444 220.222 73.0247V66.6296H222.815V73.0247C222.815 74.0617 223.333 74.7531 224.198 74.7531C225.062 74.7531 225.926 74.4074 226.79 73.716V66.6296H229.383V66.4568ZM210.889 76.1358V74.0617C211.926 74.5802 213.309 74.7531 214.691 74.7531C215.728 74.7531 216.42 74.4074 216.42 73.716C216.42 73.0247 216.074 72.679 215.383 72.679H213.482C211.407 72.679 210.37 71.642 210.37 69.5679C210.37 67.4938 211.926 66.4568 214.864 66.4568C216.074 66.4568 217.284 66.6296 218.494 66.9753V69.0494C217.457 68.5309 216.074 68.358 214.864 68.358C213.482 68.358 212.79 68.7037 212.79 69.3951C212.79 70.0864 213.136 70.4321 214 70.4321H215.556C217.802 70.4321 218.84 71.4691 218.84 73.3704C218.84 75.4444 217.457 76.4815 214.519 76.4815C213.309 76.6543 212.099 76.4815 210.889 76.1358ZM199.827 76.6543V66.6296H201.728L202.074 68.1852C203.111 67.1481 204.148 66.6296 205.358 66.6296C207.778 66.6296 208.988 67.8395 208.988 70.4321V76.6543H206.395V70.2592C206.395 69.2222 205.877 68.5309 204.667 68.5309C203.802 68.5309 203.111 68.8765 202.247 69.5679V76.6543H199.827ZM188.42 71.4691C188.42 68.0123 190.148 66.4568 193.432 66.4568C196.716 66.4568 198.444 68.1852 198.444 71.4691C198.444 74.9259 196.716 76.4815 193.432 76.4815C190.148 76.6543 188.42 74.9259 188.42 71.4691ZM191.012 71.4691C191.012 73.5432 191.877 74.5802 193.432 74.5802C194.988 74.5802 195.852 73.5432 195.852 71.4691C195.852 69.395 194.988 68.358 193.432 68.358C191.877 68.358 191.012 69.395 191.012 71.4691ZM187.21 75.963C186.173 76.4815 184.79 76.6543 183.235 76.6543C178.222 76.6543 175.802 74.2346 175.802 69.5679C175.802 65.0741 178.395 62.8271 183.235 62.8271C184.79 62.8271 186 63 187.21 63.5185V65.7654C186 65.2469 184.79 65.0741 183.407 65.0741C180.123 65.0741 178.395 66.6296 178.395 69.5679C178.395 72.8518 180.123 74.5802 183.407 74.5802C184.79 74.5802 186 74.4074 187.21 73.8889V75.963Z" fill="#C80007"></path><path fill-rule="evenodd" clip-rule="evenodd" d="M197.062 79.2468V79.5925H195.679V80.2839H196.889V80.8024H195.679V81.4937H197.062V81.8394H195.161V79.2468H197.062ZM191.358 81.8394V79.2468H192.568C193.086 79.2468 193.432 79.4197 193.432 79.9382C193.432 80.2839 193.259 80.4567 192.741 80.8024L193.605 82.0122H192.914L192.049 80.8024V80.6295C192.568 80.6295 192.741 80.2839 192.741 80.111C192.741 79.9382 192.568 79.7653 192.395 79.7653H191.704V81.8394H191.358ZM189.457 79.2468V79.5925H188.074V80.2839H189.284V80.8024H188.074V81.4937H189.457V81.8394H187.556V79.2468H189.457ZM183.407 81.8394V79.2468H183.926V80.2839H185.309V79.2468H185.827V81.8394H185.309V80.8024H183.926V81.8394H183.407ZM178.222 81.8394V79.2468H178.741L180.123 81.1481V79.2468H180.642V81.8394H180.123L178.741 79.9382V81.8394H178.222ZM174.074 81.8394H173.556L174.593 79.2468H175.111L176.321 81.8394H175.802L175.457 81.1481H174.593L174.765 80.8024H175.284L174.938 79.7653L174.074 81.8394ZM171.827 81.6666C171.654 81.8394 171.482 81.8394 171.136 81.8394C170.272 81.8394 169.753 81.3209 169.753 80.4567C169.753 79.5925 170.272 79.074 171.136 79.074C171.482 79.074 171.654 79.074 171.827 79.2468V79.7653C171.654 79.5925 171.309 79.5925 171.136 79.5925C170.444 79.5925 170.272 79.9382 170.272 80.4567C170.272 81.1481 170.617 81.3209 171.136 81.3209C171.309 81.3209 171.309 81.3209 171.481 81.3209V80.6295H172V81.6666H171.827ZM165.259 80.4567C165.259 79.5925 165.778 79.074 166.642 79.074C167.506 79.074 168.025 79.5925 168.025 80.4567C168.025 81.3209 167.506 81.8394 166.642 81.8394C165.778 81.8394 165.259 81.3209 165.259 80.4567ZM165.778 80.4567C165.778 81.1481 166.123 81.3209 166.642 81.3209C167.161 81.3209 167.506 80.9752 167.506 80.4567C167.506 79.9382 167.161 79.5925 166.642 79.5925C166.123 79.5925 165.778 79.9382 165.778 80.4567ZM162.667 79.2468V81.4937H163.704V81.8394H162.148V79.2468H162.667ZM158.346 81.6666V81.1481C158.691 81.3209 158.864 81.3209 159.21 81.3209C159.556 81.3209 159.728 81.148 159.728 80.9752C159.728 80.8024 159.556 80.6295 159.383 80.6295H159.037C158.519 80.6295 158.173 80.4567 158.173 79.9382C158.173 79.4197 158.519 79.074 159.383 79.074C159.728 79.074 159.901 79.074 160.247 79.2468V79.7653C159.901 79.5925 159.728 79.5925 159.383 79.5925C158.864 79.5925 158.691 79.7653 158.691 79.9382C158.691 80.111 158.864 80.2839 159.037 80.2839H159.383C159.901 80.2839 160.247 80.4567 160.247 80.9752C160.247 81.4937 159.901 81.8394 159.21 81.8394C158.864 81.8394 158.519 81.8394 158.346 81.6666Z" fill="#C80007"></path></g><defs><clipPath id="clip0_263_872"><rect width="180.444" height="42" fill="white" transform="translate(60 49)"></rect></clipPath></defs></svg>