<svg xmlns="http://www.w3.org/2000/svg" viewBox="0 0 512 446.1"><path d="m422.8 128.9h-37.2v-39.7c0-22.7-8.6-44.4-24.1-61-2.9-3.1-7.7-3.2-10.8-.4-3.1 2.9-3.2 7.7-.4 10.8 12.9 13.7 20 31.7 20 50.5v39.7h-155.7c-49.2 0-89.2 40-89.2 89.2v27.4h-12c-4.8 0-9.2 1.9-12.6 5.2l-40.6 40.6v-40.8c0-6.3-3.3-12.1-8.7-15.3-22.3-13.3-36.2-37.6-36.2-63.6v-82.3c0-40.8 33.2-73.9 73.9-73.9h207.1c9.6 0 18.8 1.8 27.6 5.3 3.9 1.6 8.4-.3 10-4.2s-.3-8.4-4.2-10c-10.6-4.2-21.8-6.4-33.4-6.4h-207.1c-49.2 0-89.2 40-89.2 89.2v82.3c0 31.3 16.7 60.7 43.7 76.7.8.5 1.3 1.3 1.3 2.2v44.6c0 5.6 3.3 10.6 8.5 12.7 3.4 1.7 10.5 1.4 15-3l43.2-43.2c.5-.5 1.1-.7 1.8-.7h12v39.7c0 12 2.4 23.7 7 34.7 1.6 3.9 6.1 5.7 10 4.1s5.7-6.1 4.1-10c-3.9-9.1-5.8-18.8-5.8-28.8v-82.3c0-40.8 33.2-73.9 73.9-73.9h208.1c40.8 0 73.9 33.2 73.9 73.9v82.3c0 26-13.3 49.7-35.6 63.2-5.3 3.2-8.5 9-8.5 15.2v49.9l-49.1-49.1c-3.4-3.4-7.9-5.2-12.6-5.2h-176.3c-18.6 0-36.3-6.9-50-19.4-3.1-2.9-7.9-2.6-10.8.5s-2.6 8 .5 10.8c16.5 15.1 37.9 23.5 60.3 23.5h176.2c.7 0 1.3.3 1.8.7l51.7 51.7c4 3.1 7.9 5.4 15 3 5.2-2.1 8.5-7.1 8.5-12.7v-53.6c0-.9.4-1.7 1.2-2.1 26.9-16.3 43-44.9 43-76.3v-82.3c0-49.4-40-89.4-89.2-89.4z"></path><path d="m297.1 311.3c-4.5-6.3-12.7-10.6-22-10.6-14.1 0-25.6 9.8-25.6 21.8s11.5 21.8 25.6 21.8c12.4 0 22.8-7.5 25.1-17.5 11.3-4.8 20.2-14.2 24-26.2 11.2-2.5 19.5-12.5 19.5-24.5v-27.6c0-11.5-7.8-21.2-18.4-24.2-2.5-15.4-10-29.5-21.6-40.1-12.9-11.9-29.7-18.4-47.2-18.4-34.6 0-63.4 24.9-68.9 58.5-10.6 3-18.4 12.7-18.4 24.2v27.6c0 13.8 11.3 25.1 25.1 25.1s25.1-11.3 25.1-25.1v-27.6c0-10.8-6.8-20-16.4-23.6 5-25.3 27.1-43.9 53.5-43.9 26 0 48.4 18.9 53.4 43.9-9.6 3.5-16.4 12.8-16.4 23.6v27.6c0 10.2 6.1 19 14.9 22.9-2.3 5.2-6.3 9.5-11.3 12.3zm-21.9 17.6c-6.1 0-10.3-3.4-10.3-6.5s4.2-6.5 10.3-6.5 10.3 3.4 10.3 6.5-4.3 6.5-10.3 6.5zm-70.9-52.8c0 5.4-4.4 9.8-9.8 9.8s-9.8-4.4-9.8-9.8v-27.6c0-5.4 4.4-9.8 9.8-9.8s9.8 4.4 9.8 9.8zm104.6-27.6c0-5.4 4.4-9.8 9.8-9.8s9.8 4.4 9.8 9.8v27.6c0 5.4-4.4 9.8-9.8 9.8s-9.8-4.4-9.8-9.8z"></path><path d="m363.7 209.1h60.9c4.2 0 7.6-3.4 7.6-7.6s-3.4-7.6-7.6-7.6h-60.9c-4.2 0-7.6 3.4-7.6 7.6s3.4 7.6 7.6 7.6z"></path><path d="m363.7 243.3h47c4.2 0 7.6-3.4 7.6-7.6s-3.4-7.6-7.6-7.6h-47c-4.2 0-7.6 3.4-7.6 7.6s3.4 7.6 7.6 7.6z"></path><circle cx="75.2" cy="100" r="11.4"></circle><circle cx="109.8" cy="100" r="11.4"></circle><circle cx="144.1" cy="100" r="11.4"></circle></svg>