<svg xmlns="http://www.w3.org/2000/svg" viewBox="0 0 89 77"><path d="m66 62.6c-.6-.6-1.5-.6-2 0-.6.6-.6 1.4 0 2l5.6 5.5c.3.3.7.4 1 .4s.7-.1 1-.4c.6-.6.6-1.4 0-2zm10-49.8c-8.4-8.3-19.6-12.8-31.5-12.8s-23.1 4.5-31.5 12.8c-8.4 8.2-13 19.1-13 30.8 0 11.6 4.6 22.6 13 30.8.6.6 1.5.6 2 0 .6-.6.6-1.4 0-2-7.8-7.7-12.1-17.9-12.1-28.8s4.3-21.1 12.2-28.8c7.8-7.7 18.3-12 29.4-12s21.6 4.2 29.4 11.9c7.9 7.7 12.2 17.9 12.2 28.8s-4.3 21.1-12.2 28.8c-.6.6-.6 1.4 0 2 .3.3.7.4 1 .4s.7-.1 1-.4c8.4-8.2 13-19.2 13-30.8.1-11.6-4.5-22.5-12.9-30.7zm-53 49.8-5.6 5.5c-.6.6-.6 1.4 0 2 .3.3.7.4 1 .4s.7-.1 1-.4l5.6-5.5c.6-.6.6-1.4 0-2-.5-.5-1.4-.5-2 0zm-3.5-45.5c-.6-.6-1.5-.6-2 0-.6.6-.6 1.4 0 2l5.6 5.5c.3.3.7.4 1 .4.4 0 .7-.1 1-.4.6-.6.6-1.4 0-2zm-3.9 25.1h-7.9c-.8 0-1.4.6-1.4 1.4s.6 1.4 1.4 1.4h7.9c.8 0 1.4-.6 1.4-1.4s-.7-1.4-1.4-1.4zm67.2 1.4c0-.8-.6-1.4-1.4-1.4h-7.9c-.8 0-1.4.6-1.4 1.4s.6 1.4 1.4 1.4h7.9c.7 0 1.4-.6 1.4-1.4zm-17.8-18.7c.4 0 .7-.1 1-.4l5.6-5.5c.6-.6.6-1.4 0-2s-1.5-.6-2 0l-5.6 5.5c-.6.6-.6 1.4 0 2 .2.3.6.4 1 .4zm-19.1-9.7v-7.7c0-.8-.6-1.4-1.4-1.4s-1.4.6-1.4 1.4v7.7c0 .8.6 1.4 1.4 1.4s1.4-.6 1.4-1.4zm-12.8 61.8h22.8v-10.2h-22.8zm2.8-7.4h17.1v4.6h-17.1zm1.9-26c0 3.6 3 6.5 6.7 6.5s6.7-2.9 6.7-6.5c0-2.3-1.2-4.3-3-5.5l6.7-17.6c.3-.7-.1-1.5-.8-1.8s-1.6.1-1.8.8l-6.7 17.6c-.3 0-.6-.1-.9-.1-3.9.1-6.9 3-6.9 6.6zm6.7-3.7c2.1 0 3.8 1.7 3.8 3.7 0 2.1-1.7 3.7-3.8 3.7s-3.8-1.7-3.8-3.7c0-2.1 1.7-3.7 3.8-3.7z"></path></svg>