<svg xmlns="http://www.w3.org/2000/svg" xmlns:xlink="http://www.w3.org/1999/xlink" id="Layer_1" x="0px" y="0px" viewBox="0 0 120 29.2" style="enable-background:new 0 0 120 29.2;" xml:space="preserve">
<style type="text/css">
	.st0{fill:#0093B2;}
	.st1{fill:#414042;}
</style>
<g>
	<g>
		<circle class="st0" cx="3.7" cy="16.2" r="3.1"></circle>
		<circle class="st0" cx="3.7" cy="26.9" r="2.3"></circle>
		<path class="st0" d="M24.8,26.9c0,1.2-1,2.3-2.3,2.3c-1.2,0-2.3-1-2.3-2.3c0-1.2,1-2.3,2.3-2.3C23.8,24.7,24.8,25.7,24.8,26.9z"></path>
		<circle class="st0" cx="13.2" cy="2.3" r="2.3"></circle>
		<circle class="st0" cx="32" cy="2.3" r="2.3"></circle>
		<ellipse class="st0" cx="32" cy="25.5" rx="3.7" ry="3.7"></ellipse>
		<path class="st0" d="M32.4,10c-0.8-0.1-1.4,0.1-2,0.4l-1.5-1.5c-1.5-1.5-2.4-3.4-2.6-5.5c0,0,0,0,0-0.1c-0.2-1.8-1.7-3.2-3.5-3.3    c-2.3-0.1-4.1,1.7-4,4c0.1,1.8,1.5,3.3,3.3,3.5c0,0,0.1,0,0.1,0c2.1,0.2,4.1,1,5.5,2.5l1.5,1.4c-0.3,0.5-0.4,1-0.4,1.5    c0,0.1,0,0.1,0,0.2l-3.7,1.2c-0.6-0.9-1.7-1.5-2.9-1.4c-1.5,0.2-2.6,1.4-2.7,2.8c0,0.1,0,0.2,0,0.2c0,1.2-0.5,2.5-1.3,3.3    l-2.4,2.3c-0.3,0.3-0.8,0.4-1.2,0.2l0,0c-0.4-0.2-0.7-0.6-0.7-1V18c0-1,0.5-2,1.2-2.7c0.7-0.6,1.2-1.6,1-2.7    c-0.1-1.4-1.3-2.6-2.7-2.8c-0.5-0.1-1,0-1.5,0.2c-0.4,0.1-0.8,0.1-1-0.2l-1-1C8.5,7.4,7.6,5.4,7.4,3.3c0,0,0,0,0-0.1    C7.2,1.5,5.7,0.1,3.9,0C1.7-0.1-0.1,1.8,0,4c0.1,1.8,1.5,3.3,3.3,3.5c0,0,0.1,0,0.1,0c2.1,0.2,4,1,5.5,2.5l1,0.9    c0.3,0.3,0.4,0.7,0.2,1.1c-0.1,0.3-0.2,0.6-0.2,1c0,0.9,0.4,1.8,1.1,2.4c0.8,0.7,1.2,1.7,1.2,2.7v2.9c0,0.4-0.3,0.8-0.7,0.9    c-1.4,0.6-2.4,2-2.3,3.6c0.1,1.8,1.7,3.5,3.6,3.6c2.2,0.1,3.9-1.6,3.9-3.7c0-0.5-0.1-1-0.3-1.4c-0.2-0.4-0.1-0.9,0.2-1.1l2.2-2.2    c0.9-0.9,2.2-1.4,3.5-1.4h0c1.7,0,3.1-1.4,3.1-3.1c0-0.1,0-0.1,0-0.2l3-1c0.4-0.1,0.8,0,1.1,0.3c0.6,0.6,1.3,0.9,2.2,0.9    c1.8,0,3.3-1.6,3.1-3.4C34.9,11.3,33.8,10.2,32.4,10z"></path>
	</g>
	<g>
		<g>
			<path class="st1" d="M43.7,15.3V2.9h2.5l6.3,9.1V2.9h2.2v12.3h-2.5L46,6.1v9.2H43.7z"></path>
			<path class="st1" d="M61.7,15.3V2.9h8.2v2h-6V8h5.2v2.1h-5.2v3.1h6v2L61.7,15.3L61.7,15.3z"></path>
			<path class="st1" d="M76.2,10.1V2.9h2.2v7.3c0,1.1,0.2,1.9,0.7,2.4c0.5,0.5,1.2,0.8,2.2,0.8c1,0,1.8-0.3,2.3-0.8     c0.5-0.5,0.7-1.3,0.7-2.4V2.9h2.2V10c0,1.7-0.5,3-1.4,4s-2.2,1.4-3.8,1.4s-2.9-0.5-3.8-1.4C76.7,13.1,76.2,11.8,76.2,10.1z"></path>
			<path class="st1" d="M93.4,15.3V2.9h4.7c1.4,0,2.6,0.3,3.4,1s1.2,1.7,1.2,2.9c0,1.9-0.9,3.1-2.7,3.6l3.2,4.7h-2.7l-2.9-4.4h-2     v4.4L93.4,15.3L93.4,15.3z M95.6,8.9H98c0.8,0,1.3-0.1,1.8-0.4c0.4-0.3,0.7-0.8,0.7-1.5s-0.2-1.3-0.7-1.5C99.4,5.1,98.8,5,98,5     h-2.5V8.9z"></path>
			<path class="st1" d="M108.5,9.1c0-1,0.1-1.9,0.4-2.7c0.2-0.8,0.5-1.4,0.9-1.8c0.4-0.5,0.8-0.8,1.3-1.1c0.5-0.3,1-0.5,1.5-0.6     c0.5-0.1,1-0.1,1.6-0.1c0.6,0,1.1,0,1.6,0.1c0.5,0.1,1,0.3,1.5,0.6c0.5,0.3,1,0.7,1.3,1.1c0.4,0.5,0.7,1,0.9,1.8     c0.2,0.8,0.4,1.6,0.4,2.7s-0.1,1.9-0.4,2.7c-0.2,0.8-0.5,1.4-0.9,1.8c-0.4,0.5-0.8,0.8-1.3,1.1c-0.5,0.3-1,0.5-1.5,0.6     s-1,0.1-1.6,0.1c-0.6,0-1.1,0-1.6-0.1c-0.5-0.1-1-0.3-1.5-0.6c-0.5-0.3-1-0.7-1.3-1.1c-0.4-0.5-0.7-1-0.9-1.8     C108.6,11,108.5,10.1,108.5,9.1z M110.7,9.1c0,0.9,0.1,1.7,0.3,2.3c0.2,0.6,0.5,1,0.8,1.3c0.4,0.3,0.7,0.5,1.1,0.6     c0.4,0.1,0.8,0.2,1.3,0.2c0.4,0,0.8,0,1.1-0.1c0.3-0.1,0.6-0.2,0.9-0.4c0.3-0.2,0.6-0.4,0.8-0.8c0.2-0.3,0.4-0.8,0.5-1.3     c0.1-0.6,0.2-1.2,0.2-1.9c0-0.9-0.1-1.7-0.3-2.3c-0.2-0.6-0.5-1-0.8-1.3c-0.4-0.3-0.7-0.5-1.1-0.6c-0.4-0.1-0.8-0.1-1.3-0.1     c-0.4,0-0.8,0-1.1,0.1c-0.3,0.1-0.6,0.2-0.9,0.4c-0.3,0.2-0.6,0.4-0.8,0.7c-0.2,0.3-0.4,0.7-0.5,1.3     C110.8,7.7,110.7,8.3,110.7,9.1z"></path>
		</g>
		<g>
			<path class="st1" d="M43.7,21.8v-1h4.6v1h-1.8v4.6h-1v-4.6H43.7z"></path>
			<path class="st1" d="M52.5,26.4l2.3-5.7h1.1l2.3,5.7H57L56.5,25h-2.4l-0.5,1.4H52.5z M54.4,24.1h1.7l-0.9-2.2L54.4,24.1z"></path>
			<path class="st1" d="M62.9,23.6c0-0.5,0.1-0.9,0.2-1.2c0.1-0.4,0.3-0.6,0.4-0.9c0.2-0.2,0.4-0.4,0.6-0.5c0.2-0.1,0.5-0.2,0.7-0.3     c0.2,0,0.5-0.1,0.8-0.1c0.6,0,1.3,0.1,1.9,0.4V22c-0.6-0.3-1.2-0.4-1.8-0.4c-0.2,0-0.4,0-0.5,0c-0.2,0-0.3,0.1-0.5,0.2     c-0.2,0.1-0.3,0.2-0.4,0.3c-0.1,0.1-0.2,0.3-0.3,0.6c-0.1,0.2-0.1,0.5-0.1,0.9s0,0.6,0.1,0.9c0.1,0.2,0.2,0.4,0.3,0.6     c0.1,0.1,0.2,0.3,0.4,0.3c0.2,0.1,0.3,0.1,0.5,0.2c0.2,0,0.3,0,0.5,0c0.3,0,0.7,0,1-0.1v-1.3h-1.2v-0.9h2.3V26     c-0.7,0.3-1.3,0.5-2.1,0.5c0,0,0,0,0,0c-0.3,0-0.5,0-0.8-0.1c-0.2,0-0.5-0.1-0.7-0.3c-0.2-0.1-0.5-0.3-0.6-0.5     c-0.2-0.2-0.3-0.5-0.4-0.9C62.9,24.5,62.9,24,62.9,23.6z"></path>
			<path class="st1" d="M73.2,26.4v-5.7h1v4.7h2.7v0.9H73.2z"></path>
			<path class="st1" d="M82.3,26.4v-5.7h1v5.7H82.3z"></path>
			<path class="st1" d="M88.9,26.4v-5.7h1.1l2.9,4.2v-4.2h1v5.7h-1.1L90,22.2v4.2H88.9z"></path>
			<path class="st1" d="M99.7,26.4v-5.7h3.8v0.9h-2.7v1.4h2.4v0.9h-2.4v1.4h2.7v0.9C103.5,26.4,99.7,26.4,99.7,26.4z"></path>
		</g>
	</g>
</g>
</svg>