<svg xmlns="http://www.w3.org/2000/svg" viewBox="0 0 88 90"><path d="m87.1 47.4-54.2-14.9c-.4-.1-.9 0-1.3.4s-.5.8-.4 1.3l14.6 54.9c.2.5.7.9 1.2.9s1-.4 1.1-.9l10.6-28.9 28.4-10.3c.5-.1.9-.6.9-1.3 0-.5-.4-1.1-.9-1.2zm-29.6 10.6c-.4.1-.6.4-.8.8l-9.4 25.6-13-48.8 48.3 13.4zm-29.6-.5c-14.2-1.2-25.4-13.1-25.4-27.5 0-15.2 12.3-27.5 27.4-27.5 14-.1 25.7 10.5 27.2 24.5.1.6.8 1.1 1.4 1.1.6-.1 1.1-.8 1.1-1.4-1.6-15.2-14.4-26.7-29.7-26.7-16.5 0-29.9 13.5-29.9 30.1 0 15.5 12 28.7 27.6 30 .8 0 1.3-.5 1.4-1.1 0-.9-.5-1.4-1.1-1.5zm14.7-34.3c.4.6 1.1.9 1.8.5.6-.4.9-1.1.5-1.8-2.9-5.5-8.6-8.8-14.7-8.8-9.2 0-16.7 7.5-16.7 16.8 0 6.6 3.9 12.7 10 15.4.1.1.4.1.5.1.5 0 .9-.3 1.1-.8.3-.6 0-1.4-.6-1.7-5.2-2.3-8.5-7.4-8.5-13-.1-8 6.2-14.4 14.1-14.4 5.1.2 9.9 3.1 12.5 7.7z"></path></svg>